{"glyphs":{"0":{"ha":806,"x_min":36,"x_max":769,"o":"m 135 842 q 184 909 135 842 q 403 975 233 975 q 671 842 572 975 q 769 476 769 710 q 671 110 769 243 q 403 -22 572 -22 q 135 110 233 -22 q 36 476 36 243 q 135 842 36 710 m 533 476 q 533 614 533 476 q 403 751 533 751 q 272 476 272 751 q 403 201 272 201 q 533 476 533 201 z "},"1":{"ha":806,"x_min":119,"x_max":583,"o":"m 199 549 l 119 686 l 583 975 l 583 0 l 360 -22 l 360 626 l 199 549 z "},"2":{"ha":806,"x_min":29,"x_max":776,"o":"m 351 542 l 218 364 q 88 475 143 403 q 33 650 33 547 q 55 764 33 708 q 118 868 76 819 q 231 946 160 917 q 393 975 303 975 q 555 946 483 975 q 667 869 626 917 q 728 768 707 821 q 749 661 749 715 q 721 530 749 596 q 669 431 693 464 q 597 342 644 397 l 489 213 l 776 213 l 719 0 l 29 0 q 397 439 389 431 q 504 653 504 565 q 469 738 504 707 q 383 768 433 768 q 301 736 335 768 q 267 656 267 704 q 289 586 267 618 q 351 542 311 554 z "},"3":{"ha":806,"x_min":47,"x_max":750,"o":"m 278 406 l 278 572 l 358 572 q 451 602 419 572 q 483 676 483 632 q 453 751 483 722 q 371 781 422 781 q 217 692 271 781 l 51 786 q 390 975 163 975 q 628 894 543 975 q 714 696 714 814 q 613 507 714 578 q 647 484 629 497 q 692 444 665 471 q 734 376 718 418 q 750 283 750 333 q 656 67 750 157 q 389 -22 561 -22 q 47 131 183 -22 l 204 289 q 379 192 271 192 q 474 224 442 192 q 507 299 507 257 q 477 373 507 340 q 378 406 447 406 l 278 406 z "},"4":{"ha":806,"x_min":24,"x_max":778,"o":"m 335 953 l 646 953 l 646 424 l 778 424 l 743 232 l 646 232 l 646 0 l 414 -19 l 414 232 l 24 232 l 335 953 m 435 424 l 435 743 l 297 424 l 435 424 z "},"5":{"ha":806,"x_min":36,"x_max":729,"o":"m 136 953 l 683 953 l 621 739 l 364 739 l 364 651 q 418 654 382 654 q 644 559 560 654 q 729 325 729 464 q 633 81 729 185 q 369 -22 538 -22 q 36 114 164 -22 l 190 282 q 338 208 251 208 q 447 246 407 208 q 486 333 486 283 q 445 429 486 389 q 326 469 404 469 q 136 426 235 469 l 136 953 z "},"6":{"ha":806,"x_min":51,"x_max":757,"o":"m 415 975 l 650 907 q 389 628 478 763 q 478 639 429 639 q 672 556 586 639 q 757 328 757 472 q 658 74 757 171 q 401 -22 558 -22 q 148 78 244 -22 q 51 338 51 179 q 92 539 51 435 q 200 731 133 643 q 316 874 267 819 q 415 975 365 929 m 406 457 q 313 419 350 457 q 275 326 275 382 q 313 231 275 269 q 406 192 351 192 q 496 231 458 192 q 533 326 533 269 q 497 419 533 381 q 406 457 460 457 z "},"7":{"ha":806,"x_min":63,"x_max":760,"o":"m 453 739 l 63 739 l 117 953 l 760 953 l 454 11 l 189 -11 l 453 739 z "},"8":{"ha":806,"x_min":53,"x_max":753,"o":"m 253 947 q 286 960 253 947 q 403 974 318 974 q 552 947 488 974 q 651 877 617 921 q 703 787 686 833 q 719 693 719 740 q 690 588 719 642 q 607 497 660 535 q 753 261 753 410 q 663 62 753 146 q 403 -22 572 -22 q 144 62 235 -22 q 53 263 53 146 q 199 497 53 407 q 116 588 146 535 q 86 693 86 642 q 103 787 86 740 q 154 877 119 833 q 253 947 189 921 m 403 597 q 470 642 444 613 q 496 703 496 672 q 475 759 496 733 q 403 785 454 785 q 331 759 351 785 q 310 703 310 733 q 335 642 310 672 q 403 597 361 613 m 403 406 q 312 349 340 385 q 283 275 283 313 q 315 208 283 236 q 403 179 346 179 q 491 208 460 179 q 522 275 522 236 q 494 349 522 313 q 403 406 465 385 z "},"9":{"ha":806,"x_min":49,"x_max":754,"o":"m 390 -22 l 156 46 q 417 325 328 190 q 328 314 376 314 q 134 397 219 314 q 49 625 49 481 q 148 878 49 782 q 404 975 247 975 q 658 874 561 975 q 754 615 754 774 q 713 414 754 518 q 606 222 672 310 q 490 78 539 133 q 390 -22 440 24 m 400 496 q 493 533 456 496 q 531 626 531 571 q 492 722 531 683 q 400 761 454 761 q 310 722 347 761 q 272 626 272 683 q 309 534 272 572 q 400 496 346 496 z "},"\u0000":{"ha":324,"x_min":0,"x_max":0,"o":""}," ":{"ha":324,"x_min":0,"x_max":0,"o":""},"!":{"ha":463,"x_min":82,"x_max":379,"o":"m 106 954 l 351 988 l 329 324 l 128 301 l 106 954 m 231 250 l 379 104 l 231 -42 l 82 104 l 231 250 z "},"\"":{"ha":463,"x_min":21,"x_max":442,"o":"m 275 576 l 275 953 l 442 953 l 442 576 l 275 576 m 21 576 l 21 953 l 188 953 l 188 576 l 21 576 z "},"#":{"ha":919,"x_min":42,"x_max":878,"o":"m 524 192 l 389 192 l 447 344 l 329 344 l 271 192 l 136 192 l 194 344 l 42 344 l 88 465 l 240 465 l 292 599 l 139 599 l 185 719 l 338 719 l 396 872 l 531 872 l 472 719 l 590 719 l 649 872 l 783 872 l 725 719 l 878 719 l 832 599 l 679 599 l 628 465 l 781 465 l 735 344 l 582 344 l 524 192 m 493 465 l 544 599 l 426 599 l 375 465 l 493 465 z "},"$":{"ha":772,"x_min":57,"x_max":699,"o":"m 306 929 l 306 1089 l 471 1107 l 471 933 q 558 911 513 929 q 692 808 633 878 l 542 675 q 410 744 488 744 q 347 726 365 744 q 328 685 328 708 q 366 640 328 658 q 459 605 404 622 q 568 562 514 588 q 660 481 622 536 q 699 344 699 425 q 575 115 699 199 q 471 71 528 83 l 471 -97 l 306 -124 l 306 64 q 211 85 257 71 q 57 178 125 114 l 190 342 q 351 272 267 272 q 424 290 399 272 q 449 331 449 307 q 447 345 449 339 q 442 357 446 351 q 433 367 438 363 q 421 376 429 372 q 407 383 413 381 q 390 390 401 386 q 373 397 379 394 q 353 403 367 399 q 333 410 340 407 q 238 447 276 429 q 164 496 200 465 q 110 572 128 526 q 92 678 92 617 q 192 881 92 806 q 306 929 239 917 z "},"%":{"ha":1106,"x_min":36,"x_max":967,"o":"m 639 228 q 670 155 639 182 q 739 128 701 128 q 808 155 776 128 q 839 228 839 182 q 808 302 839 275 q 739 329 776 329 q 670 302 701 329 q 639 228 639 275 m 511 228 q 578 389 511 322 q 739 456 644 456 q 900 389 833 456 q 967 228 967 322 q 899 67 967 135 q 739 0 832 0 q 578 67 646 0 q 511 228 511 135 m 167 21 l 586 731 q 546 721 567 721 q 490 743 519 721 q 492 725 492 738 q 424 564 492 631 q 264 497 356 497 q 103 564 169 497 q 36 725 36 631 q 103 886 36 819 q 264 953 169 953 q 428 889 339 953 l 465 861 q 476 853 468 860 q 489 843 485 846 q 502 835 493 840 q 517 827 511 829 q 534 823 524 825 q 554 821 544 821 q 627 842 590 821 q 689 907 664 864 l 715 953 l 828 921 l 275 -17 l 167 21 m 164 725 q 192 653 164 682 q 264 625 221 625 q 335 653 307 625 q 364 725 364 682 q 333 798 364 771 q 264 825 301 825 q 195 798 226 825 q 164 725 164 771 z "},"&":{"ha":1003,"x_min":79,"x_max":946,"o":"m 446 656 l 457 661 q 495 682 481 672 q 524 710 510 692 q 538 753 538 729 q 517 798 538 781 q 467 815 496 815 q 420 797 443 815 q 397 744 397 779 q 426 676 397 708 l 446 656 m 572 513 l 681 390 l 815 507 l 942 365 l 811 244 l 946 94 l 789 -32 l 664 115 q 371 -22 524 -22 q 160 63 242 -22 q 79 281 79 147 q 135 451 79 381 q 281 556 192 522 q 200 725 200 624 q 270 903 200 832 q 464 975 340 975 q 668 903 597 975 q 739 735 739 832 q 572 513 739 604 m 547 257 l 408 407 q 315 275 315 354 q 341 208 315 238 q 406 179 367 179 q 435 183 421 179 q 460 192 450 188 q 484 206 469 196 q 503 219 499 215 q 522 235 508 224 q 538 249 536 247 l 547 257 z "},"'":{"ha":308,"x_min":71,"x_max":238,"o":"m 71 576 l 71 953 l 238 953 l 238 576 l 71 576 z "},"(":{"ha":489,"x_min":35,"x_max":444,"o":"m 328 1114 l 444 999 q 201 392 201 754 q 444 -215 201 29 l 328 -331 q 101 26 167 -139 q 35 392 35 190 q 101 758 35 593 q 328 1114 167 922 z "},")":{"ha":489,"x_min":44,"x_max":454,"o":"m 161 -331 l 44 -215 q 288 392 288 29 q 44 999 288 754 l 161 1114 q 388 758 322 922 q 454 392 454 593 q 388 26 454 190 q 161 -331 322 -139 z "},"*":{"ha":617,"x_min":60,"x_max":557,"o":"m 222 708 l 68 781 l 111 888 l 264 782 l 246 947 l 363 975 l 353 776 l 490 883 l 557 790 l 390 706 l 553 632 l 507 525 l 350 631 l 364 467 l 246 440 l 264 631 l 128 525 l 60 614 l 222 708 z "},"+":{"ha":833,"x_min":58,"x_max":775,"o":"m 332 443 l 332 717 l 501 717 l 501 443 l 775 443 l 775 274 l 501 274 l 501 0 l 332 0 l 332 274 l 58 274 l 58 443 l 332 443 z "},",":{"ha":322,"x_min":38,"x_max":285,"o":"m 38 163 l 193 263 q 285 106 285 203 q 267 19 285 61 q 201 -101 249 -22 l 153 -183 l 38 -124 l 61 -82 q 115 65 115 14 q 38 163 115 118 z "},"-":{"ha":506,"x_min":51,"x_max":454,"o":"m 51 497 l 454 497 l 454 300 l 51 300 l 51 497 z "},".":{"ha":386,"x_min":31,"x_max":356,"o":"m 31 117 l 188 278 l 356 122 l 193 -42 l 31 117 z "},"/":{"ha":668,"x_min":-14,"x_max":682,"o":"m 538 1044 l 682 1024 l 129 -268 l -14 -244 l 538 1044 z "},":":{"ha":386,"x_min":31,"x_max":356,"o":"m 188 278 l 356 122 l 193 -42 l 31 117 l 188 278 m 188 685 l 356 529 l 193 365 l 31 524 l 188 685 z "},";":{"ha":386,"x_min":-26,"x_max":386,"o":"m 114 251 l 372 289 l 147 -236 l -26 -236 l 114 251 m 218 685 l 386 529 l 224 365 l 61 524 l 218 685 z "},"<":{"ha":831,"x_min":58,"x_max":772,"o":"m 360 358 l 772 136 l 713 -10 l 58 358 l 713 726 l 772 581 l 360 358 z "},"=":{"ha":833,"x_min":58,"x_max":775,"o":"m 775 601 l 775 432 l 58 432 l 58 601 l 775 601 m 775 285 l 775 115 l 58 115 l 58 285 l 775 285 z "},">":{"ha":831,"x_min":58,"x_max":772,"o":"m 471 358 l 58 581 l 118 726 l 772 358 l 118 -10 l 58 136 l 471 358 z "},"?":{"ha":694,"x_min":38,"x_max":656,"o":"m 204 717 l 38 829 q 347 990 146 990 q 565 915 475 990 q 656 718 656 839 q 553 510 656 588 q 517 485 544 504 q 480 458 489 467 q 460 429 471 449 q 449 388 449 410 l 449 333 l 238 311 l 238 411 q 260 530 238 488 q 328 603 282 572 q 350 617 333 607 q 373 632 367 628 q 390 646 379 636 q 406 664 401 656 q 415 684 411 672 q 419 710 419 696 q 392 766 419 743 q 322 789 365 789 q 204 717 254 789 m 356 -42 l 207 104 l 356 250 l 504 104 l 356 -42 z "},"@":{"ha":1111,"x_min":61,"x_max":1049,"o":"m 536 336 q 631 375 589 336 q 674 476 674 414 q 645 553 674 524 q 567 583 617 583 q 473 544 511 583 q 435 446 435 504 q 463 367 435 397 q 536 336 490 336 m 821 160 l 875 56 q 586 -22 749 -22 q 212 120 363 -22 q 61 475 61 263 q 211 832 61 689 q 578 975 361 975 q 910 862 772 975 q 1049 569 1049 749 q 949 292 1049 400 q 735 185 849 185 q 678 207 700 185 q 656 265 657 229 q 499 185 592 185 q 346 249 417 185 q 275 424 275 314 q 352 638 275 544 q 547 731 429 731 q 713 651 651 731 l 722 703 l 850 703 l 790 413 q 786 378 786 392 q 811 350 786 350 q 891 408 854 350 q 928 546 928 467 q 835 758 928 664 q 574 851 742 851 q 308 746 408 851 q 208 475 208 640 q 312 206 208 311 q 597 101 415 101 q 821 160 718 101 z "},"A":{"ha":968,"x_min":-35,"x_max":1003,"o":"m 301 168 l 208 -36 l -35 22 l 489 1019 l 1003 22 l 757 -36 l 664 168 l 301 168 m 483 585 l 382 363 l 583 363 l 483 585 z "},"B":{"ha":825,"x_min":74,"x_max":769,"o":"m 74 0 l 74 951 q 346 961 293 961 q 514 949 451 961 q 686 856 629 924 q 743 701 743 788 q 710 578 743 631 q 618 501 676 526 l 618 496 q 731 410 692 469 q 769 272 769 351 q 683 74 769 149 q 460 0 597 0 l 74 0 m 318 576 l 386 576 q 471 607 443 576 q 499 678 499 638 q 467 741 499 715 q 388 767 436 767 l 318 767 l 318 576 m 318 194 l 399 194 q 497 225 468 194 q 526 294 526 256 q 496 364 526 333 q 397 394 465 394 l 318 394 l 318 194 z "},"C":{"ha":785,"x_min":32,"x_max":750,"o":"m 710 950 l 750 683 q 550 758 658 758 q 355 676 433 758 q 276 474 276 593 q 356 275 276 356 q 549 194 435 194 q 747 263 660 194 l 708 8 q 517 -22 610 -22 q 174 124 317 -22 q 32 469 32 269 q 63 642 32 556 q 152 805 93 729 q 310 928 211 881 q 531 975 408 975 q 710 950 626 975 z "},"D":{"ha":915,"x_min":74,"x_max":883,"o":"m 74 953 l 360 953 q 592 911 489 953 q 756 799 694 869 q 851 644 818 729 q 883 464 883 558 q 852 290 883 371 q 759 142 821 208 q 594 38 697 76 q 358 0 490 0 l 74 0 l 74 953 m 318 736 l 318 217 l 363 217 q 566 292 493 217 q 639 469 639 368 q 566 658 639 579 q 357 736 493 736 l 318 736 z "},"E":{"ha":724,"x_min":74,"x_max":692,"o":"m 74 953 l 611 953 l 663 751 l 318 751 l 318 586 l 564 586 l 564 385 l 318 385 l 318 201 l 692 201 l 633 0 l 74 0 l 74 953 z "},"F":{"ha":647,"x_min":74,"x_max":664,"o":"m 74 953 l 603 953 l 664 736 l 318 736 l 318 535 l 568 535 l 568 332 l 318 332 l 318 10 l 74 -11 l 74 953 z "},"G":{"ha":1004,"x_min":32,"x_max":944,"o":"m 917 835 l 774 656 q 554 750 682 750 q 353 665 426 750 q 279 469 279 579 q 295 380 279 425 q 342 293 311 335 q 431 225 374 251 q 563 199 489 199 q 708 226 636 199 l 708 364 l 456 364 l 526 558 l 944 558 l 944 76 q 558 -22 750 -22 q 272 51 394 -22 q 90 234 149 124 q 32 471 32 344 q 91 711 32 597 q 267 900 150 825 q 535 975 385 975 q 917 835 760 975 z "},"H":{"ha":951,"x_min":74,"x_max":878,"o":"m 74 953 l 318 975 l 318 601 l 633 601 l 633 953 l 878 975 l 878 11 l 633 -11 l 633 385 l 318 385 l 318 11 l 74 -11 l 74 953 z "},"I":{"ha":392,"x_min":74,"x_max":318,"o":"m 74 953 l 318 975 l 318 11 l 74 -11 l 74 953 z "},"J":{"ha":549,"x_min":-15,"x_max":475,"o":"m 231 953 l 475 975 l 475 335 q 385 75 475 172 q 129 -22 294 -22 q 42 -12 101 -22 l -15 224 q 97 207 42 207 q 162 220 135 207 q 202 250 189 233 q 222 295 215 267 q 230 340 229 324 q 231 382 231 356 l 231 953 z "},"K":{"ha":864,"x_min":74,"x_max":893,"o":"m 318 975 l 318 544 l 325 544 l 643 975 l 882 911 l 569 499 l 893 42 l 638 -22 l 325 451 l 318 451 l 318 11 l 74 -11 l 74 953 l 318 975 z "},"L":{"ha":674,"x_min":74,"x_max":674,"o":"m 611 0 l 74 0 l 74 951 l 318 975 l 318 217 l 674 217 l 611 0 z "},"M":{"ha":1108,"x_min":-14,"x_max":1122,"o":"m 554 -51 l 311 431 l 232 -15 l -14 14 l 254 1019 l 554 389 l 876 1019 l 1122 14 l 886 -17 l 799 440 l 554 -51 z "},"N":{"ha":993,"x_min":74,"x_max":919,"o":"m 318 497 l 318 11 l 74 -11 l 74 1019 l 675 471 l 675 953 l 919 975 l 919 -56 l 318 497 z "},"O":{"ha":1108,"x_min":32,"x_max":1076,"o":"m 185 123 q 108 195 185 123 q 32 476 32 268 q 185 830 32 685 q 554 975 338 975 q 924 830 771 975 q 1076 476 1076 685 q 924 123 1076 268 q 554 -22 771 -22 q 185 123 338 -22 m 358 676 q 317 635 358 676 q 276 476 276 594 q 358 276 276 358 q 554 194 439 194 q 751 276 669 194 q 832 476 832 358 q 751 676 832 594 q 554 758 669 758 q 358 676 439 758 z "},"P":{"ha":790,"x_min":74,"x_max":758,"o":"m 74 -11 l 74 951 q 376 961 217 961 q 553 935 478 961 q 667 876 629 910 q 726 794 704 842 q 753 715 749 746 q 758 654 758 685 q 670 444 758 533 q 421 356 582 356 l 318 356 l 318 11 l 74 -11 m 318 760 l 318 550 l 396 550 q 485 583 457 550 q 514 658 514 617 q 480 731 514 701 q 392 760 446 760 l 318 760 z "},"Q":{"ha":1122,"x_min":32,"x_max":1150,"o":"m 938 -62 l 821 47 q 554 -22 718 -22 q 184 122 336 -22 q 32 476 32 265 q 185 830 32 685 q 554 975 338 975 q 924 830 771 975 q 1076 476 1076 685 q 978 183 1076 314 l 1150 29 l 938 -62 m 707 425 l 796 335 q 832 476 832 407 q 794 618 832 554 q 694 721 758 683 q 554 758 629 758 q 358 676 439 758 q 276 476 276 594 q 358 276 276 358 q 554 194 439 194 q 653 211 603 194 l 515 335 l 707 425 z "},"R":{"ha":822,"x_min":74,"x_max":857,"o":"m 74 -11 l 74 953 q 349 961 226 961 q 531 938 453 961 q 650 883 610 915 q 715 806 690 851 q 745 727 739 761 q 751 656 751 693 q 708 516 751 578 q 593 424 664 454 l 857 64 l 614 -22 l 318 439 l 318 11 l 74 -11 m 318 744 l 318 493 l 358 493 q 468 533 429 493 q 507 628 507 572 q 468 713 507 682 q 364 744 429 744 l 318 744 z "},"S":{"ha":761,"x_min":32,"x_max":722,"o":"m 713 861 l 576 697 q 407 774 500 774 q 331 749 356 774 q 307 694 307 724 q 326 648 307 665 q 378 617 344 631 q 465 585 410 603 q 557 551 521 568 q 626 507 593 535 q 722 296 722 425 q 628 69 722 160 q 372 -22 535 -22 q 32 108 163 -22 l 174 276 q 363 186 258 186 q 448 213 418 186 q 478 274 478 239 q 419 350 478 324 q 309 389 403 358 q 169 456 215 419 q 63 671 63 538 q 151 882 63 789 q 404 975 239 975 q 713 861 586 975 z "},"T":{"ha":738,"x_min":-7,"x_max":726,"o":"m 56 953 l 726 953 l 726 736 l 492 736 l 492 11 l 247 -11 l 247 736 l -7 736 l 56 953 z "},"U":{"ha":919,"x_min":74,"x_max":846,"o":"m 318 975 l 318 356 q 359 231 318 268 q 460 194 400 194 q 560 231 519 194 q 601 356 601 268 l 601 953 l 846 975 l 846 293 q 748 69 846 160 q 460 -22 650 -22 q 172 69 269 -22 q 74 293 74 160 l 74 953 l 318 975 z "},"V":{"ha":778,"x_min":-39,"x_max":817,"o":"m -39 929 l 208 975 l 379 483 l 576 975 l 817 929 l 374 -67 l -39 929 z "},"W":{"ha":1213,"x_min":-25,"x_max":1238,"o":"m -25 944 l 218 975 l 357 486 l 603 1004 l 851 486 l 1000 975 l 1238 944 l 885 -67 l 604 503 l 324 -67 l -25 944 z "},"X":{"ha":849,"x_min":-18,"x_max":867,"o":"m 1 897 l 239 975 l 429 672 l 624 975 l 850 897 l 561 490 l 867 64 l 631 -22 l 424 294 l 213 -22 l -18 64 l 288 488 l 1 897 z "},"Y":{"ha":850,"x_min":-21,"x_max":874,"o":"m -21 906 l 224 983 l 472 576 l 643 983 l 874 906 l 450 -22 l 186 11 l 351 332 l -21 906 z "},"Z":{"ha":849,"x_min":-18,"x_max":842,"o":"m 97 953 l 840 953 l 394 217 l 842 217 l 788 0 l -18 0 l 428 736 l 49 736 l 97 953 z "},"[":{"ha":463,"x_min":83,"x_max":354,"o":"m 354 -265 l 83 -265 l 83 1038 l 350 1038 l 350 925 l 238 925 l 238 -153 l 354 -153 l 354 -265 z "},"\\":{"ha":668,"x_min":-14,"x_max":682,"o":"m 131 1044 l 682 -244 l 539 -268 l -14 1024 l 131 1044 z "},"]":{"ha":463,"x_min":108,"x_max":379,"o":"m 113 -265 l 113 -153 l 225 -153 l 225 925 l 108 925 l 108 1038 l 379 1038 l 379 -265 l 113 -265 z "},"^":{"ha":803,"x_min":101,"x_max":701,"o":"m 401 754 l 254 510 l 101 578 l 401 1019 l 701 578 l 549 510 l 401 754 z "},"_":{"ha":694,"x_min":0,"x_max":694,"o":"m 694 -174 l 0 -174 l 0 -71 l 694 -71 l 694 -174 z "},"`":{"ha":450,"x_min":0,"x_max":388,"o":"m 60 1068 l 388 883 l 347 793 l 0 950 l 60 1068 z "},"a":{"ha":740,"x_min":31,"x_max":679,"o":"m 119 507 l 156 701 q 376 739 275 739 q 519 718 460 739 q 609 669 579 697 q 656 601 639 642 q 676 537 674 561 q 679 485 679 513 l 679 7 l 475 -15 l 475 58 q 296 -22 421 -22 q 105 47 179 -22 q 31 224 31 117 q 103 401 31 332 q 296 471 176 471 q 463 415 389 471 l 463 454 q 335 553 463 553 q 119 507 226 553 m 275 165 q 290 153 275 165 q 354 140 304 140 q 433 165 404 140 q 463 231 463 190 q 433 296 463 271 q 354 321 404 321 q 276 297 306 321 q 246 231 246 272 q 275 165 246 190 z "},"b":{"ha":871,"x_min":61,"x_max":842,"o":"m 61 968 l 278 992 l 278 665 q 475 739 354 739 q 731 631 621 739 q 842 363 842 522 q 737 92 842 206 q 453 -22 632 -22 q 347 -11 399 -22 q 243 30 296 0 q 151 106 190 60 q 86 226 111 151 q 61 396 61 301 l 61 968 m 316 487 q 290 461 316 487 q 264 358 264 435 q 316 230 264 282 q 444 178 368 178 q 573 230 521 178 q 625 358 625 282 q 573 487 625 435 q 444 539 521 539 q 316 487 368 539 z "},"c":{"ha":697,"x_min":29,"x_max":669,"o":"m 660 650 l 549 494 q 422 539 492 539 q 296 488 346 539 q 246 361 246 438 q 296 230 246 282 q 424 178 346 178 q 553 229 500 178 l 669 71 q 406 -22 546 -22 q 140 85 250 -22 q 29 365 29 192 q 139 633 29 528 q 408 739 249 739 q 660 650 556 739 z "},"d":{"ha":871,"x_min":29,"x_max":810,"o":"m 810 11 l 607 -11 l 607 88 l 604 88 q 513 13 569 40 q 427 -19 456 -15 q 376 -22 399 -22 q 259 1 318 -22 q 148 69 200 25 q 63 190 96 114 q 29 361 29 267 q 135 635 29 532 q 386 739 240 739 q 593 653 513 739 l 593 972 l 810 994 l 810 11 m 555 230 q 581 256 555 230 q 607 358 607 282 q 555 487 607 435 q 426 539 503 539 q 298 487 350 539 q 246 358 246 435 q 298 230 246 282 q 426 178 350 178 q 555 230 503 178 z "},"e":{"ha":779,"x_min":29,"x_max":758,"o":"m 617 258 l 732 90 q 417 -22 590 -22 q 136 92 243 -22 q 29 374 29 207 q 142 636 29 533 q 411 739 256 739 q 615 680 522 739 q 758 514 707 621 l 301 225 q 428 178 349 178 q 617 258 511 178 m 247 364 l 499 524 q 417 556 464 556 q 297 509 349 556 q 246 382 246 463 q 247 364 246 369 z "},"f":{"ha":506,"x_min":-1,"x_max":526,"o":"m 474 503 l 329 503 l 329 11 l 113 -11 l 113 503 l -1 503 l 47 704 l 113 704 q 203 934 114 863 q 469 1006 292 1006 l 526 803 q 471 806 508 806 q 439 803 456 806 q 394 794 422 801 q 347 767 365 788 q 329 717 329 747 l 329 704 l 474 704 l 474 503 z "},"g":{"ha":769,"x_min":28,"x_max":763,"o":"m 763 774 l 718 596 q 669 590 696 590 q 640 592 650 590 q 700 426 700 535 q 672 320 700 374 q 585 235 643 267 q 681 148 646 204 q 715 25 715 92 q 624 -171 715 -86 q 349 -256 533 -256 q 28 -124 157 -256 l 157 10 q 342 -75 233 -75 q 459 -41 419 -75 q 499 36 499 -7 q 456 126 499 89 q 338 163 414 163 q 168 128 263 163 l 189 197 q 77 297 119 233 q 35 449 35 361 q 120 653 35 567 q 367 739 206 739 q 463 732 383 739 q 526 728 493 728 q 763 774 642 728 m 368 558 q 278 525 318 558 q 239 432 239 492 q 276 337 239 372 q 367 301 313 301 q 459 340 422 301 q 496 429 496 379 q 458 521 496 483 q 368 558 419 558 z "},"h":{"ha":725,"x_min":61,"x_max":664,"o":"m 61 968 l 278 992 l 278 665 q 442 739 340 739 q 601 678 538 739 q 664 467 664 617 l 664 8 l 447 -15 l 447 458 q 423 519 447 500 q 369 538 399 538 q 307 510 336 538 q 278 426 278 483 l 278 10 l 61 -11 l 61 968 z "},"i":{"ha":358,"x_min":28,"x_max":331,"o":"m 288 728 l 288 11 l 71 -11 l 71 706 l 288 728 m 169 1011 l 331 894 l 188 754 l 28 868 l 169 1011 z "},"j":{"ha":374,"x_min":-72,"x_max":346,"o":"m -72 -62 l -36 -62 q 34 -51 7 -62 q 72 -19 61 -40 q 84 17 82 3 q 86 57 86 32 l 86 706 l 303 728 l 303 47 q 302 -1 303 17 q 297 -56 301 -19 q 283 -115 292 -92 q 254 -167 274 -137 q 208 -215 235 -197 q 140 -246 182 -233 q 43 -258 97 -258 q -4 -256 26 -258 l -72 -62 m 185 1011 l 346 894 l 203 754 l 43 868 l 185 1011 z "},"k":{"ha":746,"x_min":61,"x_max":774,"o":"m 61 -11 l 61 972 l 278 994 l 278 417 l 518 749 l 738 683 l 500 383 l 774 42 l 540 -18 l 278 338 l 278 11 l 61 -11 z "},"l":{"ha":356,"x_min":69,"x_max":286,"o":"m 286 11 l 69 -11 l 69 972 l 286 994 l 286 11 z "},"m":{"ha":1092,"x_min":61,"x_max":1031,"o":"m 61 -11 l 61 706 l 258 726 l 258 625 q 328 708 282 678 q 433 739 374 739 q 589 653 538 739 q 785 739 660 739 q 961 667 892 739 q 1031 475 1031 594 l 1031 11 l 814 -11 l 814 450 q 742 544 814 544 q 679 515 704 544 q 654 431 654 486 l 654 11 l 438 -11 l 438 450 q 365 544 438 544 q 303 515 328 544 q 278 431 278 486 l 278 11 l 61 -11 z "},"n":{"ha":725,"x_min":61,"x_max":664,"o":"m 61 -11 l 61 706 l 263 726 l 263 625 q 313 688 283 663 q 372 724 342 714 q 418 736 401 733 q 447 739 435 739 q 601 676 538 739 q 664 497 664 614 l 664 11 l 447 -11 l 447 458 q 426 516 447 494 q 372 538 404 538 q 306 509 335 538 q 278 426 278 481 l 278 11 l 61 -11 z "},"o":{"ha":838,"x_min":29,"x_max":808,"o":"m 418 -22 q 145 88 261 -22 q 29 358 29 197 q 145 629 29 519 q 418 739 261 739 q 693 629 578 739 q 808 358 808 519 q 693 88 808 197 q 418 -22 578 -22 m 297 486 q 271 460 297 486 q 246 358 246 433 q 297 231 246 283 q 418 178 347 178 q 540 231 489 178 q 592 358 592 283 q 540 486 592 433 q 418 539 489 539 q 297 486 347 539 z "},"p":{"ha":871,"x_min":61,"x_max":842,"o":"m 61 -250 l 61 706 l 264 726 l 264 624 l 267 624 q 494 739 346 739 q 612 715 553 739 q 723 647 671 692 q 808 526 775 603 q 842 356 842 450 q 736 81 842 185 q 485 -22 631 -22 q 278 64 358 -22 l 278 -228 l 61 -250 m 316 487 q 290 461 316 487 q 264 358 264 435 q 316 230 264 282 q 444 178 368 178 q 573 230 521 178 q 625 358 625 282 q 573 487 625 435 q 444 539 521 539 q 316 487 368 539 z "},"q":{"ha":871,"x_min":29,"x_max":810,"o":"m 810 726 l 810 -228 l 593 -250 l 593 64 q 386 -22 513 -22 q 135 81 240 -22 q 29 356 29 185 q 63 526 29 450 q 148 647 96 603 q 259 715 200 692 q 376 739 318 739 q 604 624 525 739 l 607 624 l 607 706 l 810 726 m 555 230 q 581 256 555 230 q 607 358 607 282 q 555 487 607 435 q 426 539 503 539 q 298 487 350 539 q 246 358 246 435 q 298 230 246 282 q 426 178 350 178 q 555 230 503 178 z "},"r":{"ha":503,"x_min":61,"x_max":521,"o":"m 61 -10 l 61 706 l 257 726 l 257 592 q 483 739 300 739 q 521 738 508 739 l 453 508 q 410 513 432 513 q 317 474 356 513 q 278 360 278 435 l 278 11 l 61 -10 z "},"s":{"ha":628,"x_min":14,"x_max":600,"o":"m 576 635 l 450 510 q 326 558 394 558 q 273 544 290 558 q 256 513 256 531 q 259 495 256 503 q 271 481 263 488 q 287 471 279 475 q 308 464 294 467 q 330 459 322 461 q 353 455 338 457 q 374 451 369 453 q 517 399 467 435 q 600 226 600 339 q 522 51 600 125 q 296 -22 444 -22 q 14 82 138 -22 l 128 229 q 300 158 203 158 q 366 175 344 158 q 388 213 388 192 q 340 258 388 247 q 300 266 329 261 q 251 275 271 271 q 203 290 232 279 q 151 314 175 300 q 46 501 46 375 q 117 666 46 593 q 319 739 188 739 q 576 635 475 739 z "},"t":{"ha":524,"x_min":-7,"x_max":533,"o":"m -7 503 l 50 704 l 121 704 l 121 843 l 338 932 l 338 704 l 481 704 l 481 503 l 338 503 l 338 290 q 447 189 338 189 q 533 199 482 189 l 469 -19 q 413 -22 450 -22 q 256 10 325 -22 q 149 112 178 46 q 121 274 121 178 l 121 503 l -7 503 z "},"u":{"ha":725,"x_min":61,"x_max":664,"o":"m 664 11 l 463 -11 l 463 79 q 279 -22 397 -22 q 124 40 188 -22 q 61 221 61 101 l 61 706 l 278 728 l 278 257 q 301 196 278 214 q 356 178 325 178 q 418 205 389 178 q 447 289 447 232 l 447 706 l 664 728 l 664 11 z "},"v":{"ha":657,"x_min":-35,"x_max":693,"o":"m -35 694 l 188 736 l 328 385 l 469 736 l 693 694 l 322 -61 l -35 694 z "},"w":{"ha":1004,"x_min":-21,"x_max":1025,"o":"m -21 714 l 206 736 l 324 390 l 508 763 l 678 397 l 803 736 l 1025 714 l 697 -42 l 501 360 l 303 -42 l -21 714 z "},"x":{"ha":693,"x_min":-4,"x_max":697,"o":"m 221 742 l 347 522 l 482 742 l 688 683 l 468 371 l 697 46 l 479 -18 l 343 204 l 208 -18 l -4 46 l 222 369 l 3 683 l 221 742 z "},"y":{"ha":733,"x_min":-24,"x_max":767,"o":"m -24 690 l 199 736 l 369 319 l 551 736 l 767 686 l 324 -254 l 90 -222 l 251 85 l -24 690 z "},"z":{"ha":665,"x_min":7,"x_max":656,"o":"m 7 0 l 292 519 l 57 519 l 104 717 l 639 717 l 358 204 l 656 204 l 604 0 l 7 0 z "},"{":{"ha":531,"x_min":44,"x_max":461,"o":"m 196 394 l 196 390 q 297 356 253 388 q 340 257 340 324 l 340 -37 q 426 -140 340 -140 l 461 -140 l 425 -253 l 364 -253 q 296 -235 335 -253 q 222 -172 257 -218 q 186 -61 186 -125 l 186 251 q 141 317 186 297 q 44 336 96 336 l 44 449 q 141 468 96 449 q 186 533 186 488 l 186 846 q 222 956 186 910 q 296 1020 257 1003 q 364 1038 335 1038 l 425 1038 l 461 925 l 426 925 q 340 822 340 925 l 340 528 q 297 429 340 461 q 196 394 253 397 z "},"|":{"ha":308,"x_min":69,"x_max":239,"o":"m 69 0 l 69 953 l 239 953 l 239 0 l 69 0 z "},"}":{"ha":531,"x_min":69,"x_max":486,"o":"m 335 390 l 335 394 q 234 429 278 397 q 190 528 190 461 l 190 822 q 104 925 190 925 l 69 925 l 106 1038 l 167 1038 q 235 1020 196 1038 q 309 956 274 1003 q 344 846 344 910 l 344 533 q 390 468 344 488 q 486 449 435 449 l 486 336 q 390 317 435 336 q 344 251 344 297 l 344 -61 q 309 -172 344 -125 q 235 -235 274 -218 q 167 -253 196 -253 l 106 -253 l 69 -140 l 104 -140 q 190 -37 190 -140 l 190 257 q 234 356 190 324 q 335 390 278 388 z "},"~":{"ha":758,"x_min":42,"x_max":717,"o":"m 146 267 l 42 372 q 251 478 132 478 q 335 465 294 478 q 427 431 375 454 q 506 408 479 408 q 613 467 564 408 l 717 360 q 506 256 625 256 q 421 268 463 256 q 342 299 406 272 q 251 325 279 325 q 146 267 189 325 z "},"¡":{"ha":464,"x_min":83,"x_max":381,"o":"m 129 388 l 331 410 l 353 -243 l 107 -276 l 129 388 m 381 607 l 232 461 l 83 607 l 232 753 l 381 607 z "},"¢":{"ha":719,"x_min":110,"x_max":593,"o":"m 324 993 l 444 1006 l 444 804 q 589 746 526 803 l 493 608 q 408 638 454 638 q 328 607 360 638 q 296 529 296 576 q 328 446 296 479 q 410 413 361 413 q 493 444 457 413 l 593 313 q 444 243 529 254 l 444 47 l 324 33 l 324 251 q 166 350 222 275 q 110 529 110 425 q 169 708 110 636 q 324 800 228 781 l 324 993 z "},"£":{"ha":847,"x_min":8,"x_max":839,"o":"m 14 413 l 54 603 l 132 603 l 132 656 q 214 890 132 804 q 440 975 296 975 q 646 905 575 975 q 743 736 717 835 l 539 678 q 508 747 533 718 q 438 775 482 775 q 376 751 400 775 q 353 685 353 726 l 353 603 l 486 603 l 486 413 l 353 413 l 353 206 l 451 206 q 614 383 614 206 l 614 396 l 839 357 l 839 343 q 819 223 839 281 q 760 114 800 165 q 649 31 721 63 q 483 0 578 0 l 8 0 l 8 206 l 132 206 l 132 413 l 14 413 z "},"¤":{"ha":778,"x_min":24,"x_max":754,"o":"m 24 214 l 100 290 q 39 488 39 381 q 100 685 39 594 l 24 761 l 111 849 l 188 772 q 389 838 274 838 q 590 772 504 838 l 667 849 l 754 761 l 678 685 q 739 488 739 594 q 678 290 739 381 l 754 214 l 667 126 l 590 203 q 389 138 504 138 q 188 203 274 138 l 111 126 l 24 214 m 260 616 q 234 590 260 616 q 208 488 208 564 q 260 359 208 411 q 389 307 313 307 q 517 359 465 307 q 569 488 569 411 q 517 616 569 564 q 389 668 465 668 q 260 616 313 668 z "},"¥":{"ha":842,"x_min":28,"x_max":814,"o":"m 618 975 l 814 906 l 693 657 l 790 657 l 790 518 l 629 518 l 596 450 l 763 450 l 763 311 l 558 311 l 558 0 l 335 -22 l 335 311 l 106 311 l 106 450 l 288 450 l 247 518 l 78 518 l 78 657 l 164 657 l 28 885 l 221 975 l 450 590 l 618 975 z "},"¦":{"ha":308,"x_min":69,"x_max":239,"o":"m 69 0 l 69 363 l 239 363 l 239 0 l 69 0 m 69 590 l 69 953 l 239 953 l 239 590 l 69 590 z "},"§":{"ha":731,"x_min":42,"x_max":689,"o":"m 640 868 l 531 739 q 376 817 458 817 q 325 801 343 817 q 307 761 307 785 q 309 745 307 753 q 318 729 311 738 q 331 715 325 721 q 349 701 336 710 q 369 688 363 692 q 395 672 376 683 q 422 656 414 661 q 477 622 436 647 q 531 590 518 597 q 574 561 543 582 q 615 529 606 540 q 644 498 625 518 q 670 461 664 478 q 683 422 676 444 q 689 374 689 399 q 652 256 689 310 q 556 171 615 203 q 644 -4 644 103 q 560 -171 644 -103 q 351 -239 475 -239 q 64 -122 190 -239 l 182 7 q 349 -69 258 -69 q 409 -52 389 -69 q 429 -7 429 -35 q 374 71 429 36 q 283 125 340 93 q 190 179 225 157 q 117 233 156 201 q 60 304 79 265 q 42 390 42 343 q 81 509 42 454 q 183 593 119 564 q 126 665 147 622 q 104 750 104 708 q 176 905 104 835 q 375 975 247 975 q 640 868 533 975 m 318 510 q 239 418 239 481 q 269 356 239 382 q 417 267 282 344 q 469 304 446 279 q 492 360 492 329 q 440 443 492 408 q 318 510 392 478 z "},"¨":{"ha":581,"x_min":42,"x_max":539,"o":"m 42 906 l 154 1007 l 260 894 l 147 793 l 42 906 m 321 906 l 433 1007 l 539 894 l 426 793 l 321 906 z "},"©":{"ha":1111,"x_min":42,"x_max":1069,"o":"m 922 116 q 848 47 922 116 q 556 -22 774 -22 q 190 116 338 -22 q 42 476 42 254 q 190 837 42 699 q 556 975 338 975 q 922 837 774 975 q 1069 476 1069 699 q 922 116 1069 254 m 822 210 q 876 264 822 210 q 931 476 931 318 q 822 743 931 635 q 556 851 714 851 q 288 743 394 851 q 181 476 181 635 q 288 210 181 318 q 556 101 394 101 q 822 210 714 101 m 765 699 l 682 582 q 588 615 640 615 q 496 581 536 615 q 456 482 456 546 q 492 383 456 422 q 589 344 529 344 q 688 383 642 344 l 772 264 q 575 194 675 194 q 375 275 457 194 q 293 485 293 356 q 374 686 293 607 q 576 765 454 765 q 765 699 683 765 z "},"ª":{"ha":417,"x_min":6,"x_max":407,"o":"m 154 713 q 145 705 154 713 q 136 675 136 696 q 153 636 136 654 q 207 618 171 618 q 259 635 242 618 q 276 675 276 653 q 258 714 276 697 q 207 731 240 731 q 154 713 172 731 m 65 842 l 85 956 q 213 975 144 975 q 265 971 239 975 q 326 953 290 967 q 385 908 363 940 q 407 825 407 875 l 407 539 l 285 525 l 285 568 l 282 568 q 167 518 250 518 q 45 564 85 518 q 6 674 6 610 q 55 776 6 739 q 171 814 104 814 q 276 782 225 814 l 276 796 q 260 849 276 831 q 192 867 243 867 q 65 842 128 867 z "},"«":{"ha":747,"x_min":61,"x_max":686,"o":"m 343 393 l 564 660 l 686 558 l 546 393 l 686 228 l 564 126 l 343 393 m 61 393 l 282 660 l 404 558 l 264 393 l 404 228 l 282 126 l 61 393 z "},"¬":{"ha":833,"x_min":58,"x_max":775,"o":"m 606 -17 l 606 300 l 58 300 l 58 469 l 775 469 l 775 -17 l 606 -17 z "},"®":{"ha":1111,"x_min":42,"x_max":1069,"o":"m 922 116 q 848 47 922 116 q 556 -22 774 -22 q 190 116 338 -22 q 42 476 42 254 q 190 837 42 699 q 556 975 338 975 q 922 837 774 975 q 1069 476 1069 699 q 922 116 1069 254 m 822 210 q 876 264 822 210 q 931 476 931 318 q 822 743 931 635 q 556 851 714 851 q 288 743 394 851 q 181 476 181 635 q 288 210 181 318 q 556 101 394 101 q 822 210 714 101 m 356 750 l 557 750 q 736 699 683 750 q 789 578 789 649 q 758 489 789 522 q 686 442 728 456 l 824 257 l 658 203 l 515 429 l 515 228 l 356 211 l 356 750 m 515 514 l 557 514 q 613 531 596 514 q 629 568 629 549 q 612 606 629 589 q 561 622 594 622 l 515 622 l 515 514 z "},"¯":{"ha":589,"x_min":42,"x_max":547,"o":"m 547 793 l 42 793 l 42 911 l 547 911 l 547 793 z "},"°":{"ha":556,"x_min":79,"x_max":476,"o":"m 209 709 q 223 695 209 709 q 278 681 238 681 q 347 709 318 681 q 375 778 375 738 q 347 847 375 818 q 278 875 318 875 q 209 847 238 875 q 181 778 181 818 q 209 709 181 738 m 418 638 q 389 608 418 638 q 278 579 360 579 q 138 638 196 579 q 79 778 79 696 q 138 918 79 860 q 278 976 196 976 q 418 918 360 976 q 476 778 476 860 q 418 638 476 696 z "},"±":{"ha":833,"x_min":58,"x_max":775,"o":"m 332 549 l 332 717 l 501 717 l 501 549 l 775 549 l 775 379 l 501 379 l 501 211 l 332 211 l 332 379 l 58 379 l 58 549 l 332 549 m 58 0 l 58 169 l 775 169 l 775 0 l 58 0 z "},"²":{"ha":463,"x_min":18,"x_max":492,"o":"m 22 389 l 253 651 q 319 776 319 728 q 297 826 319 804 q 238 847 275 847 q 183 828 203 847 q 164 785 164 808 q 217 714 164 732 l 132 610 q 18 775 18 669 q 77 917 18 860 q 247 975 136 975 q 412 918 358 975 q 465 788 465 861 q 442 695 465 742 q 399 624 419 649 q 335 553 378 599 l 301 517 l 492 517 l 458 389 l 22 389 z "},"³":{"ha":463,"x_min":11,"x_max":468,"o":"m 122 810 l 14 867 q 239 975 93 975 q 385 928 329 975 q 442 808 442 882 q 381 694 442 732 q 468 560 468 651 q 408 436 468 492 q 226 381 349 381 q 11 468 101 381 l 114 564 q 225 510 153 510 q 291 531 271 510 q 311 575 311 551 q 284 623 311 613 q 207 633 257 633 l 161 633 l 161 733 l 207 733 q 274 753 251 733 q 296 797 296 772 q 276 840 296 821 q 218 858 257 858 q 122 810 158 858 z "},"´":{"ha":450,"x_min":63,"x_max":450,"o":"m 390 1068 l 450 950 l 103 793 l 63 883 l 390 1068 z "},"µ":{"ha":772,"x_min":61,"x_max":711,"o":"m 711 11 l 511 -11 l 511 97 l 508 97 q 322 -22 456 -18 l 306 -22 q 278 -18 292 -22 l 278 -233 l 61 -256 l 61 706 l 278 728 l 278 296 q 307 204 278 236 q 386 172 336 172 q 465 206 436 172 q 494 296 494 239 l 494 706 l 711 728 l 711 11 z "},"¶":{"ha":993,"x_min":35,"x_max":972,"o":"m 382 -256 l 382 258 q 127 369 219 264 q 35 606 35 475 q 59 729 35 669 q 130 840 83 789 q 256 922 176 890 q 435 953 335 953 l 908 953 l 972 753 l 850 753 l 850 -256 l 683 -256 l 683 753 l 549 753 l 549 -256 l 382 -256 z "},"·":{"ha":347,"x_min":51,"x_max":296,"o":"m 51 360 q 88 444 51 408 q 174 481 124 481 q 260 444 224 481 q 296 360 296 408 q 260 272 296 308 q 174 236 225 236 q 87 272 122 236 q 51 360 51 308 z "},"¸":{"ha":304,"x_min":18,"x_max":263,"o":"m 64 -101 l 106 0 l 178 0 l 151 -60 l 160 -60 q 234 -90 206 -60 q 263 -165 263 -119 q 229 -244 263 -211 q 135 -276 196 -276 q 18 -242 71 -276 l 50 -172 q 131 -204 85 -204 q 168 -193 153 -204 q 183 -164 183 -182 q 172 -135 183 -146 q 142 -124 160 -124 q 111 -133 128 -124 l 64 -101 z "},"¹":{"ha":463,"x_min":50,"x_max":353,"o":"m 101 721 l 50 803 l 353 975 l 353 389 l 207 381 l 207 767 l 101 721 z "},"º":{"ha":510,"x_min":-3,"x_max":513,"o":"m -3 747 q 74 909 -3 843 q 256 975 151 975 q 436 909 360 975 q 513 747 513 843 q 435 584 513 650 q 256 518 358 518 q 74 584 151 518 q -3 747 -3 650 m 138 747 q 169 674 138 710 q 256 639 200 639 q 341 674 310 639 q 372 747 372 708 q 341 820 372 786 q 256 854 310 854 q 169 820 201 854 q 138 747 138 786 z "},"»":{"ha":747,"x_min":61,"x_max":686,"o":"m 686 393 l 465 126 l 343 228 l 483 393 l 343 558 l 465 660 l 686 393 m 404 393 l 183 126 l 61 228 l 201 393 l 61 558 l 183 660 l 404 393 z "},"¼":{"ha":1158,"x_min":50,"x_max":1125,"o":"m 911 -8 l 911 139 l 642 139 l 839 578 l 1057 578 l 1057 256 l 1125 256 l 1103 139 l 1057 139 l 1057 8 l 911 -8 m 815 256 l 911 256 l 911 451 l 907 451 l 815 256 m 339 -22 l 222 -22 l 810 975 l 926 975 l 339 -22 m 101 721 l 50 803 l 353 975 l 353 390 l 207 374 l 207 767 l 101 721 z "},"½":{"ha":1158,"x_min":50,"x_max":1124,"o":"m 188 -22 l 775 975 l 892 975 l 304 -22 l 188 -22 m 353 975 l 353 390 l 207 374 l 207 767 l 101 721 l 50 803 l 353 975 m 654 0 l 885 261 q 951 390 951 339 q 927 440 951 421 q 869 458 903 458 q 817 440 839 458 q 796 394 796 422 q 849 324 796 343 l 764 219 q 650 385 650 279 q 710 527 650 468 q 879 586 769 586 q 1038 532 978 586 q 1097 397 1097 478 q 1074 307 1097 354 q 1029 235 1050 260 q 964 161 1008 210 l 933 128 l 1124 128 l 1090 0 l 654 0 z "},"¾":{"ha":1158,"x_min":33,"x_max":1142,"o":"m 911 -8 l 911 139 l 642 139 l 839 578 l 1057 578 l 1057 256 l 1142 256 l 1119 139 l 1057 139 l 1057 8 l 911 -8 m 815 256 l 911 256 l 911 451 l 907 451 l 815 256 m 144 810 l 36 867 q 261 975 121 975 q 408 928 353 975 q 464 808 464 882 q 403 694 464 742 q 490 560 490 651 q 427 433 490 485 q 249 382 364 382 q 33 468 121 382 l 136 564 q 247 510 175 510 q 313 531 293 510 q 333 575 333 551 q 324 608 333 596 q 294 626 314 621 q 260 632 274 631 q 221 633 246 633 l 183 633 l 183 733 l 211 733 q 249 735 235 733 q 282 741 264 736 q 309 759 300 746 q 318 793 318 772 q 299 840 318 821 q 240 858 279 858 q 156 819 199 858 l 144 810 m 381 -22 l 264 -22 l 851 976 l 968 976 l 381 -22 z "},"¿":{"ha":696,"x_min":39,"x_max":657,"o":"m 490 -6 l 657 -118 q 347 -279 549 -279 q 129 -203 219 -279 q 39 -7 39 -128 q 142 201 39 124 q 178 226 150 207 q 215 253 206 244 q 235 282 224 263 q 246 324 246 301 l 246 378 l 457 400 l 457 300 q 435 181 457 224 q 367 108 413 139 q 344 94 361 104 q 322 79 328 83 q 304 65 315 75 q 288 47 293 56 q 279 27 283 39 q 275 1 275 15 q 302 -55 275 -32 q 372 -78 329 -78 q 490 -6 440 -78 m 339 753 l 488 607 l 339 461 l 190 607 l 339 753 z "},"À":{"ha":968,"x_min":-35,"x_max":1003,"o":"m 301 168 l 208 -36 l -35 22 l 489 1019 l 1003 22 l 757 -36 l 664 168 l 301 168 m 483 585 l 382 363 l 583 363 l 483 585 m 322 1331 l 650 1146 l 610 1056 l 263 1213 l 322 1331 z "},"Á":{"ha":968,"x_min":-35,"x_max":1003,"o":"m 301 168 l 208 -36 l -35 22 l 489 1019 l 1003 22 l 757 -36 l 664 168 l 301 168 m 483 585 l 382 363 l 583 363 l 483 585 m 646 1331 l 706 1213 l 358 1056 l 318 1146 l 646 1331 z "},"Â":{"ha":968,"x_min":-35,"x_max":1003,"o":"m 301 168 l 208 -36 l -35 22 l 489 1019 l 1003 22 l 757 -36 l 664 168 l 301 168 m 483 585 l 382 363 l 583 363 l 483 585 m 483 1150 l 353 1056 l 222 1071 l 483 1282 l 744 1071 l 614 1056 l 483 1150 z "},"Ã":{"ha":968,"x_min":-35,"x_max":1003,"o":"m 301 168 l 208 -36 l -35 22 l 489 1019 l 1003 22 l 757 -36 l 664 168 l 301 168 m 483 585 l 382 363 l 583 363 l 483 585 m 286 1064 l 203 1149 q 376 1222 282 1222 q 483 1201 426 1222 q 590 1174 567 1174 q 683 1214 638 1174 l 764 1133 q 599 1056 686 1056 q 483 1081 551 1056 q 383 1104 419 1104 q 286 1064 335 1104 z "},"Ä":{"ha":968,"x_min":-35,"x_max":1003,"o":"m 301 168 l 208 -36 l -35 22 l 489 1019 l 1003 22 l 757 -36 l 664 168 l 301 168 m 483 585 l 382 363 l 583 363 l 483 585 m 235 1168 l 347 1269 l 453 1157 l 340 1056 l 235 1168 m 514 1168 l 626 1269 l 732 1157 l 619 1056 l 514 1168 z "},"Å":{"ha":968,"x_min":-35,"x_max":1003,"o":"m 301 168 l 208 -36 l -35 22 l 489 1019 l 1003 22 l 757 -36 l 664 168 l 301 168 m 483 585 l 382 363 l 583 363 l 483 585 m 392 1094 q 372 1114 392 1094 q 353 1186 353 1133 q 392 1278 353 1239 q 483 1317 431 1317 q 575 1278 536 1317 q 614 1186 614 1239 q 575 1094 614 1133 q 483 1056 536 1056 q 392 1094 431 1056 m 456 1213 q 450 1207 456 1213 q 444 1186 444 1201 q 456 1159 444 1171 q 483 1147 468 1147 q 510 1159 499 1147 q 522 1186 522 1171 q 510 1213 522 1201 q 483 1225 499 1225 q 456 1213 468 1225 z "},"Æ":{"ha":1311,"x_min":-68,"x_max":1300,"o":"m 179 -22 l -68 39 l 519 953 l 1225 953 l 1265 751 l 910 751 l 910 586 l 1168 586 l 1168 385 l 910 385 l 910 201 l 1300 201 l 1244 0 l 674 0 l 674 292 l 372 292 l 179 -22 m 490 493 l 674 493 l 674 785 l 671 785 l 490 493 z "},"Ç":{"ha":800,"x_min":32,"x_max":750,"o":"m 710 950 l 750 683 q 550 758 658 758 q 355 676 433 758 q 276 474 276 593 q 356 275 276 356 q 549 194 435 194 q 747 263 660 194 l 708 8 q 524 -21 619 -21 l 508 -60 l 525 -60 q 592 -90 565 -62 q 619 -165 619 -118 q 586 -244 619 -211 q 492 -276 553 -276 q 375 -242 428 -276 l 407 -172 q 488 -204 442 -204 q 525 -193 510 -204 q 540 -164 540 -182 q 528 -135 540 -146 q 499 -124 517 -124 q 468 -133 485 -124 l 421 -101 l 456 -17 q 150 151 268 7 q 32 469 32 294 q 63 642 32 556 q 152 805 93 729 q 310 928 211 881 q 531 975 408 975 q 710 950 626 975 z "},"È":{"ha":724,"x_min":74,"x_max":692,"o":"m 74 953 l 611 953 l 663 751 l 318 751 l 318 586 l 564 586 l 564 385 l 318 385 l 318 201 l 692 201 l 633 0 l 74 0 l 74 953 m 200 1331 l 528 1146 l 488 1056 l 140 1213 l 200 1331 z "},"É":{"ha":724,"x_min":74,"x_max":692,"o":"m 74 953 l 611 953 l 663 751 l 318 751 l 318 586 l 564 586 l 564 385 l 318 385 l 318 201 l 692 201 l 633 0 l 74 0 l 74 953 m 524 1331 l 583 1213 l 236 1056 l 196 1146 l 524 1331 z "},"Ê":{"ha":724,"x_min":74,"x_max":692,"o":"m 74 953 l 611 953 l 663 751 l 318 751 l 318 586 l 564 586 l 564 385 l 318 385 l 318 201 l 692 201 l 633 0 l 74 0 l 74 953 m 361 1150 l 231 1056 l 100 1071 l 361 1282 l 622 1071 l 492 1056 l 361 1150 z "},"Ë":{"ha":724,"x_min":74,"x_max":692,"o":"m 74 953 l 611 953 l 663 751 l 318 751 l 318 586 l 564 586 l 564 385 l 318 385 l 318 201 l 692 201 l 633 0 l 74 0 l 74 953 m 113 1168 l 225 1269 l 331 1157 l 218 1056 l 113 1168 m 392 1168 l 504 1269 l 610 1157 l 497 1056 l 392 1168 z "},"Ì":{"ha":392,"x_min":-25,"x_max":363,"o":"m 74 953 l 318 975 l 318 11 l 74 -11 l 74 953 m 35 1331 l 363 1146 l 322 1056 l -25 1213 l 35 1331 z "},"Í":{"ha":392,"x_min":31,"x_max":418,"o":"m 74 953 l 318 975 l 318 11 l 74 -11 l 74 953 m 358 1331 l 418 1213 l 71 1056 l 31 1146 l 358 1331 z "},"Î":{"ha":392,"x_min":-65,"x_max":457,"o":"m 74 953 l 318 975 l 318 11 l 74 -11 l 74 953 m 196 1150 l 65 1056 l -65 1071 l 196 1282 l 457 1071 l 326 1056 l 196 1150 z "},"Ï":{"ha":392,"x_min":-53,"x_max":444,"o":"m 74 953 l 318 975 l 318 11 l 74 -11 l 74 953 m -53 1168 l 60 1269 l 165 1157 l 53 1056 l -53 1168 m 226 1168 l 339 1269 l 444 1157 l 332 1056 l 226 1168 z "},"Ð":{"ha":926,"x_min":6,"x_max":893,"o":"m 6 389 l 6 606 l 74 606 l 74 953 l 404 953 q 749 815 606 953 q 893 476 893 678 q 749 138 893 275 q 404 0 606 0 l 74 0 l 74 389 l 6 389 m 479 606 l 479 389 l 310 389 l 310 201 l 383 201 q 576 284 494 201 q 657 476 657 367 q 576 669 657 586 q 383 751 494 751 l 310 751 l 310 606 l 479 606 z "},"Ñ":{"ha":993,"x_min":74,"x_max":919,"o":"m 318 497 l 318 11 l 74 -11 l 74 1019 l 675 471 l 675 953 l 919 975 l 919 -56 l 318 497 m 299 1064 l 215 1149 q 389 1222 294 1222 q 496 1201 439 1222 q 603 1174 579 1174 q 696 1214 650 1174 l 776 1133 q 611 1056 699 1056 q 496 1081 564 1056 q 396 1104 432 1104 q 299 1064 347 1104 z "},"Ò":{"ha":1108,"x_min":32,"x_max":1076,"o":"m 185 123 q 108 195 185 123 q 32 476 32 268 q 185 830 32 685 q 554 975 338 975 q 924 830 771 975 q 1076 476 1076 685 q 924 123 1076 268 q 554 -22 771 -22 q 185 123 338 -22 m 358 676 q 317 635 358 676 q 276 476 276 594 q 358 276 276 358 q 554 194 439 194 q 751 276 669 194 q 832 476 832 358 q 751 676 832 594 q 554 758 669 758 q 358 676 439 758 m 394 1331 l 722 1146 l 682 1056 l 335 1213 l 394 1331 z "},"Ó":{"ha":1108,"x_min":32,"x_max":1076,"o":"m 185 123 q 108 195 185 123 q 32 476 32 268 q 185 830 32 685 q 554 975 338 975 q 924 830 771 975 q 1076 476 1076 685 q 924 123 1076 268 q 554 -22 771 -22 q 185 123 338 -22 m 358 676 q 317 635 358 676 q 276 476 276 594 q 358 276 276 358 q 554 194 439 194 q 751 276 669 194 q 832 476 832 358 q 751 676 832 594 q 554 758 669 758 q 358 676 439 758 m 718 1331 l 778 1213 l 431 1056 l 390 1146 l 718 1331 z "},"Ô":{"ha":1108,"x_min":32,"x_max":1076,"o":"m 185 123 q 108 195 185 123 q 32 476 32 268 q 185 830 32 685 q 554 975 338 975 q 924 830 771 975 q 1076 476 1076 685 q 924 123 1076 268 q 554 -22 771 -22 q 185 123 338 -22 m 358 676 q 317 635 358 676 q 276 476 276 594 q 358 276 276 358 q 554 194 439 194 q 751 276 669 194 q 832 476 832 358 q 751 676 832 594 q 554 758 669 758 q 358 676 439 758 m 557 1150 l 426 1056 l 296 1071 l 557 1282 l 818 1071 l 688 1056 l 557 1150 z "},"Õ":{"ha":1108,"x_min":32,"x_max":1076,"o":"m 185 123 q 108 195 185 123 q 32 476 32 268 q 185 830 32 685 q 554 975 338 975 q 924 830 771 975 q 1076 476 1076 685 q 924 123 1076 268 q 554 -22 771 -22 q 185 123 338 -22 m 358 676 q 317 635 358 676 q 276 476 276 594 q 358 276 276 358 q 554 194 439 194 q 751 276 669 194 q 832 476 832 358 q 751 676 832 594 q 554 758 669 758 q 358 676 439 758 m 360 1064 l 276 1149 q 450 1222 356 1222 q 557 1201 500 1222 q 664 1174 640 1174 q 757 1214 711 1174 l 838 1133 q 672 1056 760 1056 q 557 1081 625 1056 q 457 1104 493 1104 q 360 1064 408 1104 z "},"Ö":{"ha":1108,"x_min":32,"x_max":1076,"o":"m 185 123 q 108 195 185 123 q 32 476 32 268 q 185 830 32 685 q 554 975 338 975 q 924 830 771 975 q 1076 476 1076 685 q 924 123 1076 268 q 554 -22 771 -22 q 185 123 338 -22 m 358 676 q 317 635 358 676 q 276 476 276 594 q 358 276 276 358 q 554 194 439 194 q 751 276 669 194 q 832 476 832 358 q 751 676 832 594 q 554 758 669 758 q 358 676 439 758 m 306 1168 l 418 1269 l 524 1157 l 411 1056 l 306 1168 m 585 1168 l 697 1269 l 803 1157 l 690 1056 l 585 1168 z "},"×":{"ha":833,"x_min":58,"x_max":775,"o":"m 303 358 l 58 603 l 172 717 l 417 472 l 661 717 l 775 603 l 531 358 l 775 114 l 661 0 l 417 244 l 172 0 l 58 114 l 303 358 z "},"Ø":{"ha":1081,"x_min":32,"x_max":1049,"o":"m 342 289 l 639 738 q 540 758 601 758 q 353 679 438 758 q 268 476 268 600 q 342 289 268 371 m 763 924 l 864 1076 l 975 1033 l 863 863 q 1049 476 1049 710 q 899 120 1049 263 q 540 -22 750 -22 q 314 33 418 -22 l 207 -128 l 97 -78 l 213 96 q 79 267 126 168 q 32 476 32 365 q 106 740 32 624 q 294 915 179 856 q 540 975 408 975 q 763 924 660 975 m 735 669 l 436 218 q 540 194 486 194 q 735 280 658 194 q 813 476 813 365 q 735 669 813 586 z "},"Ù":{"ha":919,"x_min":74,"x_max":846,"o":"m 318 975 l 318 356 q 359 231 318 268 q 460 194 400 194 q 560 231 519 194 q 601 356 601 268 l 601 953 l 846 975 l 846 293 q 748 69 846 160 q 460 -22 650 -22 q 172 69 269 -22 q 74 293 74 160 l 74 953 l 318 975 m 297 1331 l 625 1146 l 585 1056 l 238 1213 l 297 1331 z "},"Ú":{"ha":919,"x_min":74,"x_max":846,"o":"m 318 975 l 318 356 q 359 231 318 268 q 460 194 400 194 q 560 231 519 194 q 601 356 601 268 l 601 953 l 846 975 l 846 293 q 748 69 846 160 q 460 -22 650 -22 q 172 69 269 -22 q 74 293 74 160 l 74 953 l 318 975 m 621 1331 l 681 1213 l 333 1056 l 293 1146 l 621 1331 z "},"Û":{"ha":919,"x_min":74,"x_max":846,"o":"m 318 975 l 318 356 q 359 231 318 268 q 460 194 400 194 q 560 231 519 194 q 601 356 601 268 l 601 953 l 846 975 l 846 293 q 748 69 846 160 q 460 -22 650 -22 q 172 69 269 -22 q 74 293 74 160 l 74 953 l 318 975 m 460 1150 l 329 1056 l 199 1071 l 460 1282 l 721 1071 l 590 1056 l 460 1150 z "},"Ü":{"ha":919,"x_min":74,"x_max":846,"o":"m 318 975 l 318 356 q 359 231 318 268 q 460 194 400 194 q 560 231 519 194 q 601 356 601 268 l 601 953 l 846 975 l 846 293 q 748 69 846 160 q 460 -22 650 -22 q 172 69 269 -22 q 74 293 74 160 l 74 953 l 318 975 m 211 1168 l 324 1269 l 429 1157 l 317 1056 l 211 1168 m 490 1168 l 603 1269 l 708 1157 l 596 1056 l 490 1168 z "},"Ý":{"ha":850,"x_min":-21,"x_max":874,"o":"m -21 906 l 224 983 l 472 576 l 643 983 l 874 906 l 450 -22 l 186 11 l 351 332 l -21 906 m 550 1331 l 610 1213 l 263 1056 l 222 1146 l 550 1331 z "},"Þ":{"ha":789,"x_min":69,"x_max":756,"o":"m 69 -11 l 69 953 l 314 975 l 314 835 l 389 835 q 662 747 568 835 q 756 529 756 658 q 662 318 756 410 q 392 226 568 226 l 314 226 l 314 11 l 69 -11 m 314 633 l 314 428 l 382 428 q 473 456 435 428 q 511 531 511 483 q 474 606 511 579 q 382 633 438 633 l 314 633 z "},"ß":{"ha":926,"x_min":26,"x_max":890,"o":"m 349 53 l 349 -53 l 149 -118 l 149 436 l 26 436 l 74 615 l 149 615 l 149 657 q 238 896 149 801 q 486 990 326 990 q 723 910 642 990 q 804 726 804 831 q 718 549 804 615 l 718 546 q 839 451 788 514 q 890 288 890 388 q 798 62 890 146 q 563 -22 706 -22 q 349 53 432 -22 m 365 261 l 417 288 q 448 208 419 243 q 538 172 476 172 q 635 207 596 172 q 674 300 674 242 q 668 338 674 319 q 647 381 663 357 q 593 421 631 406 q 500 436 556 436 l 431 436 l 431 603 l 449 603 q 482 605 465 603 q 526 615 499 607 q 571 645 554 624 q 588 700 588 667 q 557 770 588 744 q 479 796 526 796 q 415 781 440 796 q 381 736 390 765 q 368 686 371 707 q 365 635 365 665 l 365 261 z "},"à":{"ha":740,"x_min":31,"x_max":679,"o":"m 119 507 l 156 701 q 376 739 275 739 q 519 718 460 739 q 609 669 579 697 q 656 601 639 642 q 676 537 674 561 q 679 485 679 513 l 679 7 l 475 -15 l 475 58 q 296 -22 421 -22 q 105 47 179 -22 q 31 224 31 117 q 103 401 31 332 q 296 471 176 471 q 463 415 389 471 l 463 454 q 335 553 463 553 q 119 507 226 553 m 275 165 q 290 153 275 165 q 354 140 304 140 q 433 165 404 140 q 463 231 463 190 q 433 296 463 271 q 354 321 404 321 q 276 297 306 321 q 246 231 246 272 q 275 165 246 190 m 204 1068 l 532 883 l 492 793 l 144 950 l 204 1068 z "},"á":{"ha":740,"x_min":31,"x_max":679,"o":"m 119 507 l 156 701 q 376 739 275 739 q 519 718 460 739 q 609 669 579 697 q 656 601 639 642 q 676 537 674 561 q 679 485 679 513 l 679 7 l 475 -15 l 475 58 q 296 -22 421 -22 q 105 47 179 -22 q 31 224 31 117 q 103 401 31 332 q 296 471 176 471 q 463 415 389 471 l 463 454 q 335 553 463 553 q 119 507 226 553 m 275 165 q 290 153 275 165 q 354 140 304 140 q 433 165 404 140 q 463 231 463 190 q 433 296 463 271 q 354 321 404 321 q 276 297 306 321 q 246 231 246 272 q 275 165 246 190 m 535 1068 l 594 950 l 247 793 l 207 883 l 535 1068 z "},"â":{"ha":740,"x_min":31,"x_max":679,"o":"m 119 507 l 156 701 q 376 739 275 739 q 519 718 460 739 q 609 669 579 697 q 656 601 639 642 q 676 537 674 561 q 679 485 679 513 l 679 7 l 475 -15 l 475 58 q 296 -22 421 -22 q 105 47 179 -22 q 31 224 31 117 q 103 401 31 332 q 296 471 176 471 q 463 415 389 471 l 463 454 q 335 553 463 553 q 119 507 226 553 m 275 165 q 290 153 275 165 q 354 140 304 140 q 433 165 404 140 q 463 231 463 190 q 433 296 463 271 q 354 321 404 321 q 276 297 306 321 q 246 231 246 272 q 275 165 246 190 m 369 888 l 239 793 l 108 808 l 369 1019 l 631 808 l 500 793 l 369 888 z "},"ã":{"ha":740,"x_min":31,"x_max":679,"o":"m 119 507 l 156 701 q 376 739 275 739 q 519 718 460 739 q 609 669 579 697 q 656 601 639 642 q 676 537 674 561 q 679 485 679 513 l 679 7 l 475 -15 l 475 58 q 296 -22 421 -22 q 105 47 179 -22 q 31 224 31 117 q 103 401 31 332 q 296 471 176 471 q 463 415 389 471 l 463 454 q 335 553 463 553 q 119 507 226 553 m 275 165 q 290 153 275 165 q 354 140 304 140 q 433 165 404 140 q 463 231 463 190 q 433 296 463 271 q 354 321 404 321 q 276 297 306 321 q 246 231 246 272 q 275 165 246 190 m 172 801 l 89 886 q 260 960 165 960 q 369 939 313 960 q 476 911 453 911 q 569 951 524 911 l 650 871 q 485 793 572 793 q 369 818 438 793 q 269 842 306 842 q 172 801 221 842 z "},"ä":{"ha":740,"x_min":31,"x_max":679,"o":"m 119 507 l 156 701 q 376 739 275 739 q 519 718 460 739 q 609 669 579 697 q 656 601 639 642 q 676 537 674 561 q 679 485 679 513 l 679 7 l 475 -15 l 475 58 q 296 -22 421 -22 q 105 47 179 -22 q 31 224 31 117 q 103 401 31 332 q 296 471 176 471 q 463 415 389 471 l 463 454 q 335 553 463 553 q 119 507 226 553 m 275 165 q 290 153 275 165 q 354 140 304 140 q 433 165 404 140 q 463 231 463 190 q 433 296 463 271 q 354 321 404 321 q 276 297 306 321 q 246 231 246 272 q 275 165 246 190 m 121 906 l 233 1007 l 339 894 l 226 793 l 121 906 m 400 906 l 513 1007 l 618 894 l 506 793 l 400 906 z "},"å":{"ha":740,"x_min":31,"x_max":679,"o":"m 119 507 l 156 701 q 376 739 275 739 q 519 718 460 739 q 609 669 579 697 q 656 601 639 642 q 676 537 674 561 q 679 485 679 513 l 679 7 l 475 -15 l 475 58 q 296 -22 421 -22 q 105 47 179 -22 q 31 224 31 117 q 103 401 31 332 q 296 471 176 471 q 463 415 389 471 l 463 454 q 335 553 463 553 q 119 507 226 553 m 275 165 q 290 153 275 165 q 354 140 304 140 q 433 165 404 140 q 463 231 463 190 q 433 296 463 271 q 354 321 404 321 q 276 297 306 321 q 246 231 246 272 q 275 165 246 190 m 278 832 q 258 851 278 832 q 239 924 239 871 q 278 1015 239 976 q 369 1054 317 1054 q 461 1015 422 1054 q 500 924 500 976 q 461 832 500 871 q 369 793 422 793 q 278 832 317 793 m 342 951 q 336 945 342 951 q 331 924 331 939 q 342 897 331 908 q 369 885 354 885 q 397 897 385 885 q 408 924 408 908 q 397 951 408 939 q 369 963 385 963 q 342 951 354 963 z "},"æ":{"ha":1204,"x_min":32,"x_max":1176,"o":"m 263 303 q 248 291 263 303 q 233 236 233 279 q 263 169 233 193 q 335 144 293 144 q 406 169 376 144 q 436 236 436 193 q 406 303 436 279 q 335 328 376 328 q 263 303 293 328 m 121 517 l 157 700 q 386 739 281 739 q 588 657 517 739 q 833 739 700 739 q 1029 682 938 739 q 1176 514 1121 625 l 724 225 q 850 178 771 178 q 1039 258 933 178 l 1154 90 q 839 -22 1011 -22 q 557 88 679 -22 q 303 -22 458 -22 q 105 49 178 -22 q 32 225 32 119 q 106 398 32 329 q 290 467 181 467 q 451 411 376 467 l 451 450 q 313 558 451 558 q 121 517 218 558 m 667 364 l 918 524 q 836 556 883 556 q 717 509 768 556 q 665 382 665 463 q 667 364 665 369 z "},"ç":{"ha":697,"x_min":28,"x_max":669,"o":"m 660 650 l 549 494 q 422 539 492 539 q 296 488 346 539 q 246 361 246 438 q 295 229 246 281 q 424 178 344 178 q 553 229 500 178 l 669 71 q 436 -21 558 -12 l 419 -60 l 436 -60 q 503 -90 476 -62 q 531 -165 531 -118 q 497 -244 531 -211 q 403 -276 464 -276 q 286 -242 339 -276 l 318 -172 q 399 -204 353 -204 q 436 -193 421 -204 q 451 -164 451 -182 q 440 -135 451 -146 q 410 -124 428 -124 q 379 -133 396 -124 l 332 -101 l 365 -19 q 119 106 211 -3 q 28 365 28 214 q 138 633 28 528 q 408 739 247 739 q 660 650 558 739 z "},"è":{"ha":779,"x_min":29,"x_max":758,"o":"m 617 258 l 732 90 q 417 -22 590 -22 q 136 92 243 -22 q 29 374 29 207 q 142 636 29 533 q 411 739 256 739 q 615 680 522 739 q 758 514 707 621 l 301 225 q 428 178 349 178 q 617 258 511 178 m 247 364 l 499 524 q 417 556 464 556 q 297 509 349 556 q 246 382 246 463 q 247 364 246 369 m 225 1068 l 553 883 l 513 793 l 165 950 l 225 1068 z "},"é":{"ha":779,"x_min":29,"x_max":758,"o":"m 617 258 l 732 90 q 417 -22 590 -22 q 136 92 243 -22 q 29 374 29 207 q 142 636 29 533 q 411 739 256 739 q 615 680 522 739 q 758 514 707 621 l 301 225 q 428 178 349 178 q 617 258 511 178 m 247 364 l 499 524 q 417 556 464 556 q 297 509 349 556 q 246 382 246 463 q 247 364 246 369 m 556 1068 l 615 950 l 268 793 l 228 883 l 556 1068 z "},"ê":{"ha":779,"x_min":29,"x_max":758,"o":"m 617 258 l 732 90 q 417 -22 590 -22 q 136 92 243 -22 q 29 374 29 207 q 142 636 29 533 q 411 739 256 739 q 615 680 522 739 q 758 514 707 621 l 301 225 q 428 178 349 178 q 617 258 511 178 m 247 364 l 499 524 q 417 556 464 556 q 297 509 349 556 q 246 382 246 463 q 247 364 246 369 m 390 888 l 260 793 l 129 808 l 390 1019 l 651 808 l 521 793 l 390 888 z "},"ë":{"ha":779,"x_min":29,"x_max":758,"o":"m 617 258 l 732 90 q 417 -22 590 -22 q 136 92 243 -22 q 29 374 29 207 q 142 636 29 533 q 411 739 256 739 q 615 680 522 739 q 758 514 707 621 l 301 225 q 428 178 349 178 q 617 258 511 178 m 247 364 l 499 524 q 417 556 464 556 q 297 509 349 556 q 246 382 246 463 q 247 364 246 369 m 140 906 l 253 1007 l 358 894 l 246 793 l 140 906 m 419 906 l 532 1007 l 638 894 l 525 793 l 419 906 z "},"ì":{"ha":386,"x_min":-32,"x_max":356,"o":"m 301 728 l 301 11 l 85 -11 l 85 706 l 301 728 m 28 1068 l 356 883 l 315 793 l -32 950 l 28 1068 z "},"í":{"ha":386,"x_min":31,"x_max":418,"o":"m 301 728 l 301 11 l 85 -11 l 85 706 l 301 728 m 358 1068 l 418 950 l 71 793 l 31 883 l 358 1068 z "},"î":{"ha":386,"x_min":-68,"x_max":454,"o":"m 301 728 l 301 11 l 85 -11 l 85 706 l 301 728 m 193 888 l 63 793 l -68 808 l 193 1019 l 454 808 l 324 793 l 193 888 z "},"ï":{"ha":386,"x_min":-56,"x_max":442,"o":"m 301 728 l 301 11 l 85 -11 l 85 706 l 301 728 m -56 906 l 57 1007 l 163 894 l 50 793 l -56 906 m 224 906 l 336 1007 l 442 894 l 329 793 l 224 906 z "},"ð":{"ha":851,"x_min":28,"x_max":824,"o":"m 204 964 l 424 990 l 489 942 l 664 989 l 747 876 l 610 839 q 760 654 696 763 q 824 413 824 546 q 708 100 824 222 q 425 -22 593 -22 q 147 87 265 -22 q 28 358 28 196 q 144 603 28 507 q 411 700 260 700 q 492 685 446 700 l 496 683 q 463 735 490 701 q 417 788 436 769 l 249 742 l 165 853 l 303 890 q 204 964 257 931 m 298 485 q 271 459 298 485 q 244 358 244 433 q 298 231 244 283 q 425 179 351 179 q 553 231 499 179 q 607 358 607 283 q 553 485 607 433 q 425 538 499 538 q 298 485 351 538 z "},"ñ":{"ha":725,"x_min":61,"x_max":664,"o":"m 61 -11 l 61 706 l 263 726 l 263 625 q 313 688 283 663 q 372 724 342 714 q 418 736 401 733 q 447 739 435 739 q 601 676 538 739 q 664 497 664 614 l 664 11 l 447 -11 l 447 458 q 426 516 447 494 q 372 538 404 538 q 306 509 335 538 q 278 426 278 481 l 278 11 l 61 -11 m 165 801 l 82 886 q 253 960 158 960 q 363 939 306 960 q 469 911 446 911 q 563 951 517 911 l 643 871 q 478 793 565 793 q 363 818 431 793 q 263 842 299 842 q 165 801 214 842 z "},"ò":{"ha":838,"x_min":29,"x_max":808,"o":"m 418 -22 q 145 88 261 -22 q 29 358 29 197 q 145 629 29 519 q 418 739 261 739 q 693 629 578 739 q 808 358 808 519 q 693 88 808 197 q 418 -22 578 -22 m 297 486 q 271 460 297 486 q 246 358 246 433 q 297 231 246 283 q 418 178 347 178 q 540 231 489 178 q 592 358 592 283 q 540 486 592 433 q 418 539 489 539 q 297 486 347 539 m 250 1068 l 578 883 l 538 793 l 190 950 l 250 1068 z "},"ó":{"ha":838,"x_min":29,"x_max":808,"o":"m 418 -22 q 145 88 261 -22 q 29 358 29 197 q 145 629 29 519 q 418 739 261 739 q 693 629 578 739 q 808 358 808 519 q 693 88 808 197 q 418 -22 578 -22 m 297 486 q 271 460 297 486 q 246 358 246 433 q 297 231 246 283 q 418 178 347 178 q 540 231 489 178 q 592 358 592 283 q 540 486 592 433 q 418 539 489 539 q 297 486 347 539 m 581 1068 l 640 950 l 293 793 l 253 883 l 581 1068 z "},"ô":{"ha":838,"x_min":29,"x_max":808,"o":"m 418 -22 q 145 88 261 -22 q 29 358 29 197 q 145 629 29 519 q 418 739 261 739 q 693 629 578 739 q 808 358 808 519 q 693 88 808 197 q 418 -22 578 -22 m 297 486 q 271 460 297 486 q 246 358 246 433 q 297 231 246 283 q 418 178 347 178 q 540 231 489 178 q 592 358 592 283 q 540 486 592 433 q 418 539 489 539 q 297 486 347 539 m 415 888 l 285 793 l 154 808 l 415 1019 l 676 808 l 546 793 l 415 888 z "},"õ":{"ha":838,"x_min":29,"x_max":808,"o":"m 418 -22 q 145 88 261 -22 q 29 358 29 197 q 145 629 29 519 q 418 739 261 739 q 693 629 578 739 q 808 358 808 519 q 693 88 808 197 q 418 -22 578 -22 m 297 486 q 271 460 297 486 q 246 358 246 433 q 297 231 246 283 q 418 178 347 178 q 540 231 489 178 q 592 358 592 283 q 540 486 592 433 q 418 539 489 539 q 297 486 347 539 m 218 801 l 135 886 q 306 960 211 960 q 415 939 358 960 q 522 911 499 911 q 615 951 569 911 l 696 871 q 531 793 618 793 q 415 818 483 793 q 315 842 351 842 q 218 801 267 842 z "},"ö":{"ha":838,"x_min":29,"x_max":808,"o":"m 418 -22 q 145 88 261 -22 q 29 358 29 197 q 145 629 29 519 q 418 739 261 739 q 693 629 578 739 q 808 358 808 519 q 693 88 808 197 q 418 -22 578 -22 m 297 486 q 271 460 297 486 q 246 358 246 433 q 297 231 246 283 q 418 178 347 178 q 540 231 489 178 q 592 358 592 283 q 540 486 592 433 q 418 539 489 539 q 297 486 347 539 m 169 906 l 282 1007 l 388 894 l 275 793 l 169 906 m 449 906 l 561 1007 l 667 894 l 554 793 l 449 906 z "},"÷":{"ha":833,"x_min":58,"x_max":775,"o":"m 775 274 l 58 274 l 58 443 l 775 443 l 775 274 m 326 557 q 306 576 326 557 q 286 649 286 596 q 326 740 286 701 q 417 779 365 779 q 508 740 468 779 q 547 649 547 701 q 508 557 547 596 q 417 518 468 518 q 326 557 365 518 m 326 -24 q 306 -4 326 -24 q 286 68 286 15 q 326 160 286 121 q 417 199 365 199 q 508 160 468 199 q 547 68 547 121 q 508 -24 547 15 q 417 -62 468 -62 q 326 -24 365 -62 z "},"ø":{"ha":840,"x_min":28,"x_max":813,"o":"m 668 822 l 783 778 l 688 642 q 813 365 813 529 q 789 234 813 300 q 720 110 765 168 q 595 15 675 51 q 414 -22 515 -22 q 247 14 321 -22 l 160 -112 l 46 -67 l 147 78 q 28 360 28 190 q 138 628 28 518 q 419 739 249 739 q 588 707 508 739 l 668 822 m 274 260 l 463 528 q 418 533 442 533 q 294 482 344 533 q 244 353 244 431 q 274 260 244 300 m 561 461 l 372 192 q 422 183 397 183 q 544 235 493 183 q 596 365 596 288 q 561 461 596 417 z "},"ù":{"ha":725,"x_min":61,"x_max":664,"o":"m 664 11 l 463 -11 l 463 79 q 279 -22 397 -22 q 124 40 188 -22 q 61 221 61 101 l 61 706 l 278 728 l 278 257 q 301 196 278 214 q 356 178 325 178 q 418 205 389 178 q 447 289 447 232 l 447 706 l 664 728 l 664 11 m 197 1068 l 525 883 l 485 793 l 138 950 l 197 1068 z "},"ú":{"ha":725,"x_min":61,"x_max":664,"o":"m 664 11 l 463 -11 l 463 79 q 279 -22 397 -22 q 124 40 188 -22 q 61 221 61 101 l 61 706 l 278 728 l 278 257 q 301 196 278 214 q 356 178 325 178 q 418 205 389 178 q 447 289 447 232 l 447 706 l 664 728 l 664 11 m 528 1068 l 588 950 l 240 793 l 200 883 l 528 1068 z "},"û":{"ha":725,"x_min":61,"x_max":664,"o":"m 664 11 l 463 -11 l 463 79 q 279 -22 397 -22 q 124 40 188 -22 q 61 221 61 101 l 61 706 l 278 728 l 278 257 q 301 196 278 214 q 356 178 325 178 q 418 205 389 178 q 447 289 447 232 l 447 706 l 664 728 l 664 11 m 363 888 l 232 793 l 101 808 l 363 1019 l 624 808 l 493 793 l 363 888 z "},"ü":{"ha":725,"x_min":61,"x_max":664,"o":"m 664 11 l 463 -11 l 463 79 q 279 -22 397 -22 q 124 40 188 -22 q 61 221 61 101 l 61 706 l 278 728 l 278 257 q 301 196 278 214 q 356 178 325 178 q 418 205 389 178 q 447 289 447 232 l 447 706 l 664 728 l 664 11 m 114 906 l 226 1007 l 332 894 l 219 793 l 114 906 m 393 906 l 506 1007 l 611 894 l 499 793 l 393 906 z "},"ý":{"ha":733,"x_min":-24,"x_max":767,"o":"m -24 690 l 199 736 l 369 319 l 551 736 l 767 686 l 324 -254 l 90 -222 l 251 85 l -24 690 m 536 1068 l 596 950 l 249 793 l 208 883 l 536 1068 z "},"þ":{"ha":854,"x_min":46,"x_max":826,"o":"m 46 -250 l 46 968 l 263 992 l 263 624 l 265 624 q 479 739 340 739 q 597 715 538 739 q 708 647 656 692 q 793 526 760 603 q 826 356 826 450 q 721 81 826 185 q 469 -22 615 -22 q 263 64 343 -22 l 263 -228 l 46 -250 m 301 487 q 275 461 301 487 q 249 358 249 435 q 301 230 249 282 q 429 178 353 178 q 558 230 506 178 q 610 358 610 282 q 558 487 610 435 q 429 539 506 539 q 301 487 353 539 z "},"ÿ":{"ha":733,"x_min":-24,"x_max":767,"o":"m -24 690 l 199 736 l 369 319 l 551 736 l 767 686 l 324 -254 l 90 -222 l 251 85 l -24 690 m 122 906 l 235 1007 l 340 894 l 228 793 l 122 906 m 401 906 l 514 1007 l 619 894 l 507 793 l 401 906 z "},"Ā":{"ha":968,"x_min":-35,"x_max":1003,"o":"m 301 168 l 208 -36 l -35 22 l 489 1019 l 1003 22 l 757 -36 l 664 168 l 301 168 m 483 585 l 382 363 l 583 363 l 483 585 m 738 1056 l 232 1056 l 232 1174 l 738 1174 l 738 1056 z "},"ā":{"ha":740,"x_min":31,"x_max":679,"o":"m 119 507 l 156 701 q 376 739 275 739 q 519 718 460 739 q 609 669 579 697 q 656 601 639 642 q 676 537 674 561 q 679 485 679 513 l 679 7 l 475 -15 l 475 58 q 296 -22 421 -22 q 105 47 179 -22 q 31 224 31 117 q 103 401 31 332 q 296 471 176 471 q 463 415 389 471 l 463 454 q 335 553 463 553 q 119 507 226 553 m 275 165 q 290 153 275 165 q 354 140 304 140 q 433 165 404 140 q 463 231 463 190 q 433 296 463 271 q 354 321 404 321 q 276 297 306 321 q 246 231 246 272 q 275 165 246 190 m 624 793 l 118 793 l 118 911 l 624 911 l 624 793 z "},"Ă":{"ha":968,"x_min":-35,"x_max":1003,"o":"m 301 168 l 208 -36 l -35 22 l 489 1019 l 1003 22 l 757 -36 l 664 168 l 301 168 m 483 585 l 382 363 l 583 363 l 483 585 m 621 1274 l 726 1251 q 647 1106 714 1157 q 483 1056 579 1056 q 320 1106 388 1056 q 240 1251 253 1157 l 346 1274 q 390 1199 350 1225 q 483 1172 429 1172 q 577 1199 538 1172 q 621 1274 617 1225 z "},"ă":{"ha":740,"x_min":31,"x_max":679,"o":"m 119 507 l 156 701 q 376 739 275 739 q 519 718 460 739 q 609 669 579 697 q 656 601 639 642 q 676 537 674 561 q 679 485 679 513 l 679 7 l 475 -15 l 475 58 q 296 -22 421 -22 q 105 47 179 -22 q 31 224 31 117 q 103 401 31 332 q 296 471 176 471 q 463 415 389 471 l 463 454 q 335 553 463 553 q 119 507 226 553 m 275 165 q 290 153 275 165 q 354 140 304 140 q 433 165 404 140 q 463 231 463 190 q 433 296 463 271 q 354 321 404 321 q 276 297 306 321 q 246 231 246 272 q 275 165 246 190 m 500 1000 l 600 979 q 549 864 592 908 q 461 806 506 819 q 369 793 417 793 q 278 806 322 793 q 190 864 233 819 q 139 979 147 908 l 239 1000 q 279 928 242 953 q 369 904 317 904 q 460 928 422 904 q 500 1000 497 953 z "},"Ą":{"ha":983,"x_min":-35,"x_max":1004,"o":"m 489 1019 l 1003 22 q 831 -140 831 -78 q 844 -170 831 -157 q 886 -183 858 -183 q 981 -157 933 -183 l 1004 -232 q 878 -261 946 -261 q 776 -226 811 -261 q 742 -147 742 -192 q 808 -24 742 -79 l 757 -36 l 664 168 l 301 168 l 208 -36 l -35 22 l 489 1019 m 583 363 l 483 585 l 382 363 l 583 363 z "},"ą":{"ha":742,"x_min":31,"x_max":681,"o":"m 119 507 l 156 701 q 376 739 275 739 q 519 718 460 739 q 609 669 579 697 q 656 601 639 642 q 676 537 674 561 q 679 485 679 513 l 679 11 q 549 -83 590 -44 q 507 -156 507 -122 q 521 -185 507 -172 q 563 -199 535 -199 q 657 -172 610 -199 l 681 -247 q 554 -276 622 -276 q 453 -242 488 -276 q 418 -162 418 -207 q 447 -78 418 -114 q 532 -4 475 -43 l 478 -11 l 475 58 q 296 -22 421 -22 q 105 47 179 -22 q 31 224 31 117 q 103 401 31 332 q 296 471 176 471 q 463 415 389 471 l 463 454 q 335 553 463 553 q 119 507 226 553 m 275 165 q 290 153 275 165 q 354 140 304 140 q 433 165 404 140 q 463 231 463 190 q 433 296 463 271 q 354 321 404 321 q 276 297 306 321 q 246 231 246 272 q 275 165 246 190 z "},"Ć":{"ha":785,"x_min":32,"x_max":750,"o":"m 710 950 l 750 683 q 550 758 658 758 q 355 676 433 758 q 276 474 276 593 q 356 275 276 356 q 549 194 435 194 q 747 263 660 194 l 708 8 q 517 -22 610 -22 q 174 124 317 -22 q 32 469 32 269 q 63 642 32 556 q 152 805 93 729 q 310 928 211 881 q 531 975 408 975 q 710 950 626 975 m 675 1331 l 735 1213 l 388 1056 l 347 1146 l 675 1331 z "},"ć":{"ha":697,"x_min":29,"x_max":669,"o":"m 660 650 l 549 494 q 422 539 492 539 q 296 488 346 539 q 246 361 246 438 q 296 230 246 282 q 424 178 346 178 q 553 229 500 178 l 669 71 q 406 -22 546 -22 q 140 85 250 -22 q 29 365 29 192 q 139 633 29 528 q 408 739 249 739 q 660 650 556 739 m 511 1068 l 571 950 l 224 793 l 183 883 l 511 1068 z "},"Ĉ":{"ha":785,"x_min":32,"x_max":758,"o":"m 710 950 l 750 683 q 550 758 658 758 q 355 676 433 758 q 276 474 276 593 q 356 275 276 356 q 549 194 435 194 q 747 263 660 194 l 708 8 q 517 -22 610 -22 q 174 124 317 -22 q 32 469 32 269 q 63 642 32 556 q 152 805 93 729 q 310 928 211 881 q 531 975 408 975 q 710 950 626 975 m 497 1150 l 367 1056 l 236 1071 l 497 1282 l 758 1071 l 628 1056 l 497 1150 z "},"ĉ":{"ha":697,"x_min":29,"x_max":669,"o":"m 660 650 l 549 494 q 422 539 492 539 q 296 488 346 539 q 246 361 246 438 q 296 230 246 282 q 424 178 346 178 q 553 229 500 178 l 669 71 q 406 -22 546 -22 q 140 85 250 -22 q 29 365 29 192 q 139 633 29 528 q 408 739 249 739 q 660 650 556 739 m 388 888 l 257 793 l 126 808 l 388 1019 l 649 808 l 518 793 l 388 888 z "},"Č":{"ha":785,"x_min":32,"x_max":750,"o":"m 710 950 l 750 683 q 550 758 658 758 q 355 676 433 758 q 276 474 276 593 q 356 275 276 356 q 549 194 435 194 q 747 263 660 194 l 708 8 q 517 -22 610 -22 q 174 124 317 -22 q 32 469 32 269 q 63 642 32 556 q 152 805 93 729 q 310 928 211 881 q 531 975 408 975 q 710 950 626 975 m 489 1188 l 619 1282 l 750 1267 l 489 1056 l 228 1267 l 358 1282 l 489 1188 z "},"č":{"ha":697,"x_min":29,"x_max":669,"o":"m 660 650 l 549 494 q 422 539 492 539 q 296 488 346 539 q 246 361 246 438 q 296 230 246 282 q 424 178 346 178 q 553 229 500 178 l 669 71 q 406 -22 546 -22 q 140 85 250 -22 q 29 365 29 192 q 139 633 29 528 q 408 739 249 739 q 660 650 556 739 m 400 925 l 531 1019 l 661 1004 l 400 793 l 139 1004 l 269 1019 l 400 925 z "},"Ď":{"ha":915,"x_min":74,"x_max":883,"o":"m 74 953 l 360 953 q 592 911 489 953 q 756 799 694 869 q 851 644 818 729 q 883 464 883 558 q 852 290 883 371 q 759 142 821 208 q 594 38 697 76 q 358 0 490 0 l 74 0 l 74 953 m 318 736 l 318 217 l 363 217 q 566 292 493 217 q 639 469 639 368 q 566 658 639 579 q 357 736 493 736 l 318 736 m 361 1188 l 492 1282 l 622 1267 l 361 1056 l 100 1267 l 231 1282 l 361 1188 z "},"ď":{"ha":1089,"x_min":29,"x_max":1133,"o":"m 810 11 l 607 -11 l 607 88 l 604 88 q 513 13 569 40 q 427 -19 456 -15 q 376 -22 399 -22 q 259 1 318 -22 q 148 69 200 25 q 63 190 96 114 q 29 361 29 267 q 135 635 29 532 q 386 739 240 739 q 593 653 513 739 l 593 972 l 810 994 l 810 11 m 555 230 q 581 256 555 230 q 607 358 607 282 q 555 487 607 435 q 426 539 503 539 q 298 487 350 539 q 246 358 246 435 q 298 230 246 282 q 426 178 350 178 q 555 230 503 178 m 886 932 l 1042 1032 q 1133 875 1133 972 q 1115 789 1133 831 q 1050 668 1097 747 l 1001 586 l 886 646 l 910 688 q 964 835 964 783 q 886 932 964 888 z "},"Đ":{"ha":926,"x_min":6,"x_max":893,"o":"m 6 389 l 6 606 l 74 606 l 74 953 l 404 953 q 749 815 606 953 q 893 476 893 678 q 749 138 893 275 q 404 0 606 0 l 74 0 l 74 389 l 6 389 m 479 606 l 479 389 l 310 389 l 310 201 l 383 201 q 576 284 494 201 q 657 476 657 367 q 576 669 657 586 q 383 751 494 751 l 310 751 l 310 606 l 479 606 z "},"đ":{"ha":874,"x_min":29,"x_max":901,"o":"m 810 11 l 607 -11 l 607 88 l 604 88 q 513 13 569 40 q 427 -19 456 -15 q 376 -22 399 -22 q 259 1 318 -22 q 148 69 200 25 q 63 190 96 114 q 29 361 29 267 q 135 635 29 532 q 386 739 240 739 q 593 653 513 739 l 593 800 l 294 800 l 294 896 l 593 896 l 593 972 l 810 994 l 810 896 l 901 896 l 901 800 l 810 800 l 810 11 m 555 230 q 581 256 555 230 q 607 358 607 282 q 555 487 607 435 q 426 539 503 539 q 298 487 350 539 q 246 358 246 435 q 298 230 246 282 q 426 178 350 178 q 555 230 503 178 z "},"Ē":{"ha":724,"x_min":74,"x_max":692,"o":"m 74 953 l 611 953 l 663 751 l 318 751 l 318 586 l 564 586 l 564 385 l 318 385 l 318 201 l 692 201 l 633 0 l 74 0 l 74 953 m 615 1056 l 110 1056 l 110 1174 l 615 1174 l 615 1056 z "},"ē":{"ha":779,"x_min":29,"x_max":758,"o":"m 617 258 l 732 90 q 417 -22 590 -22 q 136 92 243 -22 q 29 374 29 207 q 142 636 29 533 q 411 739 256 739 q 615 680 522 739 q 758 514 707 621 l 301 225 q 428 178 349 178 q 617 258 511 178 m 247 364 l 499 524 q 417 556 464 556 q 297 509 349 556 q 246 382 246 463 q 247 364 246 369 m 644 793 l 139 793 l 139 911 l 644 911 l 644 793 z "},"Ė":{"ha":724,"x_min":74,"x_max":692,"o":"m 74 953 l 611 953 l 663 751 l 318 751 l 318 586 l 564 586 l 564 385 l 318 385 l 318 201 l 692 201 l 633 0 l 74 0 l 74 953 m 339 1056 l 221 1174 l 336 1290 l 454 1174 l 339 1056 z "},"ė":{"ha":779,"x_min":29,"x_max":758,"o":"m 617 258 l 732 90 q 417 -22 590 -22 q 136 92 243 -22 q 29 374 29 207 q 142 636 29 533 q 411 739 256 739 q 615 680 522 739 q 758 514 707 621 l 301 225 q 428 178 349 178 q 617 258 511 178 m 247 364 l 499 524 q 417 556 464 556 q 297 509 349 556 q 246 382 246 463 q 247 364 246 369 m 396 793 l 278 911 l 393 1028 l 511 911 l 396 793 z "},"Ę":{"ha":724,"x_min":74,"x_max":692,"o":"m 633 0 l 564 0 q 392 -162 392 -100 q 406 -192 392 -179 q 447 -206 419 -206 q 542 -179 494 -206 l 565 -254 q 439 -283 507 -283 q 338 -249 372 -283 q 303 -169 303 -214 q 438 0 303 -75 l 74 0 l 74 953 l 611 953 l 663 751 l 318 751 l 318 586 l 564 586 l 564 385 l 318 385 l 318 201 l 692 201 l 633 0 z "},"ę":{"ha":785,"x_min":28,"x_max":757,"o":"m 615 258 l 731 90 q 501 -15 628 7 q 343 -169 343 -111 q 357 -199 343 -186 q 399 -212 371 -212 q 493 -186 446 -212 l 517 -261 q 390 -290 458 -290 q 289 -256 324 -290 q 254 -176 254 -221 q 369 -22 254 -92 q 122 106 215 -6 q 28 374 28 218 q 141 636 28 533 q 410 739 254 739 q 613 680 521 739 q 757 514 706 621 l 300 225 q 426 175 347 175 q 615 258 510 175 m 246 364 l 497 524 q 415 556 463 556 q 296 509 347 556 q 244 382 244 463 q 246 364 244 369 z "},"Ě":{"ha":724,"x_min":74,"x_max":692,"o":"m 74 953 l 611 953 l 663 751 l 318 751 l 318 586 l 564 586 l 564 385 l 318 385 l 318 201 l 692 201 l 633 0 l 74 0 l 74 953 m 361 1188 l 492 1282 l 622 1267 l 361 1056 l 100 1267 l 231 1282 l 361 1188 z "},"ě":{"ha":779,"x_min":29,"x_max":758,"o":"m 617 258 l 732 90 q 417 -22 590 -22 q 136 92 243 -22 q 29 374 29 207 q 142 636 29 533 q 411 739 256 739 q 615 680 522 739 q 758 514 707 621 l 301 225 q 428 178 349 178 q 617 258 511 178 m 247 364 l 499 524 q 417 556 464 556 q 297 509 349 556 q 246 382 246 463 q 247 364 246 369 m 390 925 l 521 1019 l 651 1004 l 390 793 l 129 1004 l 260 1019 l 390 925 z "},"Ĝ":{"ha":1004,"x_min":32,"x_max":944,"o":"m 917 835 l 774 656 q 554 750 682 750 q 353 665 426 750 q 279 469 279 579 q 295 380 279 425 q 342 293 311 335 q 431 225 374 251 q 563 199 489 199 q 708 226 636 199 l 708 364 l 456 364 l 526 558 l 944 558 l 944 76 q 558 -22 750 -22 q 272 51 394 -22 q 90 234 149 124 q 32 471 32 344 q 91 711 32 597 q 267 900 150 825 q 535 975 385 975 q 917 835 760 975 m 549 1150 l 418 1056 l 288 1071 l 549 1282 l 810 1071 l 679 1056 l 549 1150 z "},"ĝ":{"ha":769,"x_min":28,"x_max":763,"o":"m 763 774 l 718 596 q 669 590 696 590 q 640 592 650 590 q 700 426 700 535 q 672 320 700 374 q 585 235 643 267 q 681 148 646 204 q 715 25 715 92 q 624 -171 715 -86 q 349 -256 533 -256 q 28 -124 157 -256 l 157 10 q 342 -75 233 -75 q 459 -41 419 -75 q 499 36 499 -7 q 456 126 499 89 q 338 163 414 163 q 168 128 263 163 l 189 197 q 77 297 119 233 q 35 449 35 361 q 120 653 35 567 q 367 739 206 739 q 463 732 383 739 q 526 728 493 728 q 763 774 642 728 m 368 558 q 278 525 318 558 q 239 432 239 492 q 276 337 239 372 q 367 301 313 301 q 459 340 422 301 q 496 429 496 379 q 458 521 496 483 q 368 558 419 558 m 385 888 l 254 793 l 124 808 l 385 1019 l 646 808 l 515 793 l 385 888 z "},"Ğ":{"ha":1004,"x_min":32,"x_max":944,"o":"m 917 835 l 774 656 q 554 750 682 750 q 353 665 426 750 q 279 469 279 579 q 295 380 279 425 q 342 293 311 335 q 431 225 374 251 q 563 199 489 199 q 708 226 636 199 l 708 364 l 456 364 l 526 558 l 944 558 l 944 76 q 558 -22 750 -22 q 272 51 394 -22 q 90 234 149 124 q 32 471 32 344 q 91 711 32 597 q 267 900 150 825 q 535 975 385 975 q 917 835 760 975 m 686 1274 l 792 1251 q 712 1106 779 1157 q 549 1056 644 1056 q 385 1106 453 1056 q 306 1251 318 1157 l 411 1274 q 455 1199 415 1225 q 549 1172 494 1172 q 642 1199 603 1172 q 686 1274 682 1225 z "},"ğ":{"ha":769,"x_min":28,"x_max":763,"o":"m 763 774 l 718 596 q 669 590 696 590 q 640 592 650 590 q 700 426 700 535 q 672 320 700 374 q 585 235 643 267 q 681 148 646 204 q 715 25 715 92 q 624 -171 715 -86 q 349 -256 533 -256 q 28 -124 157 -256 l 157 10 q 342 -75 233 -75 q 459 -41 419 -75 q 499 36 499 -7 q 456 126 499 89 q 338 163 414 163 q 168 128 263 163 l 189 197 q 77 297 119 233 q 35 449 35 361 q 120 653 35 567 q 367 739 206 739 q 463 732 383 739 q 526 728 493 728 q 763 774 642 728 m 368 558 q 278 525 318 558 q 239 432 239 492 q 276 337 239 372 q 367 301 313 301 q 459 340 422 301 q 496 429 496 379 q 458 521 496 483 q 368 558 419 558 m 515 1000 l 615 979 q 564 864 607 908 q 476 806 521 819 q 385 793 432 793 q 293 806 338 793 q 206 864 249 819 q 154 979 163 908 l 254 1000 q 294 928 257 953 q 385 904 332 904 q 475 928 438 904 q 515 1000 513 953 z "},"Ģ":{"ha":1004,"x_min":32,"x_max":944,"o":"m 917 835 l 774 656 q 554 750 682 750 q 353 665 426 750 q 279 469 279 579 q 295 380 279 425 q 342 293 311 335 q 431 225 374 251 q 563 199 489 199 q 708 226 636 199 l 708 364 l 456 364 l 526 558 l 944 558 l 944 76 q 558 -22 750 -22 q 272 51 394 -22 q 90 234 149 124 q 32 471 32 344 q 91 711 32 597 q 267 900 150 825 q 535 975 385 975 q 917 835 760 975 m 378 -115 l 533 -15 q 625 -172 625 -75 q 607 -258 625 -217 q 542 -379 589 -300 l 493 -461 l 378 -401 l 401 -360 q 456 -212 456 -264 q 378 -115 456 -160 z "},"ģ":{"ha":769,"x_min":28,"x_max":763,"o":"m 763 774 l 718 596 q 669 590 696 590 q 640 592 650 590 q 700 426 700 535 q 672 320 700 374 q 585 235 643 267 q 681 148 646 204 q 715 25 715 92 q 624 -171 715 -86 q 349 -256 533 -256 q 28 -124 157 -256 l 157 10 q 342 -75 233 -75 q 459 -41 419 -75 q 499 36 499 -7 q 456 126 499 89 q 338 163 414 163 q 168 128 263 163 l 189 197 q 77 297 119 233 q 35 449 35 361 q 120 653 35 567 q 367 739 206 739 q 463 732 383 739 q 526 728 493 728 q 763 774 642 728 m 368 558 q 278 525 318 558 q 239 432 239 492 q 276 337 239 372 q 367 301 313 301 q 459 340 422 301 q 496 429 496 379 q 458 521 496 483 q 368 558 419 558 m 518 896 l 363 796 q 271 953 271 856 q 289 1039 271 997 q 354 1160 307 1081 l 403 1242 l 518 1182 l 494 1140 q 440 993 440 1044 q 518 896 440 940 z "},"Ĥ":{"ha":951,"x_min":74,"x_max":878,"o":"m 74 953 l 318 975 l 318 601 l 633 601 l 633 953 l 878 975 l 878 11 l 633 -11 l 633 385 l 318 385 l 318 11 l 74 -11 l 74 953 m 475 1150 l 344 1056 l 214 1071 l 475 1282 l 736 1071 l 606 1056 l 475 1150 z "},"ĥ":{"ha":725,"x_min":-37,"x_max":664,"o":"m 61 968 l 278 992 l 278 665 q 442 739 340 739 q 601 678 538 739 q 664 467 664 617 l 664 8 l 447 -15 l 447 458 q 423 519 447 500 q 369 538 399 538 q 307 510 336 538 q 278 426 278 483 l 278 10 l 61 -11 l 61 968 m 224 1194 l 93 1100 l -37 1115 l 224 1326 l 485 1115 l 354 1100 l 224 1194 z "},"Ī":{"ha":392,"x_min":-56,"x_max":450,"o":"m 74 953 l 318 975 l 318 11 l 74 -11 l 74 953 m 450 1056 l -56 1056 l -56 1174 l 450 1174 l 450 1056 z "},"ī":{"ha":386,"x_min":-58,"x_max":447,"o":"m 301 728 l 301 11 l 85 -11 l 85 706 l 301 728 m 447 793 l -58 793 l -58 911 l 447 911 l 447 793 z "},"Į":{"ha":358,"x_min":47,"x_max":310,"o":"m 64 953 l 308 975 l 308 11 q 261 -18 292 1 q 136 -151 136 -99 q 150 -181 136 -168 q 192 -194 164 -194 q 286 -168 239 -194 l 310 -243 q 183 -272 251 -272 q 82 -237 117 -272 q 47 -158 47 -203 q 160 -3 47 -71 l 64 -11 l 64 953 z "},"į":{"ha":358,"x_min":28,"x_max":331,"o":"m 299 728 l 299 11 q 251 -18 282 1 q 126 -151 126 -99 q 140 -181 126 -168 q 182 -194 154 -194 q 276 -168 229 -194 l 300 -243 q 174 -272 242 -272 q 72 -237 107 -272 q 38 -158 38 -203 q 147 -4 38 -75 l 82 -11 l 82 706 l 299 728 m 169 1011 l 331 894 l 188 754 l 28 868 l 169 1011 z "},"İ":{"ha":394,"x_min":31,"x_max":364,"o":"m 75 953 l 319 975 l 319 11 l 75 -11 l 75 953 m 186 1263 l 364 1144 l 207 1001 l 31 1117 l 186 1263 z "},"ı":{"ha":386,"x_min":85,"x_max":301,"o":"m 301 728 l 301 11 l 85 -11 l 85 706 l 301 728 z "},"Ĵ":{"ha":549,"x_min":-15,"x_max":614,"o":"m 231 953 l 475 975 l 475 335 q 385 75 475 172 q 129 -22 294 -22 q 42 -12 101 -22 l -15 224 q 97 207 42 207 q 162 220 135 207 q 202 250 189 233 q 222 295 215 267 q 230 340 229 324 q 231 382 231 356 l 231 953 m 353 1150 l 222 1056 l 92 1071 l 353 1282 l 614 1071 l 483 1056 l 353 1150 z "},"ĵ":{"ha":356,"x_min":-83,"x_max":439,"o":"m -72 -62 l -36 -62 q 34 -51 7 -62 q 72 -19 61 -40 q 84 17 82 3 q 86 57 86 32 l 86 706 l 303 728 l 303 38 q 301 -33 303 -4 q 285 -108 299 -61 q 245 -185 271 -156 q 167 -236 219 -214 q 43 -258 115 -258 q -4 -256 26 -258 l -72 -62 m 178 860 l 47 765 l -83 781 l 178 992 l 439 781 l 308 765 l 178 860 z "},"Ķ":{"ha":864,"x_min":74,"x_max":893,"o":"m 318 975 l 318 544 l 325 544 l 643 975 l 882 911 l 569 499 l 893 42 l 638 -22 l 325 451 l 318 451 l 318 11 l 74 -11 l 74 953 l 318 975 m 308 -115 l 464 -15 q 556 -172 556 -75 q 538 -258 556 -217 q 472 -379 519 -300 l 424 -461 l 308 -401 l 332 -360 q 386 -212 386 -264 q 308 -115 386 -160 z "},"ķ":{"ha":746,"x_min":61,"x_max":774,"o":"m 61 -11 l 61 972 l 278 994 l 278 417 l 518 749 l 738 683 l 500 383 l 774 42 l 540 -18 l 278 338 l 278 11 l 61 -11 m 261 -115 l 417 -15 q 508 -172 508 -75 q 490 -258 508 -217 q 425 -379 472 -300 l 376 -461 l 261 -401 l 285 -360 q 339 -212 339 -264 q 261 -115 339 -160 z "},"Ĺ":{"ha":674,"x_min":74,"x_max":674,"o":"m 611 0 l 74 0 l 74 951 l 318 975 l 318 217 l 674 217 l 611 0 m 499 1331 l 558 1213 l 211 1056 l 171 1146 l 499 1331 z "},"ĺ":{"ha":356,"x_min":-17,"x_max":371,"o":"m 286 11 l 69 -11 l 69 972 l 286 994 l 286 11 m 311 1300 l 371 1182 l 24 1025 l -17 1115 l 311 1300 z "},"Ļ":{"ha":674,"x_min":74,"x_max":674,"o":"m 611 0 l 74 0 l 74 951 l 318 975 l 318 217 l 674 217 l 611 0 m 213 -115 l 368 -15 q 460 -172 460 -75 q 442 -258 460 -217 q 376 -379 424 -300 l 328 -461 l 213 -401 l 236 -360 q 290 -212 290 -264 q 213 -115 290 -160 z "},"ļ":{"ha":356,"x_min":39,"x_max":286,"o":"m 286 11 l 69 -11 l 69 972 l 286 994 l 286 11 m 39 -115 l 194 -15 q 286 -172 286 -75 q 268 -258 286 -217 q 203 -379 250 -300 l 154 -461 l 39 -401 l 63 -360 q 117 -212 117 -264 q 39 -115 117 -160 z "},"Ľ":{"ha":674,"x_min":74,"x_max":679,"o":"m 611 0 l 74 0 l 74 951 l 318 975 l 318 217 l 674 217 l 611 0 m 432 889 l 588 989 q 679 832 679 929 q 661 746 679 788 q 596 625 643 704 l 547 543 l 432 603 l 456 644 q 510 792 510 740 q 432 889 510 844 z "},"ľ":{"ha":501,"x_min":69,"x_max":599,"o":"m 286 11 l 69 -11 l 69 972 l 286 994 l 286 11 m 351 936 l 507 1036 q 599 879 599 976 q 581 793 599 835 q 515 672 563 751 l 467 590 l 351 650 l 375 692 q 429 839 429 788 q 351 936 429 892 z "},"Ł":{"ha":625,"x_min":6,"x_max":631,"o":"m 6 231 l 6 442 l 74 479 l 74 953 l 318 975 l 318 611 l 469 694 l 469 483 l 318 400 l 318 217 l 631 217 l 568 0 l 74 0 l 74 268 l 6 231 z "},"ł":{"ha":386,"x_min":0,"x_max":386,"o":"m 0 276 l 0 443 l 85 503 l 85 968 l 301 990 l 301 657 l 386 718 l 386 550 l 301 490 l 301 11 l 85 -11 l 85 336 l 0 276 z "},"Ń":{"ha":993,"x_min":74,"x_max":919,"o":"m 318 497 l 318 11 l 74 -11 l 74 1019 l 675 471 l 675 953 l 919 975 l 919 -56 l 318 497 m 658 1331 l 718 1213 l 371 1056 l 331 1146 l 658 1331 z "},"ń":{"ha":725,"x_min":61,"x_max":664,"o":"m 61 -11 l 61 706 l 263 726 l 263 625 q 313 688 283 663 q 372 724 342 714 q 418 736 401 733 q 447 739 435 739 q 601 676 538 739 q 664 497 664 614 l 664 11 l 447 -11 l 447 458 q 426 516 447 494 q 372 538 404 538 q 306 509 335 538 q 278 426 278 481 l 278 11 l 61 -11 m 528 1068 l 588 950 l 240 793 l 200 883 l 528 1068 z "},"Ņ":{"ha":993,"x_min":74,"x_max":919,"o":"m 318 497 l 318 11 l 74 -11 l 74 1019 l 675 471 l 675 953 l 919 975 l 919 -56 l 318 497 m 372 -115 l 528 -15 q 619 -172 619 -75 q 601 -258 619 -217 q 536 -379 583 -300 l 488 -461 l 372 -401 l 396 -360 q 450 -212 450 -264 q 372 -115 450 -160 z "},"ņ":{"ha":725,"x_min":61,"x_max":664,"o":"m 61 -11 l 61 706 l 263 726 l 263 625 q 313 688 283 663 q 372 724 342 714 q 418 736 401 733 q 447 739 435 739 q 601 676 538 739 q 664 497 664 614 l 664 11 l 447 -11 l 447 458 q 426 516 447 494 q 372 538 404 538 q 306 509 335 538 q 278 426 278 481 l 278 11 l 61 -11 m 239 -115 l 394 -15 q 486 -172 486 -75 q 468 -258 486 -217 q 403 -379 450 -300 l 354 -461 l 239 -401 l 263 -360 q 317 -212 317 -264 q 239 -115 317 -160 z "},"Ň":{"ha":993,"x_min":74,"x_max":919,"o":"m 318 497 l 318 11 l 74 -11 l 74 1019 l 675 471 l 675 953 l 919 975 l 919 -56 l 318 497 m 496 1188 l 626 1282 l 757 1267 l 496 1056 l 235 1267 l 365 1282 l 496 1188 z "},"ň":{"ha":725,"x_min":61,"x_max":664,"o":"m 61 -11 l 61 706 l 263 726 l 263 625 q 313 688 283 663 q 372 724 342 714 q 418 736 401 733 q 447 739 435 739 q 601 676 538 739 q 664 497 664 614 l 664 11 l 447 -11 l 447 458 q 426 516 447 494 q 372 538 404 538 q 306 509 335 538 q 278 426 278 481 l 278 11 l 61 -11 m 363 925 l 493 1019 l 624 1004 l 363 793 l 101 1004 l 232 1019 l 363 925 z "},"Ō":{"ha":1108,"x_min":32,"x_max":1076,"o":"m 185 123 q 108 195 185 123 q 32 476 32 268 q 185 830 32 685 q 554 975 338 975 q 924 830 771 975 q 1076 476 1076 685 q 924 123 1076 268 q 554 -22 771 -22 q 185 123 338 -22 m 358 676 q 317 635 358 676 q 276 476 276 594 q 358 276 276 358 q 554 194 439 194 q 751 276 669 194 q 832 476 832 358 q 751 676 832 594 q 554 758 669 758 q 358 676 439 758 m 810 1056 l 304 1056 l 304 1174 l 810 1174 l 810 1056 z "},"ō":{"ha":838,"x_min":29,"x_max":808,"o":"m 418 -22 q 145 88 261 -22 q 29 358 29 197 q 145 629 29 519 q 418 739 261 739 q 693 629 578 739 q 808 358 808 519 q 693 88 808 197 q 418 -22 578 -22 m 297 486 q 271 460 297 486 q 246 358 246 433 q 297 231 246 283 q 418 178 347 178 q 540 231 489 178 q 592 358 592 283 q 540 486 592 433 q 418 539 489 539 q 297 486 347 539 m 669 793 l 164 793 l 164 911 l 669 911 l 669 793 z "},"Ŏ":{"ha":1108,"x_min":32,"x_max":1076,"o":"m 185 123 q 108 195 185 123 q 32 476 32 268 q 185 830 32 685 q 554 975 338 975 q 924 830 771 975 q 1076 476 1076 685 q 924 123 1076 268 q 554 -22 771 -22 q 185 123 338 -22 m 358 676 q 317 635 358 676 q 276 476 276 594 q 358 276 276 358 q 554 194 439 194 q 751 276 669 194 q 832 476 832 358 q 751 676 832 594 q 554 758 669 758 q 358 676 439 758 m 694 1274 l 800 1251 q 720 1106 788 1157 q 557 1056 653 1056 q 394 1106 461 1056 q 314 1251 326 1157 l 419 1274 q 463 1199 424 1225 q 557 1172 503 1172 q 651 1199 611 1172 q 694 1274 690 1225 z "},"ŏ":{"ha":838,"x_min":29,"x_max":808,"o":"m 418 -22 q 145 88 261 -22 q 29 358 29 197 q 145 629 29 519 q 418 739 261 739 q 693 629 578 739 q 808 358 808 519 q 693 88 808 197 q 418 -22 578 -22 m 297 486 q 271 460 297 486 q 246 358 246 433 q 297 231 246 283 q 418 178 347 178 q 540 231 489 178 q 592 358 592 283 q 540 486 592 433 q 418 539 489 539 q 297 486 347 539 m 546 1000 l 646 979 q 594 864 638 908 q 507 806 551 819 q 415 793 463 793 q 324 806 368 793 q 236 864 279 819 q 185 979 193 908 l 285 1000 q 325 928 288 953 q 415 904 363 904 q 506 928 468 904 q 546 1000 543 953 z "},"Ő":{"ha":1108,"x_min":32,"x_max":1076,"o":"m 185 123 q 108 195 185 123 q 32 476 32 268 q 185 830 32 685 q 554 975 338 975 q 924 830 771 975 q 1076 476 1076 685 q 924 123 1076 268 q 554 -22 771 -22 q 185 123 338 -22 m 358 676 q 317 635 358 676 q 276 476 276 594 q 358 276 276 358 q 554 194 439 194 q 751 276 669 194 q 832 476 832 358 q 751 676 832 594 q 554 758 669 758 q 358 676 439 758 m 343 1138 l 636 1369 l 713 1263 l 394 1056 l 343 1138 m 640 1138 l 933 1369 l 1010 1263 l 693 1056 l 640 1138 z "},"ő":{"ha":838,"x_min":29,"x_max":808,"o":"m 418 -22 q 145 88 261 -22 q 29 358 29 197 q 145 629 29 519 q 418 739 261 739 q 693 629 578 739 q 808 358 808 519 q 693 88 808 197 q 418 -22 578 -22 m 297 486 q 271 460 297 486 q 246 358 246 433 q 297 231 246 283 q 418 178 347 178 q 540 231 489 178 q 592 358 592 283 q 540 486 592 433 q 418 539 489 539 q 297 486 347 539 m 169 871 l 449 1092 l 522 990 l 219 793 l 169 871 m 453 871 l 732 1092 l 806 990 l 503 793 l 453 871 z "},"Œ":{"ha":1485,"x_min":33,"x_max":1451,"o":"m 833 0 l 833 68 q 556 -22 715 -22 q 186 124 339 -22 q 33 476 33 271 q 186 828 33 682 q 556 975 339 975 q 833 885 715 975 l 833 953 l 1371 953 l 1422 751 l 1078 751 l 1078 586 l 1324 586 l 1324 385 l 1078 385 l 1078 201 l 1451 201 l 1393 0 l 833 0 m 359 676 q 318 635 359 676 q 278 476 278 594 q 359 276 278 358 q 556 194 440 194 q 752 276 671 194 q 833 476 833 358 q 752 676 833 594 q 556 758 671 758 q 359 676 440 758 z "},"œ":{"ha":1389,"x_min":33,"x_max":1356,"o":"m 1356 518 l 883 219 q 1004 172 933 172 q 1218 247 1114 172 l 1325 89 q 1011 -22 1176 -22 q 726 86 840 -22 q 453 -22 614 -22 q 154 82 275 -22 q 33 350 33 186 q 151 628 33 517 q 433 739 268 739 q 728 631 611 739 q 1000 739 838 739 q 1200 683 1101 739 q 1356 518 1299 626 m 303 485 q 277 458 303 485 q 250 358 250 432 q 303 232 250 285 q 431 179 357 179 q 556 232 503 179 q 610 358 610 285 q 556 485 610 432 q 431 538 503 538 q 303 485 357 538 m 818 364 l 1092 532 q 999 558 1058 558 q 875 504 931 558 q 818 364 819 450 z "},"Ŕ":{"ha":822,"x_min":74,"x_max":857,"o":"m 74 -11 l 74 953 q 349 961 226 961 q 531 938 453 961 q 650 883 610 915 q 715 806 690 851 q 745 727 739 761 q 751 656 751 693 q 708 516 751 578 q 593 424 664 454 l 857 64 l 614 -22 l 318 439 l 318 11 l 74 -11 m 318 744 l 318 493 l 358 493 q 468 533 429 493 q 507 628 507 572 q 468 713 507 682 q 364 744 429 744 l 318 744 m 572 1331 l 632 1213 l 285 1056 l 244 1146 l 572 1331 z "},"ŕ":{"ha":503,"x_min":61,"x_max":521,"o":"m 61 -10 l 61 706 l 257 726 l 257 592 q 483 739 300 739 q 521 738 508 739 l 453 508 q 410 513 432 513 q 317 474 356 513 q 278 360 278 435 l 278 11 l 61 -10 m 417 1068 l 476 950 l 129 793 l 89 883 l 417 1068 z "},"Ŗ":{"ha":822,"x_min":74,"x_max":857,"o":"m 74 -11 l 74 953 q 349 961 226 961 q 531 938 453 961 q 650 883 610 915 q 715 806 690 851 q 745 727 739 761 q 751 656 751 693 q 708 516 751 578 q 593 424 664 454 l 857 64 l 614 -22 l 318 439 l 318 11 l 74 -11 m 318 744 l 318 493 l 358 493 q 468 533 429 493 q 507 628 507 572 q 468 713 507 682 q 364 744 429 744 l 318 744 m 288 -115 l 443 -15 q 535 -172 535 -75 q 517 -258 535 -217 q 451 -379 499 -300 l 403 -461 l 288 -401 l 311 -360 q 365 -212 365 -264 q 288 -115 365 -160 z "},"ŗ":{"ha":503,"x_min":61,"x_max":521,"o":"m 61 -10 l 61 706 l 257 726 l 257 592 q 483 739 300 739 q 521 738 508 739 l 453 508 q 410 513 432 513 q 317 474 356 513 q 278 360 278 435 l 278 11 l 61 -10 m 79 -149 l 235 -49 q 326 -206 326 -108 q 308 -292 326 -250 q 243 -412 290 -333 l 194 -494 l 79 -435 l 103 -393 q 157 -246 157 -297 q 79 -149 157 -193 z "},"Ř":{"ha":822,"x_min":74,"x_max":857,"o":"m 74 -11 l 74 953 q 349 961 226 961 q 531 938 453 961 q 650 883 610 915 q 715 806 690 851 q 745 727 739 761 q 751 656 751 693 q 708 516 751 578 q 593 424 664 454 l 857 64 l 614 -22 l 318 439 l 318 11 l 74 -11 m 318 744 l 318 493 l 358 493 q 468 533 429 493 q 507 628 507 572 q 468 713 507 682 q 364 744 429 744 l 318 744 m 411 1188 l 542 1282 l 672 1267 l 411 1056 l 150 1267 l 281 1282 l 411 1188 z "},"ř":{"ha":503,"x_min":-81,"x_max":521,"o":"m 61 -10 l 61 706 l 257 726 l 257 592 q 483 739 300 739 q 521 738 508 739 l 453 508 q 410 513 432 513 q 317 474 356 513 q 278 360 278 435 l 278 11 l 61 -10 m 181 925 l 311 1019 l 442 1004 l 181 793 l -81 1004 l 50 1019 l 181 925 z "},"Ś":{"ha":761,"x_min":32,"x_max":722,"o":"m 713 861 l 576 697 q 407 774 500 774 q 331 749 356 774 q 307 694 307 724 q 326 648 307 665 q 378 617 344 631 q 465 585 410 603 q 557 551 521 568 q 626 507 593 535 q 722 296 722 425 q 628 69 722 160 q 372 -22 535 -22 q 32 108 163 -22 l 174 276 q 363 186 258 186 q 448 213 418 186 q 478 274 478 239 q 419 350 478 324 q 309 389 403 358 q 169 456 215 419 q 63 671 63 538 q 151 882 63 789 q 404 975 239 975 q 713 861 586 975 m 550 1331 l 610 1213 l 263 1056 l 222 1146 l 550 1331 z "},"ś":{"ha":628,"x_min":14,"x_max":600,"o":"m 576 635 l 450 510 q 326 558 394 558 q 273 544 290 558 q 256 513 256 531 q 259 495 256 503 q 271 481 263 488 q 287 471 279 475 q 308 464 294 467 q 330 459 322 461 q 353 455 338 457 q 374 451 369 453 q 517 399 467 435 q 600 226 600 339 q 522 51 600 125 q 296 -22 444 -22 q 14 82 138 -22 l 128 229 q 300 158 203 158 q 366 175 344 158 q 388 213 388 192 q 340 258 388 247 q 300 266 329 261 q 251 275 271 271 q 203 290 232 279 q 151 314 175 300 q 46 501 46 375 q 117 666 46 593 q 319 739 188 739 q 576 635 475 739 m 479 1068 l 539 950 l 192 793 l 151 883 l 479 1068 z "},"Ŝ":{"ha":761,"x_min":32,"x_max":722,"o":"m 713 861 l 576 697 q 407 774 500 774 q 331 749 356 774 q 307 694 307 724 q 326 648 307 665 q 378 617 344 631 q 465 585 410 603 q 557 551 521 568 q 626 507 593 535 q 722 296 722 425 q 628 69 722 160 q 372 -22 535 -22 q 32 108 163 -22 l 174 276 q 363 186 258 186 q 448 213 418 186 q 478 274 478 239 q 419 350 478 324 q 309 389 403 358 q 169 456 215 419 q 63 671 63 538 q 151 882 63 789 q 404 975 239 975 q 713 861 586 975 m 389 1150 l 258 1056 l 128 1071 l 389 1282 l 650 1071 l 519 1056 l 389 1150 z "},"ŝ":{"ha":628,"x_min":14,"x_max":600,"o":"m 576 635 l 450 510 q 326 558 394 558 q 273 544 290 558 q 256 513 256 531 q 259 495 256 503 q 271 481 263 488 q 287 471 279 475 q 308 464 294 467 q 330 459 322 461 q 353 455 338 457 q 374 451 369 453 q 517 399 467 435 q 600 226 600 339 q 522 51 600 125 q 296 -22 444 -22 q 14 82 138 -22 l 128 229 q 300 158 203 158 q 366 175 344 158 q 388 213 388 192 q 340 258 388 247 q 300 266 329 261 q 251 275 271 271 q 203 290 232 279 q 151 314 175 300 q 46 501 46 375 q 117 666 46 593 q 319 739 188 739 q 576 635 475 739 m 314 888 l 183 793 l 53 808 l 314 1019 l 575 808 l 444 793 l 314 888 z "},"Ş":{"ha":767,"x_min":38,"x_max":728,"o":"m 718 861 l 582 697 q 413 774 506 774 q 337 749 361 774 q 313 694 313 724 q 331 648 313 665 q 383 617 350 631 q 471 585 415 603 q 563 551 526 568 q 632 507 599 535 q 728 296 728 426 q 636 72 728 163 q 399 -21 544 -18 l 385 -60 l 401 -60 q 469 -90 442 -62 q 496 -165 496 -118 q 463 -244 496 -211 q 368 -276 429 -276 q 251 -242 304 -276 l 283 -172 q 364 -204 318 -204 q 401 -193 386 -204 q 417 -164 417 -182 q 405 -135 417 -146 q 375 -124 393 -124 q 344 -133 361 -124 l 297 -101 l 328 -19 q 38 108 156 -6 l 179 276 q 368 186 264 186 q 453 213 424 186 q 483 274 483 239 q 425 350 483 324 q 315 389 408 358 q 175 456 221 419 q 68 671 68 538 q 156 882 68 789 q 410 975 244 975 q 718 861 592 975 z "},"ş":{"ha":625,"x_min":14,"x_max":600,"o":"m 576 635 l 450 510 q 326 558 399 558 q 274 544 292 558 q 256 513 256 531 q 260 495 256 503 q 272 481 264 488 q 288 471 281 475 q 309 464 296 467 q 331 459 322 461 q 353 455 339 457 q 374 451 368 453 q 517 399 467 435 q 600 226 600 336 q 524 53 600 125 q 319 -22 447 -19 l 306 -60 l 322 -60 q 390 -90 363 -62 q 417 -165 417 -118 q 383 -244 417 -211 q 289 -276 350 -276 q 172 -242 225 -276 l 204 -172 q 285 -204 239 -204 q 322 -193 307 -204 q 338 -164 338 -182 q 326 -135 338 -146 q 296 -124 314 -124 q 265 -133 282 -124 l 218 -101 l 249 -19 q 14 82 115 -4 l 128 229 q 300 158 203 158 q 366 175 344 158 q 388 213 388 192 q 340 258 388 247 q 300 266 329 261 q 251 275 271 271 q 203 290 232 279 q 151 314 175 300 q 46 501 46 375 q 117 666 46 593 q 319 739 188 739 q 576 635 475 739 z "},"Š":{"ha":761,"x_min":32,"x_max":722,"o":"m 713 861 l 576 697 q 407 774 500 774 q 331 749 356 774 q 307 694 307 724 q 326 648 307 665 q 378 617 344 631 q 465 585 410 603 q 557 551 521 568 q 626 507 593 535 q 722 296 722 425 q 628 69 722 160 q 372 -22 535 -22 q 32 108 163 -22 l 174 276 q 363 186 258 186 q 448 213 418 186 q 478 274 478 239 q 419 350 478 324 q 309 389 403 358 q 169 456 215 419 q 63 671 63 538 q 151 882 63 789 q 404 975 239 975 q 713 861 586 975 m 389 1188 l 519 1282 l 650 1267 l 389 1056 l 128 1267 l 258 1282 l 389 1188 z "},"š":{"ha":628,"x_min":14,"x_max":600,"o":"m 576 635 l 450 510 q 326 558 394 558 q 273 544 290 558 q 256 513 256 531 q 259 495 256 503 q 271 481 263 488 q 287 471 279 475 q 308 464 294 467 q 330 459 322 461 q 353 455 338 457 q 374 451 369 453 q 517 399 467 435 q 600 226 600 339 q 522 51 600 125 q 296 -22 444 -22 q 14 82 138 -22 l 128 229 q 300 158 203 158 q 366 175 344 158 q 388 213 388 192 q 340 258 388 247 q 300 266 329 261 q 251 275 271 271 q 203 290 232 279 q 151 314 175 300 q 46 501 46 375 q 117 666 46 593 q 319 739 188 739 q 576 635 475 739 m 314 925 l 444 1019 l 575 1004 l 314 793 l 53 1004 l 183 1019 l 314 925 z "},"Ţ":{"ha":738,"x_min":-7,"x_max":726,"o":"m 56 953 l 726 953 l 726 736 l 492 736 l 492 11 l 247 -11 l 247 736 l -7 736 l 56 953 m 267 -128 l 308 -26 l 381 -26 l 354 -86 l 363 -86 q 437 -116 408 -86 q 465 -192 465 -146 q 432 -270 465 -237 q 338 -303 399 -303 q 221 -268 274 -303 l 253 -199 q 333 -231 288 -231 q 371 -219 356 -231 q 386 -190 386 -208 q 374 -161 386 -172 q 344 -150 363 -150 q 314 -160 331 -150 l 267 -128 z "},"ţ":{"ha":524,"x_min":-7,"x_max":533,"o":"m -7 503 l 50 704 l 121 704 l 121 843 l 338 932 l 338 704 l 481 704 l 481 503 l 338 503 l 338 290 q 447 189 338 189 q 533 199 482 189 l 469 -19 q 413 -22 450 -22 q 256 10 325 -22 q 149 112 178 46 q 121 274 121 178 l 121 503 l -7 503 m 260 -150 l 301 -49 l 374 -49 l 347 -108 l 356 -108 q 430 -138 401 -108 q 458 -214 458 -168 q 425 -292 458 -260 q 331 -325 392 -325 q 214 -290 267 -325 l 246 -221 q 326 -253 281 -253 q 364 -242 349 -253 q 379 -212 379 -231 q 367 -183 379 -194 q 338 -172 356 -172 q 307 -182 324 -172 l 260 -150 z "},"Ť":{"ha":738,"x_min":-7,"x_max":726,"o":"m 56 953 l 726 953 l 726 736 l 492 736 l 492 11 l 247 -11 l 247 736 l -7 736 l 56 953 m 353 1188 l 483 1282 l 614 1267 l 353 1056 l 92 1267 l 222 1282 l 353 1188 z "},"ť":{"ha":771,"x_min":-7,"x_max":824,"o":"m -7 503 l 50 704 l 121 704 l 121 843 l 338 932 l 338 704 l 481 704 l 481 503 l 338 503 l 338 290 q 447 189 338 189 q 533 199 482 189 l 469 -19 q 413 -22 450 -22 q 256 10 325 -22 q 149 112 178 46 q 121 274 121 178 l 121 503 l -7 503 m 576 908 l 732 1008 q 824 851 824 949 q 806 765 824 807 q 740 644 788 724 l 692 563 l 576 622 l 600 664 q 654 811 654 760 q 576 908 654 864 z "},"Ū":{"ha":919,"x_min":74,"x_max":846,"o":"m 318 975 l 318 356 q 359 231 318 268 q 460 194 400 194 q 560 231 519 194 q 601 356 601 268 l 601 953 l 846 975 l 846 293 q 748 69 846 160 q 460 -22 650 -22 q 172 69 269 -22 q 74 293 74 160 l 74 953 l 318 975 m 713 1056 l 207 1056 l 207 1174 l 713 1174 l 713 1056 z "},"ū":{"ha":725,"x_min":61,"x_max":664,"o":"m 664 11 l 463 -11 l 463 79 q 279 -22 397 -22 q 124 40 188 -22 q 61 221 61 101 l 61 706 l 278 728 l 278 257 q 301 196 278 214 q 356 178 325 178 q 418 205 389 178 q 447 289 447 232 l 447 706 l 664 728 l 664 11 m 615 793 l 110 793 l 110 911 l 615 911 l 615 793 z "},"Ŭ":{"ha":919,"x_min":74,"x_max":846,"o":"m 318 975 l 318 356 q 359 231 318 268 q 460 194 400 194 q 560 231 519 194 q 601 356 601 268 l 601 953 l 846 975 l 846 293 q 748 69 846 160 q 460 -22 650 -22 q 172 69 269 -22 q 74 293 74 160 l 74 953 l 318 975 m 597 1274 l 703 1251 q 623 1106 690 1157 q 460 1056 556 1056 q 297 1106 364 1056 q 217 1251 229 1157 l 322 1274 q 366 1199 326 1225 q 460 1172 406 1172 q 553 1199 514 1172 q 597 1274 593 1225 z "},"ŭ":{"ha":725,"x_min":61,"x_max":664,"o":"m 664 11 l 463 -11 l 463 79 q 279 -22 397 -22 q 124 40 188 -22 q 61 221 61 101 l 61 706 l 278 728 l 278 257 q 301 196 278 214 q 356 178 325 178 q 418 205 389 178 q 447 289 447 232 l 447 706 l 664 728 l 664 11 m 493 1000 l 593 979 q 542 864 585 908 q 454 806 499 819 q 363 793 410 793 q 271 806 315 793 q 183 864 226 819 q 132 979 140 908 l 232 1000 q 272 928 235 953 q 363 904 310 904 q 453 928 415 904 q 493 1000 490 953 z "},"Ů":{"ha":919,"x_min":74,"x_max":846,"o":"m 318 975 l 318 356 q 359 231 318 268 q 460 194 400 194 q 560 231 519 194 q 601 356 601 268 l 601 953 l 846 975 l 846 293 q 748 69 846 160 q 460 -22 650 -22 q 172 69 269 -22 q 74 293 74 160 l 74 953 l 318 975 m 368 1094 q 349 1114 368 1094 q 329 1186 329 1133 q 368 1278 329 1239 q 460 1317 407 1317 q 551 1278 513 1317 q 590 1186 590 1239 q 551 1094 590 1133 q 460 1056 513 1056 q 368 1094 407 1056 m 433 1213 q 427 1207 433 1213 q 421 1186 421 1201 q 433 1159 421 1171 q 460 1147 444 1147 q 487 1159 475 1147 q 499 1186 499 1171 q 487 1213 499 1201 q 460 1225 475 1225 q 433 1213 444 1225 z "},"ů":{"ha":725,"x_min":61,"x_max":664,"o":"m 664 11 l 463 -11 l 463 79 q 279 -22 397 -22 q 124 40 188 -22 q 61 221 61 101 l 61 706 l 278 728 l 278 257 q 301 196 278 214 q 356 178 325 178 q 418 205 389 178 q 447 289 447 232 l 447 706 l 664 728 l 664 11 m 271 832 q 251 851 271 832 q 232 924 232 871 q 271 1015 232 976 q 363 1054 310 1054 q 454 1015 415 1054 q 493 924 493 976 q 454 832 493 871 q 363 793 415 793 q 271 832 310 793 m 335 951 q 330 945 335 951 q 324 924 324 939 q 335 897 324 908 q 363 885 347 885 q 390 897 378 885 q 401 924 401 908 q 390 951 401 939 q 363 963 378 963 q 335 951 347 963 z "},"Ű":{"ha":919,"x_min":74,"x_max":900,"o":"m 318 975 l 318 356 q 359 231 318 268 q 460 194 400 194 q 560 231 519 194 q 601 356 601 268 l 601 953 l 846 975 l 846 293 q 748 69 846 160 q 460 -22 650 -22 q 172 69 269 -22 q 74 293 74 160 l 74 953 l 318 975 m 233 1138 l 526 1369 l 603 1263 l 285 1056 l 233 1138 m 531 1138 l 824 1369 l 900 1263 l 583 1056 l 531 1138 z "},"ű":{"ha":725,"x_min":61,"x_max":756,"o":"m 664 11 l 463 -11 l 463 79 q 279 -22 397 -22 q 124 40 188 -22 q 61 221 61 101 l 61 706 l 278 728 l 278 257 q 301 196 278 214 q 356 178 325 178 q 418 205 389 178 q 447 289 447 232 l 447 706 l 664 728 l 664 11 m 119 871 l 399 1092 l 472 990 l 169 793 l 119 871 m 403 871 l 682 1092 l 756 990 l 453 793 l 403 871 z "},"Ų":{"ha":919,"x_min":74,"x_max":846,"o":"m 318 975 l 318 356 q 359 231 318 268 q 460 194 400 194 q 560 231 519 194 q 601 356 601 268 l 601 949 l 846 975 l 846 293 q 817 160 846 219 q 742 65 789 100 q 645 9 696 29 q 542 -17 594 -11 q 397 -162 397 -107 q 411 -192 397 -179 q 453 -206 425 -206 q 547 -179 500 -206 l 571 -254 q 444 -283 513 -283 q 343 -249 378 -283 q 308 -169 308 -214 q 411 -21 308 -82 q 320 -6 365 -18 q 230 30 275 6 q 151 89 185 54 q 95 176 117 124 q 74 293 74 229 l 74 949 l 318 975 z "},"ų":{"ha":726,"x_min":61,"x_max":665,"o":"m 664 728 l 664 11 q 533 -83 575 -44 q 492 -156 492 -122 q 506 -185 492 -172 q 547 -199 519 -199 q 642 -172 594 -199 l 665 -247 q 539 -276 607 -276 q 438 -242 472 -276 q 403 -162 403 -207 q 431 -78 403 -114 q 517 -4 460 -43 l 463 -11 l 463 79 q 279 -22 397 -22 q 124 40 188 -22 q 61 221 61 101 l 61 706 l 278 728 l 278 257 q 301 196 278 214 q 356 178 325 178 q 418 205 389 178 q 447 289 447 232 l 447 706 l 664 728 z "},"Ÿ":{"ha":850,"x_min":-21,"x_max":874,"o":"m -21 906 l 224 983 l 472 576 l 643 983 l 874 906 l 450 -22 l 186 11 l 351 332 l -21 906 m 139 1168 l 251 1269 l 357 1157 l 244 1056 l 139 1168 m 418 1168 l 531 1269 l 636 1157 l 524 1056 l 418 1168 z "},"Ź":{"ha":849,"x_min":-18,"x_max":842,"o":"m 97 953 l 840 953 l 394 217 l 842 217 l 788 0 l -18 0 l 428 736 l 49 736 l 97 953 m 586 1331 l 646 1213 l 299 1056 l 258 1146 l 586 1331 z "},"ź":{"ha":665,"x_min":7,"x_max":656,"o":"m 7 0 l 292 519 l 57 519 l 104 717 l 639 717 l 358 204 l 656 204 l 604 0 l 7 0 m 501 1068 l 561 950 l 214 793 l 174 883 l 501 1068 z "},"Ż":{"ha":849,"x_min":-18,"x_max":842,"o":"m 97 953 l 840 953 l 394 217 l 842 217 l 788 0 l -18 0 l 428 736 l 49 736 l 97 953 m 451 1056 l 333 1174 l 449 1290 l 567 1174 l 451 1056 z "},"ż":{"ha":665,"x_min":7,"x_max":656,"o":"m 7 0 l 292 519 l 57 519 l 104 717 l 639 717 l 358 204 l 656 204 l 604 0 l 7 0 m 346 793 l 228 911 l 343 1028 l 461 911 l 346 793 z "},"Ž":{"ha":849,"x_min":-18,"x_max":842,"o":"m 97 953 l 840 953 l 394 217 l 842 217 l 788 0 l -18 0 l 428 736 l 49 736 l 97 953 m 424 1188 l 554 1282 l 685 1267 l 424 1056 l 163 1267 l 293 1282 l 424 1188 z "},"ž":{"ha":665,"x_min":7,"x_max":656,"o":"m 7 0 l 292 519 l 57 519 l 104 717 l 639 717 l 358 204 l 656 204 l 604 0 l 7 0 m 336 925 l 467 1019 l 597 1004 l 336 793 l 75 1004 l 206 1019 l 336 925 z "},"ƒ":{"ha":771,"x_min":13,"x_max":756,"o":"m 13 -225 l 57 -26 q 122 -46 86 -46 q 217 0 193 -46 q 253 146 242 46 l 283 422 l 125 422 l 125 603 l 303 603 l 317 711 q 372 883 329 808 q 615 1010 446 1010 q 756 978 669 1010 l 717 779 q 640 800 679 800 q 524 656 542 800 l 517 603 l 683 603 l 683 422 l 500 422 l 486 279 q 446 -18 467 63 q 394 -139 428 -89 q 319 -212 361 -189 q 239 -246 276 -236 q 161 -256 201 -256 q 13 -225 82 -256 z "},"Ǐ":{"ha":392,"x_min":-65,"x_max":457,"o":"m 74 953 l 318 975 l 318 11 l 74 -11 l 74 953 m 196 1188 l 326 1282 l 457 1267 l 196 1056 l -65 1267 l 65 1282 l 196 1188 z "},"ǐ":{"ha":386,"x_min":-68,"x_max":454,"o":"m 301 728 l 301 11 l 85 -11 l 85 706 l 301 728 m 193 925 l 324 1019 l 454 1004 l 193 793 l -68 1004 l 63 1019 l 193 925 z "},"Ș":{"ha":761,"x_min":32,"x_max":722,"o":"m 713 861 l 576 697 q 407 774 500 774 q 331 749 356 774 q 307 694 307 724 q 326 648 307 665 q 378 617 344 631 q 465 585 410 603 q 557 551 521 568 q 626 507 593 535 q 722 296 722 425 q 628 69 722 160 q 372 -22 535 -22 q 32 108 163 -22 l 174 276 q 363 186 258 186 q 448 213 418 186 q 478 274 478 239 q 419 350 478 324 q 309 389 403 358 q 169 456 215 419 q 63 671 63 538 q 151 882 63 789 q 404 975 239 975 q 713 861 586 975 m 257 -142 l 413 -42 q 504 -199 504 -101 q 486 -285 504 -243 q 421 -406 468 -326 l 372 -487 l 257 -428 l 281 -386 q 335 -239 335 -290 q 257 -142 335 -186 z "},"ș":{"ha":628,"x_min":14,"x_max":600,"o":"m 576 635 l 450 510 q 326 558 394 558 q 273 544 290 558 q 256 513 256 531 q 259 495 256 503 q 271 481 263 488 q 287 471 279 475 q 308 464 294 467 q 330 459 322 461 q 353 455 338 457 q 374 451 369 453 q 517 399 467 435 q 600 226 600 339 q 522 51 600 125 q 296 -22 444 -22 q 14 82 138 -22 l 128 229 q 300 158 203 158 q 366 175 344 158 q 388 213 388 192 q 340 258 388 247 q 300 266 329 261 q 251 275 271 271 q 203 290 232 279 q 151 314 175 300 q 46 501 46 375 q 117 666 46 593 q 319 739 188 739 q 576 635 475 739 m 190 -164 l 346 -64 q 438 -221 438 -124 q 419 -307 438 -265 q 354 -428 401 -349 l 306 -510 l 190 -450 l 214 -408 q 268 -261 268 -312 q 190 -164 268 -208 z "},"Ț":{"ha":738,"x_min":-7,"x_max":726,"o":"m 56 953 l 726 953 l 726 736 l 492 736 l 492 11 l 247 -11 l 247 736 l -7 736 l 56 953 m 244 -142 l 400 -42 q 492 -199 492 -101 q 474 -285 492 -243 q 408 -406 456 -326 l 360 -487 l 244 -428 l 268 -386 q 322 -239 322 -290 q 244 -142 322 -186 z "},"ț":{"ha":524,"x_min":-7,"x_max":533,"o":"m -7 503 l 50 704 l 121 704 l 121 843 l 338 932 l 338 704 l 481 704 l 481 503 l 338 503 l 338 290 q 447 189 338 189 q 533 199 482 189 l 469 -19 q 413 -22 450 -22 q 256 10 325 -22 q 149 112 178 46 q 121 274 121 178 l 121 503 l -7 503 m 158 -164 l 314 -64 q 406 -221 406 -124 q 388 -307 406 -265 q 322 -428 369 -349 l 274 -510 l 158 -450 l 182 -408 q 236 -261 236 -312 q 158 -164 236 -208 z "},"ʼ":{"ha":314,"x_min":33,"x_max":281,"o":"m 33 917 l 189 1017 q 281 860 281 957 q 263 774 281 815 q 197 653 244 732 l 149 571 l 33 631 l 57 672 q 111 819 111 768 q 33 917 111 872 z "},"ˆ":{"ha":606,"x_min":42,"x_max":564,"o":"m 303 888 l 172 793 l 42 808 l 303 1019 l 564 808 l 433 793 l 303 888 z "},"ˇ":{"ha":606,"x_min":42,"x_max":564,"o":"m 303 925 l 433 1019 l 564 1004 l 303 793 l 42 1004 l 172 1019 l 303 925 z "},"˘":{"ha":544,"x_min":42,"x_max":503,"o":"m 403 1000 l 503 979 q 451 864 494 908 q 364 806 408 819 q 272 793 319 793 q 181 806 225 793 q 93 864 136 819 q 42 979 50 908 l 142 1000 q 182 928 144 953 q 272 904 219 904 q 363 928 325 904 q 403 1000 400 953 z "},"˙":{"ha":386,"x_min":76,"x_max":310,"o":"m 194 793 l 76 911 l 192 1028 l 310 911 l 194 793 z "},"˚":{"ha":344,"x_min":42,"x_max":303,"o":"m 81 832 q 61 851 81 832 q 42 924 42 871 q 81 1015 42 976 q 172 1054 119 1054 q 264 1015 225 1054 q 303 924 303 976 q 264 832 303 871 q 172 793 225 793 q 81 832 119 793 m 145 951 q 139 945 145 951 q 133 924 133 939 q 145 897 133 908 q 172 885 157 885 q 199 897 188 885 q 211 924 211 908 q 199 951 211 939 q 172 963 188 963 q 145 951 157 963 z "},"˛":{"ha":290,"x_min":38,"x_max":300,"o":"m 276 -179 l 300 -254 q 174 -283 242 -283 q 72 -249 107 -283 q 38 -169 38 -214 q 172 0 38 -75 l 299 0 q 126 -162 126 -100 q 140 -192 126 -179 q 182 -206 154 -206 q 276 -179 229 -206 z "},"˜":{"ha":644,"x_min":42,"x_max":603,"o":"m 125 801 l 42 886 q 213 960 118 960 q 322 939 265 960 q 429 911 406 911 q 522 951 476 911 l 603 871 q 438 793 525 793 q 322 818 390 793 q 222 842 258 842 q 125 801 174 842 z "},"˝":{"ha":650,"x_min":83,"x_max":719,"o":"m 83 871 l 363 1092 l 436 990 l 133 793 l 83 871 m 367 871 l 646 1092 l 719 990 l 417 793 l 367 871 z "},"̓":{"ha":314,"x_min":33,"x_max":281,"o":"m 33 917 l 189 1017 q 281 860 281 957 q 263 774 281 815 q 197 653 244 732 l 149 571 l 33 631 l 57 672 q 111 819 111 768 q 33 917 111 872 z "},"̕":{"ha":314,"x_min":33,"x_max":281,"o":"m 33 917 l 189 1017 q 281 860 281 957 q 263 774 281 815 q 197 653 244 732 l 149 571 l 33 631 l 57 672 q 111 819 111 768 q 33 917 111 872 z "},"̦":{"ha":322,"x_min":38,"x_max":285,"o":"m 38 -115 l 193 -15 q 285 -172 285 -75 q 267 -258 285 -217 q 201 -379 249 -300 l 153 -461 l 38 -401 l 61 -360 q 115 -212 115 -264 q 38 -115 115 -160 z "},"Δ":{"ha":931,"x_min":-14,"x_max":944,"o":"m 944 0 l -14 0 l 465 1019 l 944 0 m 317 194 l 603 194 l 458 525 l 317 194 z "},"Ω":{"ha":1064,"x_min":28,"x_max":1036,"o":"m 594 0 l 594 344 q 735 410 685 349 q 786 550 786 471 q 719 698 786 638 q 532 758 653 758 q 344 698 411 758 q 278 550 278 638 q 328 410 278 471 q 469 344 379 349 l 469 0 l 75 0 l 28 217 l 253 217 l 253 256 q 91 376 149 292 q 33 569 33 461 q 60 713 33 644 q 144 842 88 782 q 300 939 200 903 q 532 975 400 975 q 764 939 664 975 q 920 842 864 903 q 1003 713 976 782 q 1031 569 1031 644 q 973 376 1031 461 q 811 256 915 292 l 811 217 l 1036 217 l 989 0 l 594 0 z "},"π":{"ha":778,"x_min":14,"x_max":764,"o":"m 47 717 l 764 717 l 764 517 l 682 517 l 682 11 l 465 -11 l 465 517 l 313 517 l 313 11 l 96 -11 l 96 517 l 14 517 l 47 717 z "},"Ё":{"ha":724,"x_min":74,"x_max":692,"o":"m 74 953 l 611 953 l 663 751 l 318 751 l 318 586 l 564 586 l 564 385 l 318 385 l 318 201 l 692 201 l 633 0 l 74 0 l 74 953 m 207 1232 l 338 1128 l 221 1001 l 92 1104 l 207 1232 m 496 1232 l 626 1128 l 510 1001 l 381 1104 l 496 1232 z "},"Ђ":{"ha":957,"x_min":-15,"x_max":915,"o":"m 657 953 l 657 735 l 440 735 l 440 560 q 604 590 529 590 q 830 508 744 590 q 915 282 915 425 q 843 67 915 156 q 631 -22 771 -22 q 513 0 576 -22 l 493 193 q 572 172 531 172 q 643 201 615 172 q 671 279 671 231 q 639 365 671 335 q 550 396 607 396 q 440 369 496 396 l 440 11 l 196 -11 l 196 735 l -15 735 l 35 953 l 657 953 z "},"Ѓ":{"ha":639,"x_min":74,"x_max":635,"o":"m 74 953 l 574 953 l 635 736 l 318 736 l 318 11 l 74 -11 l 74 953 m 479 1331 l 539 1213 l 192 1056 l 151 1146 l 479 1331 z "},"Є":{"ha":853,"x_min":32,"x_max":818,"o":"m 618 385 l 283 385 q 369 240 301 293 q 526 186 438 186 q 707 246 622 186 l 818 71 q 533 -22 690 -22 q 169 119 306 -22 q 32 471 32 260 q 174 831 32 686 q 533 975 315 975 q 810 889 671 975 l 706 706 q 526 767 626 767 q 371 720 436 767 q 283 586 306 674 l 618 586 l 618 385 z "},"Ѕ":{"ha":761,"x_min":32,"x_max":722,"o":"m 713 861 l 576 697 q 407 774 500 774 q 331 749 356 774 q 307 694 307 724 q 326 648 307 665 q 378 617 344 631 q 465 585 410 603 q 557 551 521 568 q 626 507 593 535 q 722 296 722 425 q 628 69 722 160 q 372 -22 535 -22 q 32 108 163 -22 l 174 276 q 363 186 258 186 q 448 213 418 186 q 478 274 478 239 q 419 350 478 324 q 309 389 403 358 q 169 456 215 419 q 63 671 63 538 q 151 882 63 789 q 404 975 239 975 q 713 861 586 975 z "},"І":{"ha":392,"x_min":74,"x_max":318,"o":"m 74 953 l 318 975 l 318 11 l 74 -11 l 74 953 z "},"Ї":{"ha":392,"x_min":-179,"x_max":318,"o":"m 74 953 l 318 975 l 318 11 l 74 -11 l 74 953 m -179 1168 l -67 1269 l 39 1157 l -74 1056 l -179 1168 m 100 1168 l 213 1269 l 318 1157 l 206 1056 l 100 1168 z "},"Ј":{"ha":549,"x_min":-15,"x_max":475,"o":"m 231 953 l 475 975 l 475 335 q 385 75 475 172 q 129 -22 294 -22 q 42 -12 101 -22 l -15 224 q 97 207 42 207 q 162 220 135 207 q 202 250 189 233 q 222 295 215 267 q 230 340 229 324 q 231 382 231 356 l 231 953 z "},"Љ":{"ha":1233,"x_min":-21,"x_max":1206,"o":"m 672 0 l 447 522 l 222 -36 l -21 22 l 454 1019 l 640 629 l 746 629 q 905 615 833 629 q 1023 580 976 601 q 1104 528 1069 558 q 1158 467 1139 497 q 1188 403 1176 438 q 1203 345 1200 369 q 1206 297 1206 321 q 1188 193 1206 242 q 1127 99 1169 144 q 1002 26 1085 53 q 803 0 919 0 l 672 0 m 738 426 l 844 201 l 860 201 q 933 232 904 201 q 961 304 961 263 q 954 339 961 321 q 931 378 947 357 q 878 413 915 399 q 790 426 842 426 l 738 426 z "},"Њ":{"ha":1343,"x_min":74,"x_max":1315,"o":"m 872 975 l 872 628 l 947 628 q 1225 533 1135 628 q 1315 307 1315 438 q 1227 90 1315 179 q 983 0 1139 0 l 628 0 l 628 385 l 318 385 l 318 11 l 74 -11 l 74 953 l 318 975 l 318 601 l 628 601 l 628 953 l 872 975 m 872 426 l 872 201 l 929 201 q 1071 315 1071 201 q 1035 396 1071 365 q 939 426 1000 426 l 872 426 z "},"Ћ":{"ha":956,"x_min":-15,"x_max":914,"o":"m 665 953 l 665 735 l 440 735 l 440 560 q 625 590 540 590 q 758 568 701 590 q 844 517 815 546 q 890 446 872 488 q 910 376 907 404 q 914 319 914 349 l 914 11 l 669 -11 l 669 258 q 667 304 669 286 q 653 344 664 322 q 618 378 643 367 q 554 389 593 389 q 440 365 504 389 l 440 11 l 196 -11 l 196 735 l -15 735 l 35 953 l 665 953 z "},"Ќ":{"ha":864,"x_min":74,"x_max":893,"o":"m 318 975 l 318 544 l 325 544 l 643 975 l 882 911 l 569 499 l 893 42 l 638 -22 l 325 451 l 318 451 l 318 11 l 74 -11 l 74 953 l 318 975 m 593 1331 l 653 1213 l 306 1056 l 265 1146 l 593 1331 z "},"Ў":{"ha":850,"x_min":-21,"x_max":874,"o":"m -21 906 l 224 983 l 472 576 l 643 983 l 874 906 l 450 -22 l 186 11 l 351 332 l -21 906 m 563 1274 l 668 1251 q 588 1106 656 1157 q 425 1056 521 1056 q 262 1106 329 1056 q 182 1251 194 1157 l 288 1274 q 331 1199 292 1225 q 425 1172 371 1172 q 519 1199 479 1172 q 563 1274 558 1225 z "},"Џ":{"ha":928,"x_min":74,"x_max":854,"o":"m 854 0 l 581 0 l 581 -201 l 347 -224 l 347 0 l 74 0 l 74 953 l 318 975 l 318 217 l 610 217 l 610 953 l 854 975 l 854 0 z "},"А":{"ha":968,"x_min":-35,"x_max":1003,"o":"m 301 168 l 208 -36 l -35 22 l 489 1019 l 1003 22 l 757 -36 l 664 168 l 301 168 m 483 585 l 382 363 l 583 363 l 483 585 z "},"Б":{"ha":810,"x_min":74,"x_max":761,"o":"m 74 953 l 624 953 l 685 736 l 318 736 l 318 589 l 418 589 q 674 503 588 589 q 761 293 761 417 q 672 85 761 171 q 415 0 583 0 l 74 0 l 74 953 m 318 394 l 318 194 l 394 194 q 485 224 453 194 q 517 296 517 254 q 486 365 517 336 q 388 394 456 394 l 318 394 z "},"В":{"ha":825,"x_min":74,"x_max":769,"o":"m 74 0 l 74 951 q 346 961 293 961 q 514 949 451 961 q 686 856 629 924 q 743 701 743 788 q 710 578 743 631 q 618 501 676 526 l 618 496 q 731 410 692 469 q 769 272 769 351 q 683 74 769 149 q 460 0 597 0 l 74 0 m 318 576 l 386 576 q 471 607 443 576 q 499 678 499 638 q 467 741 499 715 q 388 767 436 767 l 318 767 l 318 576 m 318 194 l 399 194 q 497 225 468 194 q 526 294 526 256 q 496 364 526 333 q 397 394 465 394 l 318 394 l 318 194 z "},"Г":{"ha":639,"x_min":74,"x_max":635,"o":"m 74 953 l 574 953 l 635 736 l 318 736 l 318 11 l 74 -11 l 74 953 z "},"Д":{"ha":986,"x_min":14,"x_max":972,"o":"m 493 1019 l 871 217 l 972 217 l 972 -189 l 739 -211 l 739 0 l 247 0 l 247 -189 l 14 -211 l 14 217 l 115 217 l 493 1019 m 486 525 l 344 194 l 631 194 l 486 525 z "},"Е":{"ha":724,"x_min":74,"x_max":692,"o":"m 74 953 l 611 953 l 663 751 l 318 751 l 318 586 l 564 586 l 564 385 l 318 385 l 318 201 l 692 201 l 633 0 l 74 0 l 74 953 z "},"Ж":{"ha":1267,"x_min":-22,"x_max":1289,"o":"m 511 953 l 756 975 l 756 544 l 763 544 l 1018 975 l 1257 911 l 997 499 l 1289 42 l 1033 -22 l 763 451 l 756 451 l 756 11 l 511 -11 l 511 451 l 504 451 l 233 -22 l -22 42 l 269 499 l 10 911 l 249 975 l 504 544 l 511 544 l 511 953 z "},"З":{"ha":789,"x_min":29,"x_max":733,"o":"m 261 385 l 261 586 l 336 586 q 437 612 403 586 q 471 676 471 638 q 440 740 471 713 q 343 767 408 767 q 140 699 229 767 l 46 876 q 369 975 204 975 q 621 898 535 975 q 707 714 707 821 q 674 586 707 646 q 568 497 642 526 q 691 415 649 476 q 733 275 733 353 q 640 67 733 156 q 367 -22 546 -22 q 29 89 176 -22 l 136 261 q 339 186 236 186 q 451 215 413 186 q 489 288 489 244 q 339 385 489 385 l 261 385 z "},"И":{"ha":989,"x_min":74,"x_max":915,"o":"m 74 953 l 318 975 l 318 456 l 915 1019 l 915 11 l 671 -11 l 671 504 l 74 -56 l 74 953 z "},"Й":{"ha":989,"x_min":74,"x_max":915,"o":"m 74 953 l 318 975 l 318 456 l 915 1019 l 915 11 l 671 -11 l 671 504 l 74 -56 l 74 953 m 640 1204 l 761 1179 q 493 1004 701 1004 q 225 1179 285 1004 l 346 1204 q 493 1121 389 1121 q 640 1204 597 1121 z "},"К":{"ha":864,"x_min":74,"x_max":893,"o":"m 318 975 l 318 544 l 325 544 l 643 975 l 882 911 l 569 499 l 893 42 l 638 -22 l 325 451 l 318 451 l 318 11 l 74 -11 l 74 953 l 318 975 z "},"Л":{"ha":951,"x_min":-21,"x_max":972,"o":"m 471 557 l 222 -36 l -21 22 l 476 1019 l 972 22 l 726 -36 l 471 557 z "},"М":{"ha":1108,"x_min":-14,"x_max":1122,"o":"m 554 -51 l 311 431 l 232 -15 l -14 14 l 254 1019 l 554 389 l 876 1019 l 1122 14 l 886 -17 l 799 440 l 554 -51 z "},"Н":{"ha":951,"x_min":74,"x_max":878,"o":"m 74 953 l 318 975 l 318 601 l 633 601 l 633 953 l 878 975 l 878 11 l 633 -11 l 633 385 l 318 385 l 318 11 l 74 -11 l 74 953 z "},"О":{"ha":1108,"x_min":32,"x_max":1076,"o":"m 185 123 q 108 195 185 123 q 32 476 32 268 q 185 830 32 685 q 554 975 338 975 q 924 830 771 975 q 1076 476 1076 685 q 924 123 1076 268 q 554 -22 771 -22 q 185 123 338 -22 m 358 676 q 317 635 358 676 q 276 476 276 594 q 358 276 276 358 q 554 194 439 194 q 751 276 669 194 q 832 476 832 358 q 751 676 832 594 q 554 758 669 758 q 358 676 439 758 z "},"П":{"ha":926,"x_min":74,"x_max":853,"o":"m 74 953 l 853 953 l 853 11 l 608 -11 l 608 736 l 318 736 l 318 11 l 74 -11 l 74 953 z "},"Р":{"ha":786,"x_min":74,"x_max":758,"o":"m 74 -11 l 74 951 q 376 961 217 961 q 553 935 478 961 q 667 876 629 910 q 726 794 704 842 q 753 715 749 746 q 758 654 758 685 q 670 444 758 533 q 421 356 582 356 l 318 356 l 318 11 l 74 -11 m 318 760 l 318 550 l 396 550 q 485 583 457 550 q 514 658 514 617 q 480 731 514 701 q 392 760 446 760 l 318 760 z "},"С":{"ha":785,"x_min":32,"x_max":750,"o":"m 710 950 l 750 683 q 550 758 658 758 q 355 676 433 758 q 276 474 276 593 q 356 275 276 356 q 549 194 435 194 q 747 263 660 194 l 708 8 q 517 -22 610 -22 q 174 124 317 -22 q 32 469 32 269 q 63 642 32 556 q 152 805 93 729 q 310 928 211 881 q 531 975 408 975 q 710 950 626 975 z "},"Т":{"ha":738,"x_min":-7,"x_max":726,"o":"m 56 953 l 726 953 l 726 736 l 492 736 l 492 11 l 247 -11 l 247 736 l -7 736 l 56 953 z "},"У":{"ha":850,"x_min":-21,"x_max":874,"o":"m -21 906 l 224 983 l 472 576 l 643 983 l 874 906 l 450 -22 l 186 11 l 351 332 l -21 906 z "},"Ф":{"ha":1169,"x_min":32,"x_max":1138,"o":"m 463 -94 l 463 68 q 276 106 361 69 q 140 203 192 143 q 60 333 89 263 q 32 476 32 404 q 152 761 32 642 q 463 885 272 881 l 463 1018 l 707 1040 l 707 885 q 1020 756 903 879 q 1138 476 1138 632 q 1090 287 1138 378 q 941 133 1042 196 q 707 68 840 69 l 707 -72 l 463 -94 m 471 285 l 471 668 q 328 603 381 661 q 276 476 276 544 q 329 349 276 408 q 471 285 382 289 m 699 668 l 699 285 q 840 349 788 289 q 893 476 893 408 q 838 606 893 550 q 699 668 783 663 z "},"Х":{"ha":849,"x_min":-18,"x_max":867,"o":"m 1 897 l 239 975 l 429 672 l 624 975 l 850 897 l 561 490 l 867 64 l 631 -22 l 424 294 l 213 -22 l -18 64 l 288 488 l 1 897 z "},"Ц":{"ha":978,"x_min":74,"x_max":950,"o":"m 599 953 l 843 975 l 843 217 l 950 217 l 950 -189 l 717 -211 l 717 0 l 74 0 l 74 953 l 318 975 l 318 217 l 599 217 l 599 953 z "},"Ч":{"ha":882,"x_min":56,"x_max":808,"o":"m 564 953 l 808 975 l 808 11 l 564 -11 l 564 339 q 367 315 451 315 q 221 337 282 315 q 128 388 160 358 q 80 464 97 417 q 59 546 63 511 q 56 631 56 581 l 56 953 l 300 975 l 300 663 q 303 612 300 631 q 319 572 307 593 q 358 542 331 551 q 429 532 385 532 q 564 556 496 532 l 564 953 z "},"Ш":{"ha":1350,"x_min":74,"x_max":1276,"o":"m 553 953 l 797 975 l 797 217 l 1032 217 l 1032 953 l 1276 975 l 1276 0 l 74 0 l 74 953 l 318 975 l 318 217 l 553 217 l 553 953 z "},"Щ":{"ha":1411,"x_min":74,"x_max":1383,"o":"m 553 953 l 797 975 l 797 217 l 1032 217 l 1032 953 l 1276 975 l 1276 217 l 1383 217 l 1383 -189 l 1150 -211 l 1150 0 l 74 0 l 74 953 l 318 975 l 318 217 l 553 217 l 553 953 z "},"Ъ":{"ha":924,"x_min":-7,"x_max":892,"o":"m 449 953 l 449 628 l 544 628 q 799 532 706 628 q 892 307 892 436 q 803 89 892 178 q 543 0 714 0 l 204 0 l 204 736 l -7 736 l 46 953 l 449 953 m 449 426 l 449 201 l 506 201 q 647 315 647 201 q 612 396 647 365 q 515 426 576 426 l 449 426 z "},"Ы":{"ha":1181,"x_min":74,"x_max":1107,"o":"m 863 953 l 1107 975 l 1107 11 l 863 -11 l 863 953 m 318 975 l 318 628 l 397 628 q 667 533 574 628 q 761 307 761 439 q 672 88 761 176 q 408 0 582 0 l 74 0 l 74 953 l 318 975 m 318 426 l 318 201 l 390 201 q 482 231 447 201 q 517 315 517 261 q 481 396 517 365 q 385 426 446 426 l 318 426 z "},"Ь":{"ha":793,"x_min":74,"x_max":761,"o":"m 318 975 l 318 628 l 404 628 q 668 533 575 628 q 761 307 761 439 q 745 208 761 257 q 692 110 729 160 q 580 31 656 61 q 400 0 504 0 l 74 0 l 74 953 l 318 975 m 318 426 l 318 201 l 375 201 q 517 315 517 201 q 481 396 517 365 q 385 426 446 426 l 318 426 z "},"Э":{"ha":853,"x_min":35,"x_max":821,"o":"m 235 388 l 235 583 l 569 583 q 487 715 549 664 q 326 767 425 767 q 147 706 226 767 l 43 889 q 329 975 181 975 q 680 832 539 975 q 821 471 821 689 q 791 297 821 382 q 704 138 761 211 q 552 21 647 65 q 340 -24 457 -24 q 35 71 164 -24 l 146 246 q 326 186 231 186 q 483 240 414 186 q 571 388 551 294 l 235 388 z "},"Ю":{"ha":1457,"x_min":74,"x_max":1425,"o":"m 318 601 l 401 601 q 592 876 450 778 q 903 975 733 975 q 1272 830 1119 975 q 1425 476 1425 685 q 1272 124 1425 269 q 903 -22 1119 -22 q 578 90 719 -22 q 401 385 438 201 l 318 385 l 318 11 l 74 -11 l 74 953 l 318 975 l 318 601 m 711 676 q 672 635 711 676 q 632 476 632 594 q 711 276 632 358 q 903 194 790 194 q 1099 277 1018 194 q 1181 476 1181 360 q 1099 676 1181 593 q 903 758 1018 758 q 711 676 790 758 z "},"Я":{"ha":843,"x_min":14,"x_max":769,"o":"m 769 953 l 769 11 l 525 -11 l 525 439 l 257 -22 l 14 64 l 250 424 q 135 516 179 454 q 92 656 92 578 q 100 735 92 697 q 133 815 108 772 q 199 889 158 858 q 313 940 240 919 q 481 961 386 961 q 769 953 631 961 m 525 493 l 525 744 l 479 744 q 375 713 414 744 q 336 628 336 682 q 375 533 336 572 q 485 493 414 493 l 525 493 z "},"а":{"ha":740,"x_min":31,"x_max":679,"o":"m 119 507 l 156 701 q 376 739 275 739 q 519 718 460 739 q 609 669 579 697 q 656 601 639 642 q 676 537 674 561 q 679 485 679 513 l 679 7 l 475 -15 l 475 58 q 296 -22 421 -22 q 105 47 179 -22 q 31 224 31 117 q 103 401 31 332 q 296 471 176 471 q 463 415 389 471 l 463 454 q 335 553 463 553 q 119 507 226 553 m 275 165 q 290 153 275 165 q 354 140 304 140 q 433 165 404 140 q 463 231 463 190 q 433 296 463 271 q 354 321 404 321 q 276 297 306 321 q 246 231 246 272 q 275 165 246 190 z "},"б":{"ha":828,"x_min":32,"x_max":799,"o":"m 621 1115 l 722 932 l 449 806 q 361 764 388 778 q 294 721 335 750 q 236 656 254 692 q 213 574 218 621 l 210 546 l 214 546 q 317 657 251 617 q 464 697 383 697 q 702 597 606 697 q 799 342 799 496 q 693 79 799 181 q 426 -22 588 -22 q 142 99 251 -22 q 32 461 32 221 q 40 588 32 529 q 69 693 49 646 q 108 777 89 740 q 163 848 128 814 q 224 904 199 882 q 297 953 250 926 q 370 993 343 979 q 449 1032 397 1007 l 621 1115 m 537 452 q 514 475 537 452 q 426 497 492 497 q 316 451 361 497 q 271 338 271 406 q 317 225 271 272 q 426 178 363 178 q 538 224 494 178 q 582 338 582 271 q 537 452 582 407 z "},"в":{"ha":701,"x_min":61,"x_max":665,"o":"m 61 0 l 61 717 l 400 717 q 576 660 515 717 q 636 525 636 603 q 614 441 636 481 q 553 378 592 401 q 617 337 592 363 q 651 283 642 311 q 663 240 660 254 q 665 211 665 225 q 601 63 665 126 q 401 0 536 0 l 61 0 m 278 550 l 278 436 l 333 436 q 424 496 424 436 q 402 535 424 521 q 346 550 381 550 l 278 550 m 278 292 l 278 167 l 360 167 q 426 185 404 167 q 449 231 449 203 q 360 292 449 292 l 278 292 z "},"г":{"ha":531,"x_min":61,"x_max":524,"o":"m 61 -11 l 61 717 l 472 717 l 524 517 l 278 517 l 278 11 l 61 -11 z "},"д":{"ha":731,"x_min":10,"x_max":721,"o":"m 364 756 l 642 200 l 721 200 l 721 -132 l 521 -154 l 521 0 l 210 0 l 210 -132 l 10 -154 l 10 200 l 88 200 l 364 756 m 444 175 l 358 363 l 276 175 l 444 175 z "},"е":{"ha":779,"x_min":29,"x_max":758,"o":"m 617 258 l 732 90 q 417 -22 590 -22 q 136 92 243 -22 q 29 374 29 207 q 142 636 29 533 q 411 739 256 739 q 615 680 522 739 q 758 514 707 621 l 301 225 q 428 178 349 178 q 617 258 511 178 m 247 364 l 499 524 q 417 556 464 556 q 297 509 349 556 q 246 382 246 463 q 247 364 246 369 z "},"ж":{"ha":1050,"x_min":-14,"x_max":1064,"o":"m 417 706 l 633 728 l 633 392 l 639 392 l 804 739 l 1029 694 l 851 385 l 1064 50 l 839 -22 l 639 358 l 633 358 l 633 11 l 417 -11 l 417 358 l 411 358 l 211 -22 l -14 50 l 199 385 l 21 694 l 246 739 l 411 392 l 417 392 l 417 706 z "},"з":{"ha":656,"x_min":28,"x_max":624,"o":"m 215 286 l 215 440 l 269 440 q 386 503 386 440 q 383 522 386 513 q 371 542 379 531 q 342 560 363 553 q 293 567 322 567 q 129 514 210 567 l 44 650 q 322 739 167 739 q 528 678 457 739 q 599 528 599 618 q 506 379 599 425 q 592 315 561 360 q 624 214 624 271 q 545 45 624 113 q 315 -22 467 -22 q 28 67 154 -22 l 118 214 q 303 150 200 150 q 378 169 350 150 q 407 217 407 188 q 290 286 407 286 l 215 286 z "},"и":{"ha":739,"x_min":61,"x_max":678,"o":"m 278 383 l 678 756 l 678 11 l 461 -11 l 461 322 l 61 -50 l 61 706 l 278 728 l 278 383 z "},"й":{"ha":739,"x_min":61,"x_max":678,"o":"m 278 383 l 678 756 l 678 11 l 461 -11 l 461 322 l 61 -50 l 61 706 l 278 728 l 278 383 m 496 960 l 601 939 q 369 778 550 778 q 138 939 189 778 l 243 960 q 369 888 278 888 q 496 960 463 888 z "},"к":{"ha":763,"x_min":61,"x_max":790,"o":"m 61 706 l 278 728 l 278 413 l 281 413 l 531 750 l 754 682 l 508 392 l 790 47 l 546 -22 l 281 338 l 278 338 l 278 11 l 61 -11 l 61 706 z "},"л":{"ha":639,"x_min":-24,"x_max":663,"o":"m 317 314 l 192 -22 l -24 11 l 319 756 l 663 11 l 447 -22 l 317 314 z "},"м":{"ha":875,"x_min":-14,"x_max":889,"o":"m 185 758 l 435 311 l 690 758 l 889 11 l 665 -11 l 608 321 l 435 -22 l 256 321 l 204 -11 l -14 11 l 185 758 z "},"н":{"ha":725,"x_min":61,"x_max":664,"o":"m 447 467 l 447 706 l 664 728 l 664 11 l 447 -11 l 447 267 l 278 267 l 278 11 l 61 -11 l 61 706 l 278 728 l 278 467 l 447 467 z "},"о":{"ha":838,"x_min":29,"x_max":808,"o":"m 418 -22 q 145 88 261 -22 q 29 358 29 197 q 145 629 29 519 q 418 739 261 739 q 693 629 578 739 q 808 358 808 519 q 693 88 808 197 q 418 -22 578 -22 m 297 486 q 271 460 297 486 q 246 358 246 433 q 297 231 246 283 q 418 178 347 178 q 540 231 489 178 q 592 358 592 283 q 540 486 592 433 q 418 539 489 539 q 297 486 347 539 z "},"п":{"ha":725,"x_min":61,"x_max":664,"o":"m 61 -11 l 61 717 l 664 717 l 664 11 l 447 -11 l 447 517 l 278 517 l 278 11 l 61 -11 z "},"р":{"ha":871,"x_min":61,"x_max":842,"o":"m 61 -250 l 61 706 l 264 728 l 264 624 l 267 624 q 494 739 346 739 q 612 715 553 739 q 723 647 671 692 q 808 526 775 603 q 842 356 842 450 q 736 81 842 185 q 485 -22 631 -22 q 278 64 358 -22 l 278 -228 l 61 -250 m 316 487 q 290 461 316 487 q 264 358 264 435 q 316 230 264 282 q 444 178 368 178 q 573 230 521 178 q 625 358 625 282 q 573 487 625 435 q 444 539 521 539 q 316 487 368 539 z "},"с":{"ha":697,"x_min":29,"x_max":669,"o":"m 660 650 l 549 494 q 422 539 492 539 q 296 488 346 539 q 246 361 246 438 q 296 230 246 282 q 424 178 346 178 q 553 229 500 178 l 669 71 q 406 -22 546 -22 q 140 85 250 -22 q 29 365 29 192 q 139 633 29 528 q 408 739 249 739 q 660 650 556 739 z "},"т":{"ha":574,"x_min":10,"x_max":553,"o":"m 400 517 l 400 11 l 183 -11 l 183 517 l 10 517 l 63 717 l 553 717 l 553 517 l 400 517 z "},"у":{"ha":743,"x_min":-24,"x_max":767,"o":"m -24 690 l 199 739 l 369 319 l 551 736 l 767 686 l 324 -254 l 90 -222 l 251 85 l -24 690 z "},"ф":{"ha":975,"x_min":29,"x_max":946,"o":"m 379 919 l 596 939 l 596 717 q 851 610 756 714 q 946 360 946 506 q 852 110 946 217 q 596 0 758 3 l 596 -221 l 379 -242 l 379 0 q 124 107 218 3 q 29 360 29 211 q 124 610 29 507 q 379 717 218 713 l 379 919 m 388 201 l 388 515 q 284 467 322 510 q 246 360 246 425 q 283 249 246 293 q 388 201 321 204 m 588 515 l 588 201 q 689 246 649 203 q 729 360 729 289 q 692 468 729 424 q 588 515 654 513 z "},"х":{"ha":693,"x_min":-4,"x_max":697,"o":"m 221 742 l 347 522 l 482 742 l 688 683 l 468 371 l 697 46 l 479 -18 l 343 204 l 208 -18 l -4 46 l 222 369 l 3 683 l 221 742 z "},"ц":{"ha":767,"x_min":61,"x_max":750,"o":"m 444 706 l 661 728 l 661 200 l 750 200 l 750 -132 l 550 -154 l 550 0 l 61 0 l 61 706 l 278 728 l 278 200 l 444 200 l 444 706 z "},"ч":{"ha":713,"x_min":56,"x_max":651,"o":"m 435 706 l 651 728 l 651 11 l 435 -11 l 435 243 q 293 224 354 224 q 56 446 56 224 l 56 706 l 272 728 l 272 515 q 290 442 272 461 q 340 424 307 424 q 432 439 381 424 l 435 440 l 435 706 z "},"ш":{"ha":1042,"x_min":61,"x_max":981,"o":"m 413 706 l 629 728 l 629 200 l 764 200 l 764 706 l 981 728 l 981 0 l 61 0 l 61 706 l 278 728 l 278 200 l 413 200 l 413 706 z "},"щ":{"ha":1100,"x_min":75,"x_max":1083,"o":"m 426 706 l 643 728 l 643 200 l 778 200 l 778 706 l 994 728 l 994 200 l 1083 200 l 1083 -132 l 883 -154 l 883 0 l 75 0 l 75 706 l 292 728 l 292 200 l 426 200 l 426 706 z "},"ъ":{"ha":781,"x_min":-7,"x_max":751,"o":"m 161 517 l -7 517 l 50 717 l 378 717 l 378 481 l 453 481 q 601 458 539 481 q 694 397 663 435 q 738 320 725 360 q 751 238 751 281 q 433 0 751 0 l 161 0 l 161 517 m 378 314 l 378 167 l 425 167 q 535 240 535 167 q 424 314 535 314 l 378 314 z "},"ы":{"ha":1015,"x_min":61,"x_max":954,"o":"m 61 0 l 61 706 l 278 728 l 278 481 l 353 481 q 501 458 439 481 q 594 397 563 435 q 638 320 625 360 q 651 238 651 281 q 333 0 651 0 l 61 0 m 278 314 l 278 167 l 325 167 q 435 240 435 167 q 324 314 435 314 l 278 314 m 954 728 l 954 11 l 738 -11 l 738 706 l 954 728 z "},"ь":{"ha":681,"x_min":61,"x_max":651,"o":"m 61 0 l 61 706 l 278 728 l 278 481 l 353 481 q 501 458 439 481 q 594 397 563 435 q 638 320 625 360 q 651 238 651 281 q 333 0 651 0 l 61 0 m 278 314 l 278 167 l 325 167 q 435 240 435 167 q 324 314 435 314 l 278 314 z "},"э":{"ha":699,"x_min":28,"x_max":669,"o":"m 139 506 l 33 646 q 294 739 139 739 q 563 640 456 739 q 669 361 669 540 q 637 186 669 263 q 550 66 604 110 q 433 0 496 22 q 306 -22 371 -22 q 28 72 142 -22 l 140 218 q 283 160 206 160 q 396 192 351 160 q 453 283 440 225 l 207 283 l 207 442 l 453 442 q 389 527 435 497 q 281 557 343 557 q 139 506 201 557 z "},"ю":{"ha":1149,"x_min":61,"x_max":1119,"o":"m 278 467 l 361 467 q 507 670 401 601 q 729 739 613 739 q 1004 629 889 739 q 1119 358 1119 519 q 1004 88 1119 197 q 729 -22 889 -22 q 501 52 607 -22 q 361 267 396 126 l 278 267 l 278 11 l 61 -11 l 61 706 l 278 728 l 278 467 m 608 486 q 582 460 608 486 q 557 358 557 433 q 608 231 557 283 q 729 178 658 178 q 851 231 800 178 q 903 358 903 283 q 851 486 903 433 q 729 539 800 539 q 608 486 658 539 z "},"я":{"ha":703,"x_min":4,"x_max":642,"o":"m 642 717 l 642 11 l 425 -11 l 425 281 l 421 281 l 228 -22 l 4 50 l 197 300 l 178 307 q 92 371 128 325 q 56 483 56 417 q 60 535 56 510 q 85 596 65 561 q 136 656 104 631 q 228 699 168 681 q 369 717 289 717 l 642 717 m 425 397 l 425 544 l 364 544 q 295 522 318 544 q 272 471 272 500 q 296 419 272 442 q 368 397 319 397 l 425 397 z "},"ё":{"ha":779,"x_min":29,"x_max":758,"o":"m 617 258 l 732 90 q 417 -22 590 -22 q 136 92 243 -22 q 29 374 29 207 q 142 636 29 533 q 411 739 256 739 q 615 680 522 739 q 758 514 707 621 l 301 225 q 428 178 349 178 q 617 258 511 178 m 247 364 l 499 524 q 417 556 464 556 q 297 509 349 556 q 246 382 246 463 q 247 364 246 369 m 251 994 l 382 890 l 265 764 l 136 867 l 251 994 m 518 994 l 649 890 l 532 764 l 403 867 l 518 994 z "},"ђ":{"ha":728,"x_min":-26,"x_max":667,"o":"m 61 -11 l 61 788 l -26 788 l -26 885 l 61 885 l 61 967 l 278 989 l 278 885 l 494 885 l 494 788 l 278 788 l 278 665 q 442 739 340 739 q 667 392 667 739 q 626 6 667 153 q 457 -250 585 -140 l 290 -140 q 378 -44 346 -93 q 426 72 411 4 q 444 198 440 140 q 447 364 447 256 q 446 424 447 401 q 438 478 444 447 q 413 524 431 508 q 368 539 396 539 q 305 510 332 539 q 278 428 278 481 l 278 11 l 61 -11 z "},"ѓ":{"ha":531,"x_min":61,"x_max":524,"o":"m 61 -11 l 61 717 l 472 717 l 524 517 l 278 517 l 278 11 l 61 -11 m 431 1068 l 490 950 l 143 793 l 103 883 l 431 1068 z "},"є":{"ha":697,"x_min":28,"x_max":669,"o":"m 664 646 l 558 506 q 417 557 496 557 q 308 527 354 557 q 244 442 263 497 l 490 442 l 490 283 l 244 283 q 301 192 257 225 q 414 160 346 160 q 557 218 492 160 l 669 72 q 392 -22 556 -22 q 264 0 326 -22 q 147 66 201 22 q 60 186 93 110 q 28 361 28 263 q 135 640 28 540 q 403 739 242 739 q 664 646 558 739 z "},"ѕ":{"ha":628,"x_min":14,"x_max":600,"o":"m 576 635 l 450 510 q 326 558 394 558 q 273 544 290 558 q 256 513 256 531 q 259 495 256 503 q 271 481 263 488 q 287 471 279 475 q 308 464 294 467 q 330 459 322 461 q 353 455 338 457 q 374 451 369 453 q 517 399 467 435 q 600 226 600 339 q 522 51 600 125 q 296 -22 444 -22 q 14 82 138 -22 l 128 229 q 300 158 203 158 q 366 175 344 158 q 388 213 388 192 q 340 258 388 247 q 300 266 329 261 q 251 275 271 271 q 203 290 232 279 q 151 314 175 300 q 46 501 46 375 q 117 666 46 593 q 319 739 188 739 q 576 635 475 739 z "},"і":{"ha":358,"x_min":28,"x_max":331,"o":"m 288 728 l 288 11 l 71 -11 l 71 706 l 288 728 m 169 1011 l 331 894 l 188 754 l 28 868 l 169 1011 z "},"ї":{"ha":386,"x_min":-196,"x_max":301,"o":"m 301 728 l 301 11 l 85 -11 l 85 706 l 301 728 m -196 906 l -83 1007 l 22 894 l -90 793 l -196 906 m 83 906 l 196 1007 l 301 894 l 189 793 l 83 906 z "},"ј":{"ha":374,"x_min":-72,"x_max":346,"o":"m -72 -62 l -36 -62 q 34 -51 7 -62 q 72 -19 61 -40 q 84 17 82 3 q 86 57 86 32 l 86 706 l 303 728 l 303 47 q 303 11 303 22 q 301 -30 303 0 q 294 -76 299 -60 q 281 -119 290 -92 q 260 -164 272 -147 q 227 -201 247 -181 q 182 -232 207 -221 q 122 -251 157 -243 q 43 -258 86 -258 q -4 -256 26 -258 l -72 -62 m 185 1011 l 346 894 l 203 754 l 43 868 l 185 1011 z "},"љ":{"ha":928,"x_min":-14,"x_max":899,"o":"m 449 0 l 326 314 l 201 -22 l -14 11 l 329 756 l 453 485 l 575 485 q 731 460 665 485 q 828 403 797 435 q 876 330 858 372 q 897 268 894 288 q 899 231 899 249 q 890 167 899 197 q 860 105 882 136 q 802 51 838 74 q 707 15 767 29 q 569 0 647 0 l 449 0 m 526 318 l 594 167 l 607 167 q 662 184 642 167 q 682 232 682 201 q 653 293 682 268 q 568 318 625 318 l 526 318 z "},"њ":{"ha":1083,"x_min":61,"x_max":1058,"o":"m 468 0 l 468 276 l 278 276 l 278 11 l 61 -11 l 61 706 l 278 728 l 278 457 l 468 457 l 468 706 l 685 728 l 685 481 l 760 481 q 908 458 846 481 q 1001 397 969 435 q 1045 320 1032 360 q 1058 238 1058 281 q 740 0 1058 0 l 468 0 m 685 314 l 685 167 l 732 167 q 842 240 842 167 q 731 314 842 314 l 685 314 z "},"ћ":{"ha":725,"x_min":-26,"x_max":664,"o":"m 61 -11 l 61 788 l -26 788 l -26 885 l 61 885 l 61 967 l 278 989 l 278 885 l 494 885 l 494 788 l 278 788 l 278 665 q 442 739 340 739 q 601 678 538 739 q 664 467 664 617 l 664 11 l 447 -11 l 447 460 q 423 520 447 501 q 369 539 399 539 q 307 512 336 539 q 278 428 278 485 l 278 11 l 61 -11 z "},"ќ":{"ha":763,"x_min":61,"x_max":790,"o":"m 61 706 l 278 728 l 278 413 l 281 413 l 531 750 l 754 682 l 508 392 l 790 47 l 546 -22 l 281 338 l 278 338 l 278 11 l 61 -11 l 61 706 m 546 1068 l 606 950 l 258 793 l 218 883 l 546 1068 z "},"ў":{"ha":743,"x_min":-24,"x_max":767,"o":"m -24 690 l 199 739 l 369 319 l 551 736 l 767 686 l 324 -254 l 90 -222 l 251 85 l -24 690 m 501 1000 l 601 979 q 550 864 593 908 q 463 806 507 819 q 371 793 418 793 q 279 806 324 793 q 192 864 235 819 q 140 979 149 908 l 240 1000 q 281 928 243 953 q 371 904 318 904 q 461 928 424 904 q 501 1000 499 953 z "},"џ":{"ha":725,"x_min":61,"x_max":664,"o":"m 61 0 l 61 706 l 278 728 l 278 181 l 447 181 l 447 706 l 664 728 l 664 0 l 463 0 l 463 -146 l 263 -167 l 263 0 l 61 0 z "},"Ґ":{"ha":625,"x_min":75,"x_max":611,"o":"m 75 953 l 386 953 l 386 1044 l 611 1065 l 611 735 l 311 735 l 311 11 l 75 -11 l 75 953 z "},"ґ":{"ha":543,"x_min":61,"x_max":528,"o":"m 61 717 l 328 717 l 328 793 l 528 814 l 528 532 l 278 532 l 278 0 l 61 -11 l 61 717 z "},"ҙ":{"ha":656,"x_min":28,"x_max":624,"o":"m 215 286 l 215 440 l 269 440 q 386 503 386 440 q 383 522 386 513 q 371 542 379 531 q 342 560 363 553 q 293 567 322 567 q 129 514 210 567 l 44 650 q 322 739 167 739 q 528 678 457 739 q 599 528 599 618 q 506 379 599 425 q 592 315 561 360 q 624 214 624 271 q 545 45 624 113 q 315 -22 467 -22 q 28 67 154 -22 l 118 214 q 303 150 200 150 q 378 169 350 150 q 407 217 407 188 q 290 286 407 286 l 215 286 z "},"Ң":{"ha":1013,"x_min":74,"x_max":985,"o":"m 74 953 l 318 975 l 318 601 l 633 601 l 633 953 l 878 975 l 878 217 l 985 217 l 985 -189 l 751 -211 l 751 0 l 633 0 l 633 385 l 318 385 l 318 11 l 74 -11 l 74 953 z "},"ң":{"ha":769,"x_min":61,"x_max":753,"o":"m 61 706 l 278 728 l 278 467 l 447 467 l 447 706 l 664 728 l 664 200 l 753 200 l 753 -132 l 553 -154 l 553 0 l 447 0 l 447 267 l 278 267 l 278 11 l 61 -11 l 61 706 z "},"Ү":{"ha":850,"x_min":-21,"x_max":874,"o":"m 643 983 l 874 906 l 450 -22 l 186 11 l 351 332 l -21 906 l 224 983 l 472 576 l 643 983 z "},"ү":{"ha":733,"x_min":3,"x_max":731,"o":"m 3 694 l 225 736 l 365 385 l 507 736 l 731 694 l 475 174 l 475 -221 l 258 -242 l 258 154 l 3 694 z "},"һ":{"ha":725,"x_min":61,"x_max":664,"o":"m 61 967 l 278 989 l 278 665 q 442 739 340 739 q 601 678 538 739 q 664 467 664 617 l 664 11 l 447 -11 l 447 458 q 423 519 447 500 q 369 538 399 538 q 307 510 336 538 q 278 426 278 483 l 278 11 l 61 -11 l 61 967 z "},"Ӑ":{"ha":968,"x_min":-35,"x_max":1003,"o":"m 301 168 l 208 -36 l -35 22 l 489 1019 l 1003 22 l 757 -36 l 664 168 l 301 168 m 483 585 l 382 363 l 583 363 l 483 585 m 626 1274 l 732 1251 q 652 1106 719 1157 q 489 1056 585 1056 q 326 1106 393 1056 q 246 1251 258 1157 l 351 1274 q 395 1199 356 1225 q 489 1172 435 1172 q 583 1199 543 1172 q 626 1274 622 1225 z "},"ӑ":{"ha":740,"x_min":31,"x_max":679,"o":"m 119 507 l 156 701 q 376 739 275 739 q 519 718 460 739 q 609 669 579 697 q 656 601 639 642 q 676 537 674 561 q 679 485 679 513 l 679 7 l 475 -15 l 475 58 q 296 -22 421 -22 q 105 47 179 -22 q 31 224 31 117 q 103 401 31 332 q 296 471 176 471 q 463 415 389 471 l 463 454 q 335 553 463 553 q 119 507 226 553 m 275 165 q 290 153 275 165 q 354 140 304 140 q 433 165 404 140 q 463 231 463 190 q 433 296 463 271 q 354 321 404 321 q 276 297 306 321 q 246 231 246 272 q 275 165 246 190 m 500 1000 l 600 979 q 549 864 592 908 q 461 806 506 819 q 369 793 417 793 q 278 806 322 793 q 190 864 233 819 q 139 979 147 908 l 239 1000 q 279 928 242 953 q 369 904 317 904 q 460 928 422 904 q 500 1000 497 953 z "},"Ӓ":{"ha":968,"x_min":-35,"x_max":1003,"o":"m 301 168 l 208 -36 l -35 22 l 489 1019 l 1003 22 l 757 -36 l 664 168 l 301 168 m 483 585 l 382 363 l 583 363 l 483 585 m 235 1168 l 347 1269 l 453 1157 l 340 1056 l 235 1168 m 514 1168 l 626 1269 l 732 1157 l 619 1056 l 514 1168 z "},"ӓ":{"ha":740,"x_min":31,"x_max":679,"o":"m 119 507 l 156 701 q 376 739 275 739 q 519 718 460 739 q 609 669 579 697 q 656 601 639 642 q 676 537 674 561 q 679 485 679 513 l 679 7 l 475 -15 l 475 58 q 296 -22 421 -22 q 105 47 179 -22 q 31 224 31 117 q 103 401 31 332 q 296 471 176 471 q 463 415 389 471 l 463 454 q 335 553 463 553 q 119 507 226 553 m 275 165 q 290 153 275 165 q 354 140 304 140 q 433 165 404 140 q 463 231 463 190 q 433 296 463 271 q 354 321 404 321 q 276 297 306 321 q 246 231 246 272 q 275 165 246 190 m 121 906 l 233 1007 l 339 894 l 226 793 l 121 906 m 400 906 l 513 1007 l 618 894 l 506 793 l 400 906 z "},"Ӕ":{"ha":1311,"x_min":-68,"x_max":1300,"o":"m 179 -22 l -68 39 l 519 953 l 1225 953 l 1265 751 l 910 751 l 910 586 l 1168 586 l 1168 385 l 910 385 l 910 201 l 1300 201 l 1244 0 l 674 0 l 674 292 l 372 292 l 179 -22 m 490 493 l 674 493 l 674 785 l 671 785 l 490 493 z "},"ӕ":{"ha":1204,"x_min":32,"x_max":1176,"o":"m 263 303 q 248 291 263 303 q 233 236 233 279 q 263 169 233 193 q 335 144 293 144 q 406 169 376 144 q 436 236 436 193 q 406 303 436 279 q 335 328 376 328 q 263 303 293 328 m 121 517 l 157 700 q 386 739 281 739 q 588 657 517 739 q 833 739 700 739 q 1029 682 938 739 q 1176 514 1121 625 l 724 225 q 850 178 771 178 q 1039 258 933 178 l 1154 90 q 839 -22 1011 -22 q 557 88 679 -22 q 303 -22 458 -22 q 105 49 178 -22 q 32 225 32 119 q 106 398 32 329 q 290 467 181 467 q 451 411 376 467 l 451 450 q 313 558 451 558 q 121 517 218 558 m 667 364 l 918 524 q 836 556 883 556 q 717 509 768 556 q 665 382 665 463 q 667 364 665 369 z "},"Ӗ":{"ha":724,"x_min":74,"x_max":692,"o":"m 74 953 l 611 953 l 663 751 l 318 751 l 318 586 l 564 586 l 564 385 l 318 385 l 318 201 l 692 201 l 633 0 l 74 0 l 74 953 m 499 1274 l 604 1251 q 524 1106 592 1157 q 361 1056 457 1056 q 198 1106 265 1056 q 118 1251 131 1157 l 224 1274 q 267 1199 228 1225 q 361 1172 307 1172 q 455 1199 415 1172 q 499 1274 494 1225 z "},"ӗ":{"ha":779,"x_min":29,"x_max":758,"o":"m 617 258 l 732 90 q 417 -22 590 -22 q 136 92 243 -22 q 29 374 29 207 q 142 636 29 533 q 411 739 256 739 q 615 680 522 739 q 758 514 707 621 l 301 225 q 428 178 349 178 q 617 258 511 178 m 247 364 l 499 524 q 417 556 464 556 q 297 509 349 556 q 246 382 246 463 q 247 364 246 369 m 521 1000 l 621 979 q 569 864 613 908 q 482 806 526 819 q 390 793 438 793 q 299 806 343 793 q 211 864 254 819 q 160 979 168 908 l 260 1000 q 300 928 263 953 q 390 904 338 904 q 481 928 443 904 q 521 1000 518 953 z "},"Ӝ":{"ha":1267,"x_min":-22,"x_max":1289,"o":"m 511 953 l 756 975 l 756 544 l 763 544 l 1018 975 l 1257 911 l 997 499 l 1289 42 l 1033 -22 l 763 451 l 756 451 l 756 11 l 511 -11 l 511 451 l 504 451 l 233 -22 l -22 42 l 269 499 l 10 911 l 249 975 l 504 544 l 511 544 l 511 953 m 385 1168 l 497 1269 l 603 1157 l 490 1056 l 385 1168 m 664 1168 l 776 1269 l 882 1157 l 769 1056 l 664 1168 z "},"ӝ":{"ha":1050,"x_min":-14,"x_max":1064,"o":"m 417 706 l 633 728 l 633 392 l 639 392 l 804 739 l 1029 694 l 851 385 l 1064 50 l 839 -22 l 639 358 l 633 358 l 633 11 l 417 -11 l 417 358 l 411 358 l 211 -22 l -14 50 l 199 385 l 21 694 l 246 739 l 411 392 l 417 392 l 417 706 m 276 906 l 389 1007 l 494 894 l 382 793 l 276 906 m 556 906 l 668 1007 l 774 894 l 661 793 l 556 906 z "},"Ӟ":{"ha":789,"x_min":29,"x_max":733,"o":"m 261 385 l 261 586 l 336 586 q 437 612 403 586 q 471 676 471 638 q 440 740 471 713 q 343 767 408 767 q 140 699 229 767 l 46 876 q 369 975 204 975 q 621 898 535 975 q 707 714 707 821 q 674 586 707 646 q 568 497 642 526 q 691 415 649 476 q 733 275 733 353 q 640 67 733 156 q 367 -22 546 -22 q 29 89 176 -22 l 136 261 q 339 186 236 186 q 451 215 413 186 q 489 288 489 244 q 339 385 489 385 l 261 385 m 154 1168 l 267 1269 l 372 1157 l 260 1056 l 154 1168 m 433 1168 l 546 1269 l 651 1157 l 539 1056 l 433 1168 z "},"ӟ":{"ha":656,"x_min":28,"x_max":624,"o":"m 215 286 l 215 440 l 269 440 q 386 503 386 440 q 383 522 386 513 q 371 542 379 531 q 342 560 363 553 q 293 567 322 567 q 129 514 210 567 l 44 650 q 322 739 167 739 q 528 678 457 739 q 599 528 599 618 q 506 379 599 425 q 592 315 561 360 q 624 214 624 271 q 545 45 624 113 q 315 -22 467 -22 q 28 67 154 -22 l 118 214 q 303 150 200 150 q 378 169 350 150 q 407 217 407 188 q 290 286 407 286 l 215 286 m 79 906 l 192 1007 l 297 894 l 185 793 l 79 906 m 358 906 l 471 1007 l 576 894 l 464 793 l 358 906 z "},"Ӣ":{"ha":989,"x_min":74,"x_max":915,"o":"m 74 953 l 318 975 l 318 456 l 915 1019 l 915 11 l 671 -11 l 671 504 l 74 -56 l 74 953 m 747 1056 l 242 1056 l 242 1174 l 747 1174 l 747 1056 z "},"ӣ":{"ha":739,"x_min":61,"x_max":678,"o":"m 278 383 l 678 756 l 678 11 l 461 -11 l 461 322 l 61 -50 l 61 706 l 278 728 l 278 383 m 622 793 l 117 793 l 117 911 l 622 911 l 622 793 z "},"Ӥ":{"ha":989,"x_min":74,"x_max":915,"o":"m 74 953 l 318 975 l 318 456 l 915 1019 l 915 11 l 671 -11 l 671 504 l 74 -56 l 74 953 m 246 1168 l 358 1269 l 464 1157 l 351 1056 l 246 1168 m 525 1168 l 638 1269 l 743 1157 l 631 1056 l 525 1168 z "},"ӥ":{"ha":739,"x_min":61,"x_max":678,"o":"m 278 383 l 678 756 l 678 11 l 461 -11 l 461 322 l 61 -50 l 61 706 l 278 728 l 278 383 m 121 906 l 233 1007 l 339 894 l 226 793 l 121 906 m 400 906 l 513 1007 l 618 894 l 506 793 l 400 906 z "},"Ӧ":{"ha":1108,"x_min":32,"x_max":1076,"o":"m 185 123 q 108 195 185 123 q 32 476 32 268 q 185 830 32 685 q 554 975 338 975 q 924 830 771 975 q 1076 476 1076 685 q 924 123 1076 268 q 554 -22 771 -22 q 185 123 338 -22 m 358 676 q 317 635 358 676 q 276 476 276 594 q 358 276 276 358 q 554 194 439 194 q 751 276 669 194 q 832 476 832 358 q 751 676 832 594 q 554 758 669 758 q 358 676 439 758 m 306 1168 l 418 1269 l 524 1157 l 411 1056 l 306 1168 m 585 1168 l 697 1269 l 803 1157 l 690 1056 l 585 1168 z "},"ӧ":{"ha":838,"x_min":29,"x_max":808,"o":"m 418 -22 q 145 88 261 -22 q 29 358 29 197 q 145 629 29 519 q 418 739 261 739 q 693 629 578 739 q 808 358 808 519 q 693 88 808 197 q 418 -22 578 -22 m 297 486 q 271 460 297 486 q 246 358 246 433 q 297 231 246 283 q 418 178 347 178 q 540 231 489 178 q 592 358 592 283 q 540 486 592 433 q 418 539 489 539 q 297 486 347 539 m 169 906 l 282 1007 l 388 894 l 275 793 l 169 906 m 449 906 l 561 1007 l 667 894 l 554 793 l 449 906 z "},"Ө":{"ha":1108,"x_min":32,"x_max":1076,"o":"m 185 123 q 108 195 185 123 q 32 476 32 268 q 185 830 32 685 q 554 975 338 975 q 924 830 771 975 q 1076 476 1076 685 q 924 123 1076 268 q 554 -22 771 -22 q 185 123 338 -22 m 292 601 l 817 601 q 707 717 782 676 q 554 758 632 758 q 401 717 476 758 q 292 601 326 676 m 817 385 l 292 385 q 397 243 322 292 q 554 194 472 194 q 711 243 636 194 q 817 385 786 292 z "},"ө":{"ha":838,"x_min":29,"x_max":808,"o":"m 418 -22 q 145 88 261 -22 q 29 358 29 197 q 145 629 29 519 q 418 739 261 739 q 693 629 578 739 q 808 358 808 519 q 693 88 808 197 q 418 -22 578 -22 m 271 467 l 567 467 q 418 539 506 539 q 271 467 329 539 m 567 267 l 271 267 q 418 178 322 178 q 567 267 513 178 z "},"Ӯ":{"ha":850,"x_min":-21,"x_max":874,"o":"m -21 906 l 224 983 l 472 576 l 643 983 l 874 906 l 450 -22 l 186 11 l 351 332 l -21 906 m 669 1056 l 164 1056 l 164 1174 l 669 1174 l 669 1056 z "},"ӯ":{"ha":743,"x_min":-24,"x_max":767,"o":"m -24 690 l 199 739 l 369 319 l 551 736 l 767 686 l 324 -254 l 90 -222 l 251 85 l -24 690 m 625 793 l 119 793 l 119 911 l 625 911 l 625 793 z "},"Ӱ":{"ha":850,"x_min":-21,"x_max":874,"o":"m -21 906 l 224 983 l 472 576 l 643 983 l 874 906 l 450 -22 l 186 11 l 351 332 l -21 906 m 167 1168 l 279 1269 l 385 1157 l 272 1056 l 167 1168 m 446 1168 l 558 1269 l 664 1157 l 551 1056 l 446 1168 z "},"ӱ":{"ha":743,"x_min":-24,"x_max":767,"o":"m -24 690 l 199 739 l 369 319 l 551 736 l 767 686 l 324 -254 l 90 -222 l 251 85 l -24 690 m 122 906 l 235 1007 l 340 894 l 228 793 l 122 906 m 401 906 l 514 1007 l 619 894 l 507 793 l 401 906 z "},"Ӳ":{"ha":850,"x_min":-21,"x_max":906,"o":"m -21 906 l 224 983 l 472 576 l 643 983 l 874 906 l 450 -22 l 186 11 l 351 332 l -21 906 m 239 1138 l 532 1369 l 608 1263 l 290 1056 l 239 1138 m 536 1138 l 829 1369 l 906 1263 l 589 1056 l 536 1138 z "},"ӳ":{"ha":743,"x_min":-24,"x_max":779,"o":"m -24 690 l 199 739 l 369 319 l 551 736 l 767 686 l 324 -254 l 90 -222 l 251 85 l -24 690 m 143 871 l 422 1092 l 496 990 l 193 793 l 143 871 m 426 871 l 706 1092 l 779 990 l 476 793 l 426 871 z "},"Ӵ":{"ha":882,"x_min":56,"x_max":808,"o":"m 564 953 l 808 975 l 808 11 l 564 -11 l 564 339 q 367 315 451 315 q 221 337 282 315 q 128 388 160 358 q 80 464 97 417 q 59 546 63 511 q 56 631 56 581 l 56 953 l 300 975 l 300 663 q 303 612 300 631 q 319 572 307 593 q 358 542 331 551 q 429 532 385 532 q 564 556 496 532 l 564 953 m 192 1168 l 304 1269 l 410 1157 l 297 1056 l 192 1168 m 471 1168 l 583 1269 l 689 1157 l 576 1056 l 471 1168 z "},"ӵ":{"ha":713,"x_min":56,"x_max":651,"o":"m 435 706 l 651 728 l 651 11 l 435 -11 l 435 243 q 293 224 354 224 q 56 446 56 224 l 56 706 l 272 728 l 272 515 q 290 442 272 461 q 340 424 307 424 q 432 439 381 424 l 435 440 l 435 706 m 119 906 l 232 1007 l 338 894 l 225 793 l 119 906 m 399 906 l 511 1007 l 617 894 l 504 793 l 399 906 z "},"Ӹ":{"ha":1181,"x_min":74,"x_max":1107,"o":"m 863 953 l 1107 975 l 1107 11 l 863 -11 l 863 953 m 318 975 l 318 628 l 397 628 q 667 533 574 628 q 761 307 761 439 q 672 88 761 176 q 408 0 582 0 l 74 0 l 74 953 l 318 975 m 318 426 l 318 201 l 390 201 q 482 231 447 201 q 517 315 517 261 q 481 396 517 365 q 385 426 446 426 l 318 426 m 342 1168 l 454 1269 l 560 1157 l 447 1056 l 342 1168 m 621 1168 l 733 1269 l 839 1157 l 726 1056 l 621 1168 z "},"ӹ":{"ha":1015,"x_min":61,"x_max":954,"o":"m 61 0 l 61 706 l 278 728 l 278 481 l 353 481 q 501 458 439 481 q 594 397 563 435 q 638 320 625 360 q 651 238 651 281 q 333 0 651 0 l 61 0 m 278 314 l 278 167 l 325 167 q 435 240 435 167 q 324 314 435 314 l 278 314 m 954 728 l 954 11 l 738 -11 l 738 706 l 954 728 m 258 906 l 371 1007 l 476 894 l 364 793 l 258 906 m 538 906 l 650 1007 l 756 894 l 643 793 l 538 906 z "},"–":{"ha":833,"x_min":58,"x_max":775,"o":"m 775 300 l 58 300 l 58 469 l 775 469 l 775 300 z "},"—":{"ha":931,"x_min":0,"x_max":931,"o":"m 931 300 l 0 300 l 0 467 l 931 467 l 931 300 z "},"‘":{"ha":253,"x_min":3,"x_max":250,"o":"m 250 669 l 94 569 q 3 726 3 629 q 21 813 3 771 q 86 933 39 854 l 135 1015 l 250 956 l 226 914 q 172 767 172 818 q 250 669 172 714 z "},"’":{"ha":314,"x_min":33,"x_max":281,"o":"m 33 917 l 189 1017 q 281 860 281 957 q 263 774 281 815 q 197 653 244 732 l 149 571 l 33 631 l 57 672 q 111 819 111 768 q 33 917 111 872 z "},"‚":{"ha":322,"x_min":38,"x_max":285,"o":"m 38 163 l 193 263 q 285 106 285 203 q 267 19 285 61 q 201 -101 249 -22 l 153 -183 l 38 -124 l 61 -82 q 115 65 115 14 q 38 163 115 118 z "},"“":{"ha":657,"x_min":67,"x_max":589,"o":"m 589 669 l 433 569 q 342 726 342 629 q 360 813 342 771 q 425 933 378 854 l 474 1015 l 589 956 l 565 914 q 511 767 511 818 q 589 669 511 714 m 314 669 l 158 569 q 67 726 67 629 q 85 813 67 771 q 150 933 103 854 l 199 1015 l 314 956 l 290 914 q 236 767 236 818 q 314 669 236 714 z "},"”":{"ha":658,"x_min":68,"x_max":590,"o":"m 68 917 l 224 1017 q 315 860 315 957 q 297 774 315 815 q 232 653 279 732 l 183 571 l 68 631 l 92 672 q 146 819 146 768 q 68 917 146 872 m 343 917 l 499 1017 q 590 860 590 957 q 572 774 590 815 q 507 653 554 732 l 458 571 l 343 631 l 367 672 q 421 819 421 768 q 343 917 421 872 z "},"„":{"ha":658,"x_min":68,"x_max":590,"o":"m 68 163 l 224 263 q 315 106 315 203 q 297 19 315 61 q 232 -101 279 -22 l 183 -183 l 68 -124 l 92 -82 q 146 65 146 14 q 68 163 146 118 m 343 163 l 499 263 q 590 106 590 203 q 572 19 590 61 q 507 -101 554 -22 l 458 -183 l 343 -124 l 367 -82 q 421 65 421 14 q 343 163 421 118 z "},"†":{"ha":833,"x_min":76,"x_max":757,"o":"m 313 -256 l 313 525 l 76 525 l 76 717 l 313 717 l 313 953 l 521 953 l 521 717 l 757 717 l 757 525 l 521 525 l 521 -233 l 313 -256 z "},"‡":{"ha":836,"x_min":76,"x_max":760,"o":"m 315 -254 l 315 72 l 76 72 l 76 264 l 315 264 l 315 525 l 79 525 l 79 717 l 315 717 l 315 953 l 524 953 l 524 717 l 760 717 l 760 525 l 524 525 l 524 264 l 757 264 l 757 72 l 524 72 l 524 -232 l 315 -254 z "},"•":{"ha":693,"x_min":108,"x_max":585,"o":"m 515 644 q 550 610 515 644 q 585 476 585 575 q 515 308 585 378 q 347 238 446 238 q 178 308 247 238 q 108 476 108 378 q 177 644 108 575 q 347 714 246 714 q 515 644 446 714 z "},"…":{"ha":1389,"x_min":69,"x_max":1319,"o":"m 232 300 l 394 140 l 232 -19 l 69 140 l 232 300 m 694 300 l 857 140 l 694 -19 l 532 140 l 694 300 m 1157 300 l 1319 140 l 1157 -19 l 994 140 l 1157 300 z "},"‰":{"ha":1435,"x_min":6,"x_max":1444,"o":"m 640 301 q 624 287 640 301 q 608 228 608 274 q 640 155 608 182 q 708 128 671 128 q 777 155 746 128 q 808 228 808 182 q 777 301 808 274 q 708 328 746 328 q 640 301 671 328 m 481 228 q 547 389 481 322 q 708 456 614 456 q 869 389 803 456 q 936 228 936 322 q 869 67 936 135 q 708 0 801 0 q 548 67 615 0 q 481 228 481 135 m 136 21 l 556 731 q 515 721 536 721 q 460 743 489 721 q 461 725 461 738 q 393 564 461 631 q 233 497 325 497 q 72 564 139 497 q 6 725 6 631 q 72 886 6 819 q 233 953 139 953 q 397 889 308 953 q 435 861 422 869 q 452 849 439 858 q 473 835 465 839 q 494 826 481 831 q 524 821 508 821 q 597 842 560 821 q 658 907 633 864 l 685 953 l 797 921 l 244 -17 l 136 21 m 133 725 q 162 653 133 682 q 233 625 190 625 q 305 653 276 625 q 333 725 333 682 q 302 798 333 771 q 233 825 271 825 q 165 798 196 825 q 133 725 133 771 m 1148 301 q 1132 287 1148 301 q 1117 228 1117 274 q 1148 155 1117 182 q 1217 128 1179 128 q 1285 155 1254 128 q 1317 228 1317 182 q 1285 301 1317 274 q 1217 328 1254 328 q 1148 301 1179 328 m 989 228 q 1056 389 989 322 q 1217 456 1122 456 q 1378 389 1311 456 q 1444 228 1444 322 q 1377 67 1444 135 q 1217 0 1310 0 q 1056 67 1124 0 q 989 228 989 135 z "},"‹":{"ha":465,"x_min":61,"x_max":404,"o":"m 61 393 l 282 660 l 404 558 l 264 393 l 404 228 l 282 126 l 61 393 z "},"›":{"ha":465,"x_min":61,"x_max":404,"o":"m 404 393 l 183 126 l 61 228 l 201 393 l 61 558 l 183 660 l 404 393 z "},"⁄":{"ha":668,"x_min":-14,"x_max":682,"o":"m 538 1044 l 682 1024 l 129 -268 l -14 -244 l 538 1044 z "},"€":{"ha":819,"x_min":-7,"x_max":785,"o":"m 32 633 l 99 633 q 261 878 140 788 q 411 950 324 925 q 585 975 499 975 q 739 950 656 975 l 785 703 q 579 758 685 758 q 429 718 492 758 q 351 633 381 688 l 763 633 l 724 515 l 322 515 l 322 438 l 699 438 l 658 319 l 358 319 q 425 243 382 274 q 578 194 490 194 q 776 263 689 194 l 738 8 q 546 -22 639 -22 q 363 13 451 -22 q 215 107 275 49 q 96 319 131 189 l -7 319 l 32 438 l 76 438 l 76 515 l -7 515 l 32 633 z "},"№":{"ha":1592,"x_min":74,"x_max":1518,"o":"m 74 -11 l 74 1026 l 676 483 l 676 953 l 921 975 l 921 -56 l 318 485 l 318 11 l 74 -11 m 1200 694 q 1186 681 1200 694 q 1172 629 1172 667 q 1200 564 1172 592 q 1265 536 1228 536 q 1331 564 1303 536 q 1358 629 1358 592 q 1331 694 1358 667 q 1265 722 1303 722 q 1200 694 1228 722 m 1044 247 l 1486 247 l 1486 89 l 1044 89 l 1044 247 m 1082 463 q 1047 501 1082 463 q 1013 629 1013 539 q 1082 796 1013 719 q 1264 872 1151 872 q 1448 796 1378 872 q 1518 629 1518 719 q 1448 463 1518 539 q 1264 386 1378 386 q 1082 463 1151 386 z "},"™":{"ha":1231,"x_min":42,"x_max":1189,"o":"m 83 953 l 471 953 l 471 794 l 350 794 l 350 394 l 179 378 l 179 794 l 42 794 l 83 953 m 831 632 l 1032 985 l 1189 393 l 1013 378 l 968 639 l 831 368 l 689 639 l 649 378 l 476 393 l 633 985 l 831 632 z "},"∂":{"ha":849,"x_min":26,"x_max":822,"o":"m 203 964 l 422 990 q 581 865 514 925 q 705 734 647 806 q 792 581 763 663 q 822 413 822 500 q 707 100 822 222 q 424 -22 592 -22 q 146 88 265 -22 q 26 358 26 197 q 140 604 26 507 q 401 701 254 701 q 490 685 435 701 l 494 683 q 376 829 478 739 q 203 964 275 919 m 297 485 q 270 459 297 485 q 243 358 243 433 q 297 231 243 283 q 424 179 350 179 q 551 231 497 179 q 606 358 606 283 q 551 485 606 433 q 424 538 497 538 q 297 485 350 538 z "},"∏":{"ha":996,"x_min":21,"x_max":975,"o":"m 43 953 l 975 953 l 975 736 l 888 736 l 888 0 l 643 -11 l 643 736 l 353 736 l 353 0 l 108 -11 l 108 736 l 21 736 l 43 953 z "},"∑":{"ha":764,"x_min":28,"x_max":736,"o":"m 721 0 l 28 0 l 304 476 l 28 953 l 696 953 l 713 736 l 424 736 l 575 476 l 424 217 l 736 217 l 721 0 z "},"−":{"ha":833,"x_min":58,"x_max":775,"o":"m 775 274 l 58 274 l 58 443 l 775 443 l 775 274 z "},"√":{"ha":949,"x_min":0,"x_max":956,"o":"m 286 697 l 446 332 l 711 1090 l 956 1090 l 956 947 l 810 947 l 429 -143 l 133 533 l 0 533 l 32 697 l 286 697 z "},"∞":{"ha":1147,"x_min":28,"x_max":1119,"o":"m 574 535 l 653 596 q 876 693 778 693 q 1049 617 979 693 q 1119 411 1119 542 q 1049 205 1119 281 q 876 129 979 129 q 653 226 778 129 l 574 288 l 494 226 q 271 129 369 129 q 98 205 168 129 q 28 411 28 281 q 98 617 28 542 q 271 693 168 693 q 494 596 369 693 l 574 535 m 638 417 l 703 369 q 723 355 707 367 q 744 340 739 343 q 764 327 750 336 q 786 314 778 318 q 806 305 794 310 q 829 298 818 300 q 850 296 840 296 q 928 328 896 296 q 960 417 960 361 q 928 505 960 472 q 850 538 896 538 q 828 535 839 538 q 805 528 817 533 q 785 520 793 524 q 765 508 778 517 q 746 497 751 500 q 726 482 740 493 q 707 468 711 471 l 638 417 m 510 417 l 440 468 q 422 482 436 471 q 401 497 407 493 q 383 508 396 500 q 362 520 369 517 q 342 528 354 524 q 319 535 331 533 q 297 538 308 538 q 219 505 251 538 q 188 417 188 472 q 219 328 188 361 q 297 296 251 296 q 318 298 307 296 q 341 305 329 300 q 361 314 353 310 q 383 327 369 318 q 403 340 397 336 q 424 355 408 343 q 444 369 440 367 l 510 417 z "},"∫":{"ha":649,"x_min":14,"x_max":635,"o":"m 433 703 l 433 78 q 368 -123 433 -51 q 210 -194 303 -194 q 103 -169 157 -194 q 14 -92 50 -144 l 135 51 q 174 15 142 15 q 215 93 215 15 l 215 718 q 281 919 215 847 q 439 990 346 990 q 545 965 492 990 q 635 888 599 940 l 514 744 q 475 781 507 781 q 433 703 433 781 z "},"≈":{"ha":867,"x_min":96,"x_max":771,"o":"m 200 138 l 96 232 q 306 328 182 328 q 389 317 347 328 q 485 283 433 306 q 560 265 525 265 q 667 317 617 265 l 771 221 q 560 128 679 128 q 475 139 519 128 q 381 170 429 150 q 306 190 332 190 q 200 138 246 190 m 200 431 l 96 525 q 306 621 186 621 q 389 610 347 621 q 485 576 393 608 q 560 558 539 558 q 667 610 618 558 l 771 514 q 560 421 679 421 q 428 446 497 421 q 399 457 419 449 q 367 470 379 465 q 337 479 354 475 q 306 483 319 483 q 200 431 246 483 z "},"≠":{"ha":796,"x_min":40,"x_max":757,"o":"m 40 593 l 475 593 l 604 789 l 700 758 l 592 593 l 757 593 l 757 424 l 481 424 l 394 293 l 757 293 l 757 124 l 283 124 l 153 -75 l 58 -42 l 167 124 l 40 124 l 40 293 l 278 293 l 364 424 l 40 424 l 40 593 z "},"≤":{"ha":867,"x_min":58,"x_max":808,"o":"m 375 479 l 808 267 l 746 129 l 58 479 l 746 829 l 808 690 l 375 479 m 125 351 l 808 19 l 746 -118 l 63 214 l 125 351 z "},"≥":{"ha":867,"x_min":58,"x_max":808,"o":"m 492 479 l 58 690 l 121 829 l 808 479 l 121 129 l 58 267 l 492 479 m 742 351 l 804 214 l 121 -118 l 58 19 l 742 351 z "},"◊":{"ha":833,"x_min":58,"x_max":775,"o":"m 417 221 l 618 476 l 417 731 l 215 476 l 417 221 m 775 476 l 417 0 l 58 476 l 417 953 l 775 476 z "},"":{"ha":847,"x_min":-1,"x_max":826,"o":"m 474 503 l 329 503 l 329 11 l 113 -11 l 113 503 l -1 503 l 47 704 l 113 704 q 203 934 114 863 q 469 1006 292 1006 l 526 803 q 471 806 508 806 q 439 803 456 806 q 394 794 422 801 q 347 767 365 788 q 329 717 329 747 l 329 704 l 474 704 l 474 503 m 788 728 l 788 11 l 571 -11 l 571 706 l 788 728 m 667 1021 l 826 904 l 688 768 l 531 882 l 667 1021 z "},"":{"ha":860,"x_min":-1,"x_max":799,"o":"m 474 503 l 329 503 l 329 11 l 113 -11 l 113 503 l -1 503 l 47 704 l 113 704 q 203 934 114 863 q 469 1006 292 1006 l 526 803 q 471 806 508 806 q 439 803 456 806 q 394 794 422 801 q 347 767 365 788 q 329 717 329 747 l 329 704 l 474 704 l 474 503 m 799 11 l 582 -11 l 582 972 l 799 994 l 799 11 z "},"":{"ha":569,"x_min":42,"x_max":528,"o":"m 422 1274 l 528 1251 q 448 1106 515 1157 q 285 1056 381 1056 q 122 1106 189 1056 q 42 1251 54 1157 l 147 1274 q 191 1199 151 1225 q 285 1172 231 1172 q 378 1199 339 1172 q 422 1274 418 1225 z "},"":{"ha":304,"x_min":18,"x_max":263,"o":"m 64 -101 l 106 0 l 178 0 l 151 -60 l 160 -60 q 234 -90 206 -60 q 263 -165 263 -119 q 229 -244 263 -211 q 135 -276 196 -276 q 18 -242 71 -276 l 50 -172 q 131 -204 85 -204 q 168 -193 153 -204 q 183 -164 183 -182 q 172 -135 183 -146 q 142 -124 160 -124 q 111 -133 128 -124 l 64 -101 z "},"":{"ha":606,"x_min":42,"x_max":564,"o":"m 303 1150 l 172 1056 l 42 1071 l 303 1282 l 564 1071 l 433 1056 l 303 1150 z "},"":{"ha":322,"x_min":38,"x_max":285,"o":"m 38 -115 l 193 -15 q 285 -172 285 -75 q 267 -258 285 -217 q 201 -379 249 -300 l 153 -461 l 38 -401 l 61 -360 q 115 -212 115 -264 q 38 -115 115 -160 z "},"":{"ha":314,"x_min":33,"x_max":281,"o":"m 33 917 l 189 1017 q 281 860 281 957 q 263 774 281 815 q 197 653 244 732 l 149 571 l 33 631 l 57 672 q 111 819 111 768 q 33 917 111 872 z "},"":{"ha":386,"x_min":76,"x_max":310,"o":"m 194 1056 l 76 1174 l 192 1290 l 310 1174 l 194 1056 z "},"":{"ha":344,"x_min":42,"x_max":303,"o":"m 81 1094 q 61 1114 81 1094 q 42 1186 42 1133 q 81 1278 42 1239 q 172 1317 119 1317 q 264 1278 225 1317 q 303 1186 303 1239 q 264 1094 303 1133 q 172 1056 225 1056 q 81 1094 119 1056 m 145 1213 q 139 1207 145 1213 q 133 1186 133 1201 q 145 1159 133 1171 q 172 1147 157 1147 q 199 1159 188 1147 q 211 1186 211 1171 q 199 1213 211 1201 q 172 1225 188 1225 q 145 1213 157 1225 z "},"":{"ha":644,"x_min":42,"x_max":603,"o":"m 125 1064 l 42 1149 q 215 1222 121 1222 q 322 1201 265 1222 q 429 1174 406 1174 q 522 1214 476 1174 l 603 1133 q 438 1056 525 1056 q 322 1081 390 1056 q 222 1104 258 1104 q 125 1064 174 1104 z "},"":{"ha":290,"x_min":38,"x_max":300,"o":"m 276 -179 l 300 -254 q 174 -283 242 -283 q 72 -249 107 -283 q 38 -169 38 -214 q 172 0 38 -75 l 299 0 q 126 -162 126 -100 q 140 -192 126 -179 q 182 -206 154 -206 q 276 -179 229 -206 z "},"":{"ha":968,"x_min":-35,"x_max":1003,"o":"m 301 168 l 208 -36 l -35 22 l 489 1019 l 1003 22 l 757 -36 l 664 168 l 301 168 m 483 585 l 382 363 l 583 363 l 483 585 m 646 1331 l 706 1213 l 358 1056 l 318 1146 l 646 1331 z "},"":{"ha":724,"x_min":74,"x_max":692,"o":"m 74 953 l 611 953 l 663 751 l 318 751 l 318 586 l 564 586 l 564 385 l 318 385 l 318 201 l 692 201 l 633 0 l 74 0 l 74 953 m 524 1331 l 583 1213 l 236 1056 l 196 1146 l 524 1331 z "},"":{"ha":989,"x_min":74,"x_max":915,"o":"m 74 953 l 318 975 l 318 456 l 915 1019 l 915 11 l 671 -11 l 671 504 l 74 -56 l 74 953 m 656 1331 l 715 1213 l 368 1056 l 328 1146 l 656 1331 z "},"":{"ha":1108,"x_min":32,"x_max":1076,"o":"m 185 123 q 108 195 185 123 q 32 476 32 268 q 185 830 32 685 q 554 975 338 975 q 924 830 771 975 q 1076 476 1076 685 q 924 123 1076 268 q 554 -22 771 -22 q 185 123 338 -22 m 358 676 q 317 635 358 676 q 276 476 276 594 q 358 276 276 358 q 554 194 439 194 q 751 276 669 194 q 832 476 832 358 q 751 676 832 594 q 554 758 669 758 q 358 676 439 758 m 715 1331 l 775 1213 l 428 1056 l 388 1146 l 715 1331 z "},"":{"ha":850,"x_min":-21,"x_max":874,"o":"m -21 906 l 224 983 l 472 576 l 643 983 l 874 906 l 450 -22 l 186 11 l 351 332 l -21 906 m 586 1331 l 646 1213 l 299 1056 l 258 1146 l 586 1331 z "},"":{"ha":1181,"x_min":74,"x_max":1107,"o":"m 863 953 l 1107 975 l 1107 11 l 863 -11 l 863 953 m 318 975 l 318 628 l 397 628 q 667 533 574 628 q 761 307 761 439 q 672 88 761 176 q 408 0 582 0 l 74 0 l 74 953 l 318 975 m 318 426 l 318 201 l 390 201 q 482 231 447 201 q 517 315 517 261 q 481 396 517 365 q 385 426 446 426 l 318 426 m 751 1331 l 811 1213 l 464 1056 l 424 1146 l 751 1331 z "},"":{"ha":853,"x_min":35,"x_max":821,"o":"m 235 388 l 235 583 l 569 583 q 487 715 549 664 q 326 767 425 767 q 147 706 226 767 l 43 889 q 329 975 181 975 q 680 832 539 975 q 821 471 821 689 q 791 297 821 382 q 704 138 761 211 q 552 21 647 65 q 340 -24 457 -24 q 35 71 164 -24 l 146 246 q 326 186 231 186 q 483 240 414 186 q 571 388 551 294 l 235 388 m 588 1331 l 647 1213 l 300 1056 l 260 1146 l 588 1331 z "},"":{"ha":1457,"x_min":74,"x_max":1425,"o":"m 318 601 l 401 601 q 592 876 450 778 q 903 975 733 975 q 1272 830 1119 975 q 1425 476 1425 685 q 1272 124 1425 269 q 903 -22 1119 -22 q 578 90 719 -22 q 401 385 438 201 l 318 385 l 318 11 l 74 -11 l 74 953 l 318 975 l 318 601 m 711 676 q 672 635 711 676 q 632 476 632 594 q 711 276 632 358 q 903 194 790 194 q 1099 277 1018 194 q 1181 476 1181 360 q 1099 676 1181 593 q 903 758 1018 758 q 711 676 790 758 m 890 1331 l 950 1213 l 603 1056 l 563 1146 l 890 1331 z "},"":{"ha":843,"x_min":14,"x_max":769,"o":"m 769 953 l 769 11 l 525 -11 l 525 439 l 257 -22 l 14 64 l 250 424 q 135 516 179 454 q 92 656 92 578 q 100 735 92 697 q 133 815 108 772 q 199 889 158 858 q 313 940 240 919 q 481 961 386 961 q 769 953 631 961 m 525 493 l 525 744 l 479 744 q 375 713 414 744 q 336 628 336 682 q 375 533 336 572 q 485 493 414 493 l 525 493 m 583 1331 l 643 1213 l 296 1056 l 256 1146 l 583 1331 z "},"":{"ha":740,"x_min":31,"x_max":679,"o":"m 119 507 l 156 701 q 376 739 275 739 q 519 718 460 739 q 609 669 579 697 q 656 601 639 642 q 676 537 674 561 q 679 485 679 513 l 679 7 l 475 -15 l 475 58 q 296 -22 421 -22 q 105 47 179 -22 q 31 224 31 117 q 103 401 31 332 q 296 471 176 471 q 463 415 389 471 l 463 454 q 335 553 463 553 q 119 507 226 553 m 275 165 q 290 153 275 165 q 354 140 304 140 q 433 165 404 140 q 463 231 463 190 q 433 296 463 271 q 354 321 404 321 q 276 297 306 321 q 246 231 246 272 q 275 165 246 190 m 535 1068 l 594 950 l 247 793 l 207 883 l 535 1068 z "},"":{"ha":779,"x_min":29,"x_max":758,"o":"m 617 258 l 732 90 q 417 -22 590 -22 q 136 92 243 -22 q 29 374 29 207 q 142 636 29 533 q 411 739 256 739 q 615 680 522 739 q 758 514 707 621 l 301 225 q 428 178 349 178 q 617 258 511 178 m 247 364 l 499 524 q 417 556 464 556 q 297 509 349 556 q 246 382 246 463 q 247 364 246 369 m 554 1068 l 614 950 l 267 793 l 226 883 l 554 1068 z "},"":{"ha":739,"x_min":61,"x_max":678,"o":"m 278 383 l 678 756 l 678 11 l 461 -11 l 461 322 l 61 -50 l 61 706 l 278 728 l 278 383 m 535 1068 l 594 950 l 247 793 l 207 883 l 535 1068 z "},"":{"ha":838,"x_min":29,"x_max":808,"o":"m 418 -22 q 145 88 261 -22 q 29 358 29 197 q 145 629 29 519 q 418 739 261 739 q 693 629 578 739 q 808 358 808 519 q 693 88 808 197 q 418 -22 578 -22 m 297 486 q 271 460 297 486 q 246 358 246 433 q 297 231 246 283 q 418 178 347 178 q 540 231 489 178 q 592 358 592 283 q 540 486 592 433 q 418 539 489 539 q 297 486 347 539 m 583 1068 l 643 950 l 296 793 l 256 883 l 583 1068 z "},"":{"ha":743,"x_min":-24,"x_max":767,"o":"m -24 690 l 199 739 l 369 319 l 551 736 l 767 686 l 324 -254 l 90 -222 l 251 85 l -24 690 m 536 1068 l 596 950 l 249 793 l 208 883 l 536 1068 z "},"":{"ha":1015,"x_min":61,"x_max":954,"o":"m 61 0 l 61 706 l 278 728 l 278 481 l 353 481 q 501 458 439 481 q 594 397 563 435 q 638 320 625 360 q 651 238 651 281 q 333 0 651 0 l 61 0 m 278 314 l 278 167 l 325 167 q 435 240 435 167 q 324 314 435 314 l 278 314 m 954 728 l 954 11 l 738 -11 l 738 706 l 954 728 m 672 1068 l 732 950 l 385 793 l 344 883 l 672 1068 z "},"":{"ha":699,"x_min":28,"x_max":669,"o":"m 139 506 l 33 646 q 294 739 139 739 q 563 640 456 739 q 669 361 669 540 q 637 186 669 263 q 550 66 604 110 q 433 0 496 22 q 306 -22 371 -22 q 28 72 142 -22 l 140 218 q 283 160 206 160 q 396 192 351 160 q 453 283 440 225 l 207 283 l 207 442 l 453 442 q 389 527 435 497 q 281 557 343 557 q 139 506 201 557 m 514 1068 l 574 950 l 226 793 l 186 883 l 514 1068 z "},"":{"ha":1149,"x_min":61,"x_max":1119,"o":"m 278 467 l 361 467 q 507 670 401 601 q 729 739 613 739 q 1004 629 889 739 q 1119 358 1119 519 q 1004 88 1119 197 q 729 -22 889 -22 q 501 52 607 -22 q 361 267 396 126 l 278 267 l 278 11 l 61 -11 l 61 706 l 278 728 l 278 467 m 608 486 q 582 460 608 486 q 557 358 557 433 q 608 231 557 283 q 729 178 658 178 q 851 231 800 178 q 903 358 903 283 q 851 486 903 433 q 729 539 800 539 q 608 486 658 539 m 739 1068 l 799 950 l 451 793 l 411 883 l 739 1068 z "},"":{"ha":703,"x_min":4,"x_max":642,"o":"m 642 717 l 642 11 l 425 -11 l 425 281 l 421 281 l 228 -22 l 4 50 l 197 300 l 178 307 q 92 371 128 325 q 56 483 56 417 q 60 535 56 510 q 85 596 65 561 q 136 656 104 631 q 228 699 168 681 q 369 717 289 717 l 642 717 m 425 397 l 425 544 l 364 544 q 295 522 318 544 q 272 471 272 500 q 296 419 272 442 q 368 397 319 397 l 425 397 m 517 1068 l 576 950 l 229 793 l 189 883 l 517 1068 z "},"":{"ha":919,"x_min":74,"x_max":846,"o":"m 318 975 l 318 356 q 359 231 318 268 q 460 194 400 194 q 560 231 519 194 q 601 356 601 268 l 601 953 l 846 975 l 846 293 q 748 69 846 160 q 460 -22 650 -22 q 172 69 269 -22 q 74 293 74 160 l 74 953 l 318 975 m 471 1056 l 353 1174 l 468 1290 l 586 1174 l 471 1056 z "},"":{"ha":725,"x_min":61,"x_max":664,"o":"m 664 11 l 463 -11 l 463 79 q 279 -22 397 -22 q 124 40 188 -22 q 61 221 61 101 l 61 706 l 278 728 l 278 257 q 301 196 278 214 q 356 178 325 178 q 418 205 389 178 q 447 289 447 232 l 447 706 l 664 728 l 664 11 m 358 793 l 240 911 l 356 1028 l 474 911 l 358 793 z "},"":{"ha":1522,"x_min":32,"x_max":1483,"o":"m 713 861 l 576 697 q 407 774 500 774 q 331 749 356 774 q 307 694 307 724 q 326 648 307 665 q 378 617 344 631 q 465 585 410 603 q 557 551 521 568 q 626 507 593 535 q 722 296 722 425 q 628 69 722 160 q 372 -22 535 -22 q 32 108 163 -22 l 174 276 q 363 186 258 186 q 448 213 418 186 q 478 274 478 239 q 419 350 478 324 q 309 389 403 358 q 169 456 215 419 q 63 671 63 538 q 151 882 63 789 q 404 975 239 975 q 713 861 586 975 m 1474 861 l 1338 697 q 1168 774 1261 774 q 1092 749 1117 774 q 1068 694 1068 724 q 1087 648 1068 665 q 1139 617 1106 631 q 1226 585 1171 603 q 1318 551 1282 568 q 1388 507 1354 535 q 1483 296 1483 425 q 1390 69 1483 160 q 1133 -22 1296 -22 q 793 108 924 -22 l 935 276 q 1124 186 1019 186 q 1209 213 1179 186 q 1239 274 1239 239 q 1181 350 1239 324 q 1070 389 1164 358 q 931 456 976 419 q 824 671 824 538 q 912 882 824 789 q 1165 975 1000 975 q 1474 861 1347 975 z "},"":{"ha":800,"x_min":32,"x_max":750,"o":"m 710 950 l 750 683 q 550 758 658 758 q 355 676 433 758 q 276 474 276 593 q 356 275 276 356 q 549 194 435 194 q 747 263 660 194 l 708 8 q 524 -21 619 -21 l 508 -60 l 525 -60 q 592 -90 565 -62 q 619 -165 619 -118 q 586 -244 619 -211 q 492 -276 553 -276 q 375 -242 428 -276 l 407 -172 q 488 -204 442 -204 q 525 -193 510 -204 q 540 -164 540 -182 q 528 -135 540 -146 q 499 -124 517 -124 q 468 -133 485 -124 l 421 -101 l 456 -17 q 150 151 268 7 q 32 469 32 294 q 63 642 32 556 q 152 805 93 729 q 310 928 211 881 q 531 975 408 975 q 710 950 626 975 z "},"":{"ha":697,"x_min":28,"x_max":669,"o":"m 660 650 l 549 494 q 422 539 492 539 q 296 488 346 539 q 246 361 246 438 q 295 229 246 281 q 424 178 344 178 q 553 229 500 178 l 669 71 q 436 -21 558 -12 l 419 -60 l 436 -60 q 503 -90 476 -62 q 531 -165 531 -118 q 497 -244 531 -211 q 403 -276 464 -276 q 286 -242 339 -276 l 318 -172 q 399 -204 353 -204 q 436 -193 421 -204 q 451 -164 451 -182 q 440 -135 451 -146 q 410 -124 428 -124 q 379 -133 396 -124 l 332 -101 l 365 -19 q 119 106 211 -3 q 28 365 28 214 q 138 633 28 528 q 408 739 247 739 q 660 650 558 739 z "},"":{"ha":850,"x_min":-21,"x_max":874,"o":"m -21 906 l 224 983 l 472 576 l 643 983 l 874 906 l 450 -22 l 186 11 l 351 332 l -21 906 m 578 1331 l 638 1213 l 290 1056 l 250 1146 l 578 1331 z "},"":{"ha":743,"x_min":-24,"x_max":767,"o":"m -24 690 l 199 739 l 369 319 l 551 736 l 767 686 l 324 -254 l 90 -222 l 251 85 l -24 690 m 536 1068 l 596 950 l 249 793 l 208 883 l 536 1068 z "},"":{"ha":817,"x_min":42,"x_max":775,"o":"m 140 842 q 190 909 140 842 q 408 975 239 975 q 676 842 578 975 q 775 476 775 710 q 676 110 775 243 q 408 -22 578 -22 q 140 110 239 -22 q 42 476 42 243 q 140 842 42 710 m 539 476 q 539 614 539 476 q 408 751 539 751 q 278 476 278 751 q 408 201 278 201 q 539 476 539 201 z "},"":{"ha":831,"x_min":42,"x_max":789,"o":"m 364 542 l 231 364 q 101 475 156 403 q 46 650 46 547 q 67 764 46 708 q 131 868 89 819 q 244 946 172 917 q 406 975 315 975 q 567 946 496 975 q 679 869 639 917 q 740 768 719 821 q 761 661 761 715 q 733 530 761 596 q 681 431 706 464 q 610 342 657 397 l 501 213 l 789 213 l 732 0 l 42 0 q 410 439 401 431 q 517 653 517 565 q 481 738 517 707 q 396 768 446 768 q 313 736 347 768 q 279 656 279 704 q 301 586 279 618 q 364 542 324 554 z "},"":{"ha":778,"x_min":35,"x_max":738,"o":"m 265 406 l 265 572 l 346 572 q 439 602 407 572 q 471 676 471 632 q 440 751 471 722 q 358 781 410 781 q 204 692 258 781 l 39 786 q 378 975 150 975 q 616 894 531 975 q 701 696 701 814 q 600 507 701 578 q 635 484 617 497 q 679 444 653 471 q 722 376 706 418 q 738 283 738 333 q 643 67 738 157 q 376 -22 549 -22 q 35 131 171 -22 l 192 289 q 367 192 258 192 q 462 224 429 192 q 494 299 494 257 q 465 373 494 340 q 365 406 435 406 l 265 406 z "},"":{"ha":799,"x_min":14,"x_max":768,"o":"m 325 953 l 636 953 l 636 424 l 768 424 l 733 232 l 636 232 l 636 0 l 404 -19 l 404 232 l 14 232 l 325 953 m 425 424 l 425 743 l 288 424 l 425 424 z "},"":{"ha":768,"x_min":35,"x_max":728,"o":"m 135 953 l 682 953 l 619 739 l 363 739 l 363 651 q 417 654 381 654 q 643 559 558 654 q 728 325 728 464 q 632 81 728 185 q 368 -22 536 -22 q 35 114 163 -22 l 189 282 q 336 208 250 208 q 445 246 406 208 q 485 333 485 283 q 444 429 485 389 q 325 469 403 469 q 135 426 233 469 l 135 953 z "},"":{"ha":771,"x_min":32,"x_max":738,"o":"m 396 975 l 631 907 q 369 628 458 763 q 458 639 410 639 q 652 556 567 639 q 738 328 738 472 q 638 74 738 171 q 382 -22 539 -22 q 128 78 225 -22 q 32 338 32 179 q 73 539 32 435 q 181 731 114 643 q 297 874 247 819 q 396 975 346 929 m 386 457 q 293 419 331 457 q 256 326 256 382 q 294 231 256 269 q 386 192 332 192 q 476 231 439 192 q 514 326 514 269 q 477 419 514 381 q 386 457 440 457 z "},"":{"ha":750,"x_min":33,"x_max":731,"o":"m 424 739 l 33 739 l 88 953 l 731 953 l 425 11 l 160 -11 l 424 739 z "},"":{"ha":781,"x_min":40,"x_max":740,"o":"m 241 947 q 273 960 241 947 q 390 974 306 974 q 540 947 475 974 q 639 877 604 921 q 690 787 674 833 q 707 693 707 740 q 677 588 707 642 q 594 497 647 535 q 740 261 740 410 q 650 62 740 146 q 390 -22 560 -22 q 131 62 222 -22 q 40 263 40 146 q 186 497 40 407 q 103 588 133 535 q 74 693 74 642 q 90 787 74 740 q 142 877 107 833 q 241 947 176 921 m 390 597 q 458 642 432 613 q 483 703 483 672 q 463 759 483 733 q 390 785 442 785 q 318 759 339 785 q 297 703 297 733 q 323 642 297 672 q 390 597 349 613 m 390 406 q 299 349 328 385 q 271 275 271 313 q 302 208 271 236 q 390 179 333 179 q 478 208 447 179 q 510 275 510 236 q 481 349 510 313 q 390 406 453 385 z "},"":{"ha":771,"x_min":33,"x_max":739,"o":"m 375 -22 l 140 46 q 401 325 313 190 q 313 314 361 314 q 119 397 204 314 q 33 625 33 481 q 133 878 33 782 q 389 975 232 975 q 642 874 546 975 q 739 615 739 774 q 698 414 739 518 q 590 222 657 310 q 474 78 524 133 q 375 -22 425 24 m 385 496 q 478 533 440 496 q 515 626 515 571 q 477 722 515 683 q 385 761 439 761 q 294 722 332 761 q 257 626 257 683 q 294 534 257 572 q 385 496 331 496 z "},"":{"ha":322,"x_min":38,"x_max":285,"o":"m 38 -115 l 193 -15 q 285 -172 285 -75 q 267 -258 285 -217 q 201 -379 249 -300 l 153 -461 l 38 -401 l 61 -360 q 115 -212 115 -264 q 38 -115 115 -160 z "},"":{"ha":443,"x_min":56,"x_max":443,"o":"m 383 1331 l 443 1213 l 96 1056 l 56 1146 l 383 1331 z "},"":{"ha":606,"x_min":42,"x_max":564,"o":"m 303 1188 l 433 1282 l 564 1267 l 303 1056 l 42 1267 l 172 1282 l 303 1188 z "},"":{"ha":581,"x_min":42,"x_max":539,"o":"m 42 1168 l 154 1269 l 260 1157 l 147 1056 l 42 1168 m 321 1168 l 433 1269 l 539 1157 l 426 1056 l 321 1168 z "},"":{"ha":443,"x_min":0,"x_max":388,"o":"m 60 1331 l 388 1146 l 347 1056 l 0 1213 l 60 1331 z "},"":{"ha":681,"x_min":83,"x_max":750,"o":"m 83 1138 l 376 1369 l 453 1263 l 135 1056 l 83 1138 m 381 1138 l 674 1369 l 750 1263 l 433 1056 l 381 1138 z "},"":{"ha":589,"x_min":42,"x_max":547,"o":"m 547 1056 l 42 1056 l 42 1174 l 547 1174 l 547 1056 z "},"":{"ha":525,"x_min":3,"x_max":467,"o":"m 82 549 l 3 686 l 467 975 l 467 0 l 243 -22 l 243 626 l 82 549 z "}}}
